{"glyphs":{"0":{"ha":821,"x_min":39,"x_max":781,"o":"m 410 -15 q 137 97 235 -15 q 39 406 39 208 q 136 714 39 604 q 410 824 233 824 q 683 714 586 824 q 781 406 781 604 q 683 97 781 208 q 410 -15 585 -15 m 410 172 q 498 228 471 172 q 525 406 525 285 q 498 581 525 524 q 410 638 471 638 q 322 581 349 638 q 294 406 294 524 q 322 229 294 286 q 410 172 349 172 z "},"1":{"ha":618,"x_min":42,"x_max":604,"o":"m 42 153 l 188 153 l 188 647 l 49 631 l 42 767 l 458 810 l 458 153 l 604 153 l 604 0 l 42 0 l 42 153 z "},"2":{"ha":776,"x_min":56,"x_max":699,"o":"m 699 271 l 699 0 l 63 0 l 64 149 l 317 381 q 415 484 385 443 q 446 565 446 525 q 426 626 446 604 q 368 649 407 649 q 297 616 322 649 q 272 536 272 583 q 281 464 272 504 l 69 464 q 56 558 56 513 q 91 692 56 632 q 200 788 126 751 q 382 824 274 824 q 608 761 526 824 q 690 593 690 699 q 638 440 690 513 q 457 257 586 367 l 349 157 l 551 157 l 551 271 l 699 271 z "},"3":{"ha":799,"x_min":42,"x_max":729,"o":"m 581 417 q 690 347 650 394 q 729 224 729 299 q 638 49 729 113 q 399 -15 547 -15 q 163 45 251 -15 q 42 218 74 106 l 240 294 q 292 197 254 229 q 379 164 331 164 q 447 186 421 164 q 474 246 474 208 q 441 318 474 293 q 342 343 408 343 l 342 472 q 433 499 400 472 q 465 571 465 525 q 444 629 465 607 q 386 651 424 651 q 311 619 339 651 q 276 529 283 588 l 69 596 q 181 767 89 710 q 411 824 272 824 q 632 762 554 824 q 710 601 710 700 q 675 489 710 536 q 581 417 640 442 z "},"4":{"ha":843,"x_min":56,"x_max":788,"o":"m 285 151 l 432 151 l 432 256 l 75 256 l 56 358 l 443 810 l 676 810 l 676 382 l 788 382 l 788 256 l 676 256 l 676 151 l 774 151 l 774 0 l 285 0 l 285 151 m 432 382 l 432 607 l 243 382 l 432 382 z "},"5":{"ha":821,"x_min":75,"x_max":738,"o":"m 474 542 q 667 472 597 542 q 738 281 738 401 q 693 121 738 188 q 573 19 649 54 q 406 -15 497 -15 q 75 96 231 -15 l 158 249 q 269 188 219 208 q 376 168 318 168 q 471 198 438 168 q 504 279 504 228 q 476 349 504 322 q 400 375 449 375 q 276 322 333 375 l 114 381 l 125 810 l 704 810 l 704 596 l 554 596 l 554 663 l 292 663 l 288 499 q 474 542 367 542 z "},"6":{"ha":794,"x_min":64,"x_max":739,"o":"m 436 560 q 659 483 579 560 q 739 279 739 407 q 644 63 739 142 q 394 -15 550 -15 q 152 63 240 -15 q 64 275 64 140 q 94 431 64 357 q 196 607 125 504 l 389 886 l 558 775 l 411 558 q 436 560 419 560 m 401 158 q 474 191 449 158 q 499 283 499 224 q 474 374 499 342 q 401 407 449 407 q 330 374 356 407 q 304 283 304 340 q 330 192 304 225 q 401 158 356 158 z "},"7":{"ha":749,"x_min":42,"x_max":693,"o":"m 438 660 l 210 660 l 210 543 l 42 543 l 42 810 l 693 810 l 693 667 l 438 0 l 179 0 l 438 660 z "},"8":{"ha":807,"x_min":64,"x_max":743,"o":"m 399 -15 q 223 13 299 -15 q 106 94 147 42 q 64 214 64 146 q 101 331 64 281 q 201 408 138 381 q 92 586 92 474 q 132 712 92 658 q 244 794 172 765 q 408 824 317 824 q 631 766 546 824 q 715 610 715 708 q 593 417 715 483 q 705 342 667 386 q 743 231 743 297 q 699 101 743 157 q 576 15 654 46 q 399 -15 499 -15 m 443 467 q 483 526 469 493 q 496 607 496 560 q 478 674 496 649 q 424 699 460 699 q 365 670 385 699 q 346 594 346 642 q 369 517 346 547 q 443 467 392 488 m 396 99 q 464 131 440 99 q 488 217 488 163 q 460 298 488 267 q 361 351 432 329 q 292 217 292 318 q 319 131 292 164 q 396 99 347 99 z "},"9":{"ha":794,"x_min":56,"x_max":731,"o":"m 400 824 q 642 746 554 824 q 731 533 731 668 q 700 378 731 451 q 599 201 669 304 l 406 -78 l 236 33 l 383 250 q 358 249 375 249 q 135 325 215 249 q 56 529 56 401 q 150 745 56 667 q 400 824 244 824 m 393 401 q 465 435 439 401 q 490 525 490 468 q 465 617 490 583 q 393 650 439 650 q 321 617 346 650 q 296 525 296 585 q 321 434 296 467 q 393 401 346 401 z "},"\u0000":{"ha":0,"x_min":0,"x_max":0,"o":""},"\r":{"ha":444,"x_min":0,"x_max":0,"o":""}," ":{"ha":444,"x_min":0,"x_max":0,"o":""},"A":{"ha":1042,"x_min":28,"x_max":1014,"o":"m 28 167 l 103 167 l 289 643 l 214 643 l 214 810 l 826 810 l 826 643 l 751 643 l 939 167 l 1014 167 l 1014 0 l 574 0 l 574 167 l 657 167 l 624 278 l 388 278 l 351 167 l 421 167 l 421 0 l 28 0 l 28 167 m 576 431 l 513 643 l 506 643 l 436 431 l 576 431 z "},"Á":{"ha":1042,"x_min":28,"x_max":1014,"o":"m 28 167 l 103 167 l 289 643 l 214 643 l 214 810 l 826 810 l 826 643 l 751 643 l 939 167 l 1014 167 l 1014 0 l 574 0 l 574 167 l 657 167 l 624 278 l 388 278 l 351 167 l 421 167 l 421 0 l 28 0 l 28 167 m 576 431 l 513 643 l 506 643 l 436 431 l 576 431 m 508 1142 l 726 1142 l 589 888 l 453 888 l 508 1142 z "},"Ă":{"ha":1042,"x_min":28,"x_max":1014,"o":"m 28 167 l 103 167 l 289 643 l 214 643 l 214 810 l 826 810 l 826 643 l 751 643 l 939 167 l 1014 167 l 1014 0 l 574 0 l 574 167 l 657 167 l 624 278 l 388 278 l 351 167 l 421 167 l 421 0 l 28 0 l 28 167 m 576 431 l 513 643 l 506 643 l 436 431 l 576 431 m 521 911 q 274 1129 285 911 l 432 1129 q 460 1062 438 1085 q 521 1039 483 1039 q 610 1129 603 1039 l 768 1129 q 521 911 749 911 z "},"Ắ":{"ha":1042,"x_min":28,"x_max":1014,"o":"m 28 167 l 103 167 l 289 643 l 214 643 l 214 810 l 826 810 l 826 643 l 751 643 l 939 167 l 1014 167 l 1014 0 l 574 0 l 574 167 l 657 167 l 624 278 l 388 278 l 351 167 l 421 167 l 421 0 l 28 0 l 28 167 m 576 431 l 513 643 l 506 643 l 436 431 l 576 431 m 519 1331 l 699 1331 l 565 1132 l 453 1132 l 519 1331 m 521 904 q 274 1094 285 904 l 418 1094 q 521 1011 431 1011 q 624 1094 618 1011 l 768 1094 q 521 904 749 904 z "},"Ặ":{"ha":1042,"x_min":28,"x_max":1014,"o":"m 28 167 l 103 167 l 289 643 l 214 643 l 214 810 l 826 810 l 826 643 l 751 643 l 939 167 l 1014 167 l 1014 0 l 574 0 l 574 167 l 657 167 l 624 278 l 388 278 l 351 167 l 421 167 l 421 0 l 28 0 l 28 167 m 576 431 l 513 643 l 506 643 l 436 431 l 576 431 m 521 911 q 274 1129 285 911 l 432 1129 q 460 1062 438 1085 q 521 1039 483 1039 q 610 1129 603 1039 l 768 1129 q 521 911 749 911 m 497 -296 q 411 -266 443 -296 q 379 -187 379 -236 q 411 -110 379 -139 q 497 -81 443 -81 q 583 -110 551 -81 q 615 -190 615 -140 q 583 -267 615 -237 q 497 -296 550 -296 z "},"Ằ":{"ha":1042,"x_min":28,"x_max":1014,"o":"m 28 167 l 103 167 l 289 643 l 214 643 l 214 810 l 826 810 l 826 643 l 751 643 l 939 167 l 1014 167 l 1014 0 l 574 0 l 574 167 l 657 167 l 624 278 l 388 278 l 351 167 l 421 167 l 421 0 l 28 0 l 28 167 m 576 431 l 513 643 l 506 643 l 436 431 l 576 431 m 343 1331 l 522 1331 l 589 1132 l 476 1132 l 343 1331 m 521 904 q 274 1094 285 904 l 418 1094 q 521 1011 431 1011 q 624 1094 618 1011 l 768 1094 q 521 904 749 904 z "},"Ẳ":{"ha":1042,"x_min":28,"x_max":1014,"o":"m 28 167 l 103 167 l 289 643 l 214 643 l 214 810 l 826 810 l 826 643 l 751 643 l 939 167 l 1014 167 l 1014 0 l 574 0 l 574 167 l 657 167 l 624 278 l 388 278 l 351 167 l 421 167 l 421 0 l 28 0 l 28 167 m 576 431 l 513 643 l 506 643 l 436 431 l 576 431 m 490 1158 q 524 1181 513 1169 q 535 1213 535 1193 q 519 1242 535 1232 q 475 1253 503 1253 q 389 1226 431 1253 l 365 1299 q 433 1339 394 1324 q 513 1354 471 1354 q 613 1324 575 1354 q 651 1240 651 1293 q 615 1149 651 1186 q 510 1097 578 1113 l 490 1158 m 521 904 q 274 1094 285 904 l 418 1094 q 521 1011 431 1011 q 624 1094 618 1011 l 768 1094 q 521 904 749 904 z "},"Ẵ":{"ha":1042,"x_min":28,"x_max":1014,"o":"m 28 167 l 103 167 l 289 643 l 214 643 l 214 810 l 826 810 l 826 643 l 751 643 l 939 167 l 1014 167 l 1014 0 l 574 0 l 574 167 l 657 167 l 624 278 l 388 278 l 351 167 l 421 167 l 421 0 l 28 0 l 28 167 m 576 431 l 513 643 l 506 643 l 436 431 l 576 431 m 631 1154 q 569 1165 599 1154 q 494 1194 539 1175 q 447 1215 465 1208 q 411 1222 428 1222 q 350 1163 356 1222 l 235 1163 q 292 1315 243 1267 q 413 1363 340 1363 q 470 1353 443 1363 q 532 1326 497 1343 q 586 1303 564 1311 q 631 1294 608 1294 q 692 1354 686 1294 l 807 1354 q 631 1154 790 1154 m 521 904 q 274 1094 285 904 l 418 1094 q 521 1011 431 1011 q 624 1094 618 1011 l 768 1094 q 521 904 749 904 z "},"Ǎ":{"ha":1042,"x_min":28,"x_max":1014,"o":"m 28 167 l 103 167 l 289 643 l 214 643 l 214 810 l 826 810 l 826 643 l 751 643 l 939 167 l 1014 167 l 1014 0 l 574 0 l 574 167 l 657 167 l 624 278 l 388 278 l 351 167 l 421 167 l 421 0 l 28 0 l 28 167 m 576 431 l 513 643 l 506 643 l 436 431 l 576 431 m 288 1150 l 447 1150 l 528 992 l 610 1150 l 753 1150 l 661 896 l 396 896 l 288 1150 z "},"Â":{"ha":1042,"x_min":28,"x_max":1014,"o":"m 28 167 l 103 167 l 289 643 l 214 643 l 214 810 l 826 810 l 826 643 l 751 643 l 939 167 l 1014 167 l 1014 0 l 574 0 l 574 167 l 657 167 l 624 278 l 388 278 l 351 167 l 421 167 l 421 0 l 28 0 l 28 167 m 576 431 l 513 643 l 506 643 l 436 431 l 576 431 m 399 1147 l 646 1147 l 764 896 l 617 896 l 521 1050 l 425 896 l 278 896 l 399 1147 z "},"Ấ":{"ha":1042,"x_min":28,"x_max":1014,"o":"m 28 167 l 103 167 l 289 643 l 214 643 l 214 810 l 826 810 l 826 643 l 751 643 l 939 167 l 1014 167 l 1014 0 l 574 0 l 574 167 l 657 167 l 624 278 l 388 278 l 351 167 l 421 167 l 421 0 l 28 0 l 28 167 m 576 431 l 513 643 l 506 643 l 436 431 l 576 431 m 778 1225 l 943 1225 l 826 1026 l 718 1026 l 778 1225 m 413 1092 l 632 1092 l 750 896 l 603 896 l 521 994 l 439 896 l 292 896 l 413 1092 z "},"Ậ":{"ha":1042,"x_min":28,"x_max":1014,"o":"m 28 167 l 103 167 l 289 643 l 214 643 l 214 810 l 826 810 l 826 643 l 751 643 l 939 167 l 1014 167 l 1014 0 l 574 0 l 574 167 l 657 167 l 624 278 l 388 278 l 351 167 l 421 167 l 421 0 l 28 0 l 28 167 m 576 431 l 513 643 l 506 643 l 436 431 l 576 431 m 399 1147 l 646 1147 l 764 896 l 617 896 l 521 1050 l 425 896 l 278 896 l 399 1147 m 497 -296 q 411 -266 443 -296 q 379 -187 379 -236 q 411 -110 379 -139 q 497 -81 443 -81 q 583 -110 551 -81 q 615 -190 615 -140 q 583 -267 615 -237 q 497 -296 550 -296 z "},"Ầ":{"ha":1042,"x_min":28,"x_max":1014,"o":"m 28 167 l 103 167 l 289 643 l 214 643 l 214 810 l 826 810 l 826 643 l 751 643 l 939 167 l 1014 167 l 1014 0 l 574 0 l 574 167 l 657 167 l 624 278 l 388 278 l 351 167 l 421 167 l 421 0 l 28 0 l 28 167 m 576 431 l 513 643 l 506 643 l 436 431 l 576 431 m 765 1026 l 649 1225 l 814 1225 l 874 1026 l 765 1026 m 413 1092 l 632 1092 l 750 896 l 603 896 l 521 994 l 439 896 l 292 896 l 413 1092 z "},"Ẩ":{"ha":1042,"x_min":28,"x_max":1014,"o":"m 28 167 l 103 167 l 289 643 l 214 643 l 214 810 l 826 810 l 826 643 l 751 643 l 939 167 l 1014 167 l 1014 0 l 574 0 l 574 167 l 657 167 l 624 278 l 388 278 l 351 167 l 421 167 l 421 0 l 28 0 l 28 167 m 576 431 l 513 643 l 506 643 l 436 431 l 576 431 m 726 1063 q 760 1085 749 1074 q 771 1117 771 1097 q 755 1151 771 1139 q 711 1164 739 1164 q 625 1138 667 1164 l 601 1210 q 669 1250 631 1235 q 749 1265 707 1265 q 849 1233 811 1265 q 888 1144 888 1200 q 851 1053 888 1090 q 746 1001 814 1017 l 726 1063 m 413 1092 l 632 1092 l 750 896 l 603 896 l 521 994 l 439 896 l 292 896 l 413 1092 z "},"Ẫ":{"ha":1042,"x_min":28,"x_max":1014,"o":"m 28 167 l 103 167 l 289 643 l 214 643 l 214 810 l 826 810 l 826 643 l 751 643 l 939 167 l 1014 167 l 1014 0 l 574 0 l 574 167 l 657 167 l 624 278 l 388 278 l 351 167 l 421 167 l 421 0 l 28 0 l 28 167 m 576 431 l 513 643 l 506 643 l 436 431 l 576 431 m 631 1154 q 582 1162 604 1154 q 524 1186 560 1169 q 475 1207 493 1200 q 439 1214 457 1214 q 378 1154 383 1214 l 263 1154 q 311 1300 271 1254 q 413 1346 351 1346 q 461 1338 439 1346 q 517 1314 483 1331 q 565 1293 547 1300 q 603 1286 583 1286 q 664 1338 658 1286 l 779 1338 q 631 1154 764 1154 m 413 1092 l 632 1092 l 750 896 l 603 896 l 521 994 l 439 896 l 292 896 l 413 1092 z "},"Ȁ":{"ha":1042,"x_min":28,"x_max":1014,"o":"m 28 167 l 103 167 l 289 643 l 214 643 l 214 810 l 826 810 l 826 643 l 751 643 l 939 167 l 1014 167 l 1014 0 l 574 0 l 574 167 l 657 167 l 624 278 l 388 278 l 351 167 l 421 167 l 421 0 l 28 0 l 28 167 m 576 431 l 513 643 l 506 643 l 436 431 l 576 431 m 164 1142 l 382 1142 l 439 888 l 303 888 l 164 1142 m 463 1142 l 681 1142 l 738 888 l 600 888 l 463 1142 z "},"Ä":{"ha":1042,"x_min":28,"x_max":1014,"o":"m 28 167 l 103 167 l 289 643 l 214 643 l 214 810 l 826 810 l 826 643 l 751 643 l 939 167 l 1014 167 l 1014 0 l 574 0 l 574 167 l 657 167 l 624 278 l 388 278 l 351 167 l 421 167 l 421 0 l 28 0 l 28 167 m 576 431 l 513 643 l 506 643 l 436 431 l 576 431 m 336 924 q 247 956 283 924 q 210 1044 210 988 q 247 1133 210 1101 q 336 1165 283 1165 q 426 1133 389 1165 q 463 1044 463 1101 q 426 956 463 988 q 336 924 389 924 m 706 924 q 616 956 653 924 q 579 1044 579 988 q 616 1133 579 1101 q 706 1165 653 1165 q 795 1133 758 1165 q 832 1044 832 1101 q 795 956 832 988 q 706 924 758 924 z "},"Ȧ":{"ha":1042,"x_min":28,"x_max":1014,"o":"m 28 167 l 103 167 l 289 643 l 214 643 l 214 810 l 826 810 l 826 643 l 751 643 l 939 167 l 1014 167 l 1014 0 l 574 0 l 574 167 l 657 167 l 624 278 l 388 278 l 351 167 l 421 167 l 421 0 l 28 0 l 28 167 m 576 431 l 513 643 l 506 643 l 436 431 l 576 431 m 521 924 q 425 958 461 924 q 389 1051 389 993 q 425 1143 389 1108 q 521 1178 461 1178 q 617 1142 582 1178 q 653 1049 653 1107 q 616 958 653 992 q 521 924 579 924 z "},"Ạ":{"ha":1042,"x_min":28,"x_max":1014,"o":"m 28 167 l 103 167 l 289 643 l 214 643 l 214 810 l 826 810 l 826 643 l 751 643 l 939 167 l 1014 167 l 1014 0 l 574 0 l 574 167 l 657 167 l 624 278 l 388 278 l 351 167 l 421 167 l 421 0 l 28 0 l 28 167 m 576 431 l 513 643 l 506 643 l 436 431 l 576 431 m 497 -296 q 411 -266 443 -296 q 379 -187 379 -236 q 411 -110 379 -139 q 497 -81 443 -81 q 583 -110 551 -81 q 615 -190 615 -140 q 583 -267 615 -237 q 497 -296 550 -296 z "},"À":{"ha":1042,"x_min":28,"x_max":1014,"o":"m 28 167 l 103 167 l 289 643 l 214 643 l 214 810 l 826 810 l 826 643 l 751 643 l 939 167 l 1014 167 l 1014 0 l 574 0 l 574 167 l 657 167 l 624 278 l 388 278 l 351 167 l 421 167 l 421 0 l 28 0 l 28 167 m 576 431 l 513 643 l 506 643 l 436 431 l 576 431 m 311 1142 l 529 1142 l 585 888 l 449 888 l 311 1142 z "},"Ả":{"ha":1042,"x_min":28,"x_max":1014,"o":"m 28 167 l 103 167 l 289 643 l 214 643 l 214 810 l 826 810 l 826 643 l 751 643 l 939 167 l 1014 167 l 1014 0 l 574 0 l 574 167 l 657 167 l 624 278 l 388 278 l 351 167 l 421 167 l 421 0 l 28 0 l 28 167 m 576 431 l 513 643 l 506 643 l 436 431 l 576 431 m 490 932 q 524 955 513 943 q 535 986 535 967 q 519 1021 535 1008 q 475 1033 503 1033 q 389 1007 431 1033 l 365 1079 q 433 1119 394 1104 q 513 1135 471 1135 q 613 1102 575 1135 q 651 1014 651 1069 q 615 923 651 960 q 510 871 578 886 l 490 932 z "},"Ȃ":{"ha":1042,"x_min":28,"x_max":1014,"o":"m 28 167 l 103 167 l 289 643 l 214 643 l 214 810 l 826 810 l 826 643 l 751 643 l 939 167 l 1014 167 l 1014 0 l 574 0 l 574 167 l 657 167 l 624 278 l 388 278 l 351 167 l 421 167 l 421 0 l 28 0 l 28 167 m 576 431 l 513 643 l 506 643 l 436 431 l 576 431 m 288 869 q 352 1046 292 986 q 521 1106 413 1106 q 690 1046 629 1106 q 754 869 750 986 l 615 869 q 521 961 603 961 q 456 938 481 961 q 426 869 432 914 l 288 869 z "},"Ā":{"ha":1042,"x_min":28,"x_max":1014,"o":"m 28 167 l 103 167 l 289 643 l 214 643 l 214 810 l 826 810 l 826 643 l 751 643 l 939 167 l 1014 167 l 1014 0 l 574 0 l 574 167 l 657 167 l 624 278 l 388 278 l 351 167 l 421 167 l 421 0 l 28 0 l 28 167 m 576 431 l 513 643 l 506 643 l 436 431 l 576 431 m 326 1026 l 715 1026 l 715 899 l 326 899 l 326 1026 z "},"Ą":{"ha":1042,"x_min":28,"x_max":1014,"o":"m 28 167 l 103 167 l 289 643 l 214 643 l 214 810 l 826 810 l 826 643 l 751 643 l 939 167 l 1014 167 l 1014 0 l 574 0 l 574 167 l 657 167 l 624 278 l 388 278 l 351 167 l 421 167 l 421 0 l 28 0 l 28 167 m 576 431 l 513 643 l 506 643 l 436 431 l 576 431 m 846 -281 q 749 -247 783 -281 q 714 -162 714 -214 q 813 0 714 -79 l 889 0 q 844 -61 858 -36 q 831 -111 831 -86 q 851 -152 831 -136 q 906 -168 871 -168 q 963 -160 933 -168 l 963 -256 q 846 -281 900 -281 z "},"Å":{"ha":1042,"x_min":28,"x_max":1014,"o":"m 28 167 l 103 167 l 289 643 l 214 643 l 214 810 l 826 810 l 826 643 l 751 643 l 939 167 l 1014 167 l 1014 0 l 574 0 l 574 167 l 657 167 l 624 278 l 388 278 l 351 167 l 421 167 l 421 0 l 28 0 l 28 167 m 576 431 l 513 643 l 506 643 l 436 431 l 576 431 m 525 894 q 421 929 458 894 q 383 1026 383 964 q 419 1125 383 1090 q 521 1160 456 1160 q 622 1124 585 1160 q 658 1026 658 1089 q 623 930 658 965 q 525 894 588 894 m 521 964 q 566 980 550 964 q 582 1026 582 996 q 566 1074 582 1057 q 521 1090 550 1090 q 476 1074 492 1090 q 460 1026 460 1057 q 476 980 460 996 q 521 964 492 964 z "},"Ǻ":{"ha":1042,"x_min":28,"x_max":1014,"o":"m 28 167 l 103 167 l 289 643 l 214 643 l 214 810 l 826 810 l 826 643 l 751 643 l 939 167 l 1014 167 l 1014 0 l 574 0 l 574 167 l 657 167 l 624 278 l 388 278 l 351 167 l 421 167 l 421 0 l 28 0 l 28 167 m 576 431 l 513 643 l 506 643 l 436 431 l 576 431 m 525 894 q 421 929 458 894 q 383 1026 383 964 q 419 1125 383 1090 q 521 1160 456 1160 q 622 1124 585 1160 q 658 1026 658 1089 q 623 930 658 965 q 525 894 588 894 m 521 964 q 566 980 550 964 q 582 1026 582 996 q 566 1074 582 1057 q 521 1090 550 1090 q 476 1074 492 1090 q 460 1026 460 1057 q 476 980 460 996 q 521 964 492 964 m 508 1471 l 726 1471 l 589 1217 l 453 1217 l 508 1471 z "},"Ã":{"ha":1042,"x_min":28,"x_max":1014,"o":"m 28 167 l 103 167 l 289 643 l 214 643 l 214 810 l 826 810 l 826 643 l 751 643 l 939 167 l 1014 167 l 1014 0 l 574 0 l 574 167 l 657 167 l 624 278 l 388 278 l 351 167 l 421 167 l 421 0 l 28 0 l 28 167 m 576 431 l 513 643 l 506 643 l 436 431 l 576 431 m 625 904 q 562 915 593 904 q 492 944 531 925 q 411 972 436 972 q 350 913 356 972 l 235 913 q 293 1085 243 1031 q 417 1140 343 1140 q 478 1130 449 1140 q 549 1100 508 1119 q 631 1072 607 1072 q 692 1132 686 1072 l 807 1132 q 749 959 799 1014 q 625 904 699 904 z "},"Æ":{"ha":1378,"x_min":14,"x_max":1331,"o":"m 14 167 l 89 167 l 343 643 l 268 643 l 268 810 l 1274 810 l 1296 517 l 1128 517 l 1115 643 l 844 643 l 853 489 l 942 489 l 935 565 l 1074 565 l 1099 260 l 961 260 l 954 336 l 863 336 l 872 168 l 1153 168 l 1142 311 l 1310 311 l 1331 0 l 525 0 l 525 167 l 594 167 l 588 278 l 389 278 l 338 167 l 407 167 l 407 0 l 14 0 l 14 167 m 579 431 l 567 643 l 560 643 l 461 431 l 579 431 z "},"Ǽ":{"ha":1378,"x_min":14,"x_max":1331,"o":"m 14 167 l 89 167 l 343 643 l 268 643 l 268 810 l 1274 810 l 1296 517 l 1128 517 l 1115 643 l 844 643 l 853 489 l 942 489 l 935 565 l 1074 565 l 1099 260 l 961 260 l 954 336 l 863 336 l 872 168 l 1153 168 l 1142 311 l 1310 311 l 1331 0 l 525 0 l 525 167 l 594 167 l 588 278 l 389 278 l 338 167 l 407 167 l 407 0 l 14 0 l 14 167 m 579 431 l 567 643 l 560 643 l 461 431 l 579 431 m 729 1142 l 947 1142 l 810 888 l 674 888 l 729 1142 z "},"Ǣ":{"ha":1378,"x_min":14,"x_max":1331,"o":"m 14 167 l 89 167 l 343 643 l 268 643 l 268 810 l 1274 810 l 1296 517 l 1128 517 l 1115 643 l 844 643 l 853 489 l 942 489 l 935 565 l 1074 565 l 1099 260 l 961 260 l 954 336 l 863 336 l 872 168 l 1153 168 l 1142 311 l 1310 311 l 1331 0 l 525 0 l 525 167 l 594 167 l 588 278 l 389 278 l 338 167 l 407 167 l 407 0 l 14 0 l 14 167 m 579 431 l 567 643 l 560 643 l 461 431 l 579 431 m 547 1026 l 936 1026 l 936 899 l 547 899 l 547 1026 z "},"B":{"ha":950,"x_min":69,"x_max":908,"o":"m 69 167 l 139 167 l 139 643 l 69 643 l 69 810 l 561 810 q 791 757 717 810 q 865 614 865 704 q 826 502 865 542 q 699 446 788 463 q 908 231 908 414 q 821 56 908 113 q 561 0 733 0 l 69 0 l 69 167 m 496 506 q 583 575 583 506 q 496 643 583 643 l 417 643 l 417 506 l 496 506 m 504 168 q 619 261 619 168 q 592 330 619 307 q 504 353 564 353 l 417 353 l 417 168 l 504 168 z "},"Ḃ":{"ha":950,"x_min":69,"x_max":908,"o":"m 69 167 l 139 167 l 139 643 l 69 643 l 69 810 l 561 810 q 791 757 717 810 q 865 614 865 704 q 826 502 865 542 q 699 446 788 463 q 908 231 908 414 q 821 56 908 113 q 561 0 733 0 l 69 0 l 69 167 m 496 506 q 583 575 583 506 q 496 643 583 643 l 417 643 l 417 506 l 496 506 m 504 168 q 619 261 619 168 q 592 330 619 307 q 504 353 564 353 l 417 353 l 417 168 l 504 168 m 483 924 q 388 958 424 924 q 351 1051 351 993 q 388 1143 351 1108 q 483 1178 424 1178 q 580 1142 544 1178 q 615 1049 615 1107 q 578 958 615 992 q 483 924 542 924 z "},"C":{"ha":1018,"x_min":44,"x_max":949,"o":"m 949 286 q 878 132 933 200 q 731 25 824 64 q 517 -14 639 -14 q 274 36 382 -14 q 106 180 167 86 q 44 403 44 274 q 101 627 44 532 q 258 773 158 722 q 481 824 357 824 q 634 799 567 824 q 744 729 701 775 l 744 810 l 925 810 l 925 507 l 772 507 q 685 602 738 569 q 558 635 633 635 q 393 574 453 635 q 333 407 333 513 q 388 238 333 301 q 533 175 442 175 q 663 222 615 175 q 728 358 711 268 l 949 286 z "},"Ć":{"ha":1018,"x_min":44,"x_max":949,"o":"m 949 286 q 878 132 933 200 q 731 25 824 64 q 517 -14 639 -14 q 274 36 382 -14 q 106 180 167 86 q 44 403 44 274 q 101 627 44 532 q 258 773 158 722 q 481 824 357 824 q 634 799 567 824 q 744 729 701 775 l 744 810 l 925 810 l 925 507 l 772 507 q 685 602 738 569 q 558 635 633 635 q 393 574 453 635 q 333 407 333 513 q 388 238 333 301 q 533 175 442 175 q 663 222 615 175 q 728 358 711 268 l 949 286 m 506 1142 l 724 1142 l 586 888 l 450 888 l 506 1142 z "},"Č":{"ha":1018,"x_min":44,"x_max":949,"o":"m 949 286 q 878 132 933 200 q 731 25 824 64 q 517 -14 639 -14 q 274 36 382 -14 q 106 180 167 86 q 44 403 44 274 q 101 627 44 532 q 258 773 158 722 q 481 824 357 824 q 634 799 567 824 q 744 729 701 775 l 744 810 l 925 810 l 925 507 l 772 507 q 685 602 738 569 q 558 635 633 635 q 393 574 453 635 q 333 407 333 513 q 388 238 333 301 q 533 175 442 175 q 663 222 615 175 q 728 358 711 268 l 949 286 m 285 1150 l 444 1150 l 525 992 l 607 1150 l 750 1150 l 658 896 l 393 896 l 285 1150 z "},"Ç":{"ha":1018,"x_min":44,"x_max":949,"o":"m 949 286 q 824 78 926 160 q 554 -12 721 -4 l 536 -78 q 613 -117 586 -86 q 640 -186 640 -147 q 600 -268 640 -240 q 501 -296 560 -296 q 435 -286 468 -296 q 378 -258 403 -276 l 378 -199 q 456 -219 422 -219 q 504 -174 504 -219 q 485 -140 504 -151 q 422 -126 465 -129 l 468 -12 q 249 49 346 -3 q 99 192 153 101 q 44 403 44 282 q 101 627 44 532 q 258 773 158 722 q 481 824 357 824 q 634 799 567 824 q 744 729 701 775 l 744 810 l 925 810 l 925 507 l 772 507 q 685 602 738 569 q 558 635 633 635 q 393 574 453 635 q 333 407 333 513 q 388 238 333 301 q 533 175 442 175 q 663 222 615 175 q 728 358 711 268 l 949 286 z "},"Ḉ":{"ha":1018,"x_min":44,"x_max":949,"o":"m 586 888 l 450 888 l 506 1142 l 724 1142 l 586 888 m 949 286 q 824 78 926 160 q 554 -12 721 -4 l 536 -78 q 613 -117 586 -86 q 640 -186 640 -147 q 600 -268 640 -240 q 501 -296 560 -296 q 435 -286 468 -296 q 378 -258 403 -276 l 378 -199 q 456 -219 422 -219 q 504 -174 504 -219 q 485 -140 504 -151 q 422 -126 465 -129 l 468 -12 q 249 49 346 -3 q 99 192 153 101 q 44 403 44 282 q 101 627 44 532 q 258 773 158 722 q 481 824 357 824 q 634 799 567 824 q 744 729 701 775 l 744 810 l 925 810 l 925 507 l 772 507 q 685 602 738 569 q 558 635 633 635 q 393 574 453 635 q 333 407 333 513 q 388 238 333 301 q 533 175 442 175 q 663 222 615 175 q 728 358 711 268 l 949 286 z "},"Ĉ":{"ha":1018,"x_min":44,"x_max":949,"o":"m 949 286 q 878 132 933 200 q 731 25 824 64 q 517 -14 639 -14 q 274 36 382 -14 q 106 180 167 86 q 44 403 44 274 q 101 627 44 532 q 258 773 158 722 q 481 824 357 824 q 634 799 567 824 q 744 729 701 775 l 744 810 l 925 810 l 925 507 l 772 507 q 685 602 738 569 q 558 635 633 635 q 393 574 453 635 q 333 407 333 513 q 388 238 333 301 q 533 175 442 175 q 663 222 615 175 q 728 358 711 268 l 949 286 m 396 1147 l 643 1147 l 761 896 l 614 896 l 518 1050 l 422 896 l 275 896 l 396 1147 z "},"Ċ":{"ha":1018,"x_min":44,"x_max":949,"o":"m 949 286 q 878 132 933 200 q 731 25 824 64 q 517 -14 639 -14 q 274 36 382 -14 q 106 180 167 86 q 44 403 44 274 q 101 627 44 532 q 258 773 158 722 q 481 824 357 824 q 634 799 567 824 q 744 729 701 775 l 744 810 l 925 810 l 925 507 l 772 507 q 685 602 738 569 q 558 635 633 635 q 393 574 453 635 q 333 407 333 513 q 388 238 333 301 q 533 175 442 175 q 663 222 615 175 q 728 358 711 268 l 949 286 m 518 924 q 422 958 458 924 q 386 1051 386 993 q 422 1143 386 1108 q 518 1178 458 1178 q 615 1142 579 1178 q 650 1049 650 1107 q 613 958 650 992 q 518 924 576 924 z "},"D":{"ha":1040,"x_min":69,"x_max":996,"o":"m 69 167 l 139 167 l 139 643 l 69 643 l 69 810 l 564 810 q 801 758 704 810 q 947 615 899 707 q 996 407 996 524 q 885 109 996 218 q 564 0 775 0 l 69 0 l 69 167 m 511 167 q 660 226 614 167 q 707 407 707 286 q 660 584 707 525 q 511 643 614 643 l 417 643 l 417 167 l 511 167 z "},"Ǳ":{"ha":1871,"x_min":69,"x_max":1826,"o":"m 69 167 l 139 167 l 139 643 l 69 643 l 69 810 l 564 810 q 801 758 704 810 q 947 615 899 707 q 996 407 996 524 q 885 109 996 218 q 564 0 775 0 l 69 0 l 69 167 m 511 167 q 660 226 614 167 q 707 407 707 286 q 660 584 707 525 q 511 643 614 643 l 417 643 l 417 167 l 511 167 m 1085 125 l 1433 649 l 1267 649 l 1267 504 l 1092 504 l 1092 810 l 1813 810 l 1813 685 l 1464 161 l 1646 161 l 1646 324 l 1826 324 l 1826 0 l 1085 0 l 1085 125 z "},"Ǆ":{"ha":1871,"x_min":69,"x_max":1826,"o":"m 69 167 l 139 167 l 139 643 l 69 643 l 69 810 l 564 810 q 801 758 704 810 q 947 615 899 707 q 996 407 996 524 q 885 109 996 218 q 564 0 775 0 l 69 0 l 69 167 m 511 167 q 660 226 614 167 q 707 407 707 286 q 660 584 707 525 q 511 643 614 643 l 417 643 l 417 167 l 511 167 m 1085 125 l 1433 649 l 1267 649 l 1267 504 l 1092 504 l 1092 810 l 1813 810 l 1813 685 l 1464 161 l 1646 161 l 1646 324 l 1826 324 l 1826 0 l 1085 0 l 1085 125 m 1233 1150 l 1393 1150 l 1474 992 l 1556 1150 l 1699 1150 l 1607 896 l 1342 896 l 1233 1150 z "},"Ð":{"ha":1072,"x_min":69,"x_max":996,"o":"m 564 810 q 801 758 704 810 q 947 615 899 707 q 996 407 996 524 q 885 109 996 218 q 564 0 775 0 l 69 0 l 69 167 l 139 167 l 139 336 l 69 336 l 69 479 l 139 479 l 139 643 l 69 643 l 69 810 l 564 810 m 511 167 q 660 226 614 167 q 707 407 707 286 q 660 584 707 525 q 511 643 614 643 l 417 643 l 417 479 l 481 479 l 481 336 l 417 336 l 417 167 l 511 167 z "},"Ď":{"ha":1040,"x_min":69,"x_max":996,"o":"m 69 167 l 139 167 l 139 643 l 69 643 l 69 810 l 564 810 q 801 758 704 810 q 947 615 899 707 q 996 407 996 524 q 885 109 996 218 q 564 0 775 0 l 69 0 l 69 167 m 511 167 q 660 226 614 167 q 707 407 707 286 q 660 584 707 525 q 511 643 614 643 l 417 643 l 417 167 l 511 167 m 299 1150 l 458 1150 l 539 992 l 621 1150 l 764 1150 l 672 896 l 407 896 l 299 1150 z "},"Đ":{"ha":1072,"x_min":69,"x_max":996,"o":"m 564 810 q 801 758 704 810 q 947 615 899 707 q 996 407 996 524 q 885 109 996 218 q 564 0 775 0 l 69 0 l 69 167 l 139 167 l 139 336 l 69 336 l 69 479 l 139 479 l 139 643 l 69 643 l 69 810 l 564 810 m 511 167 q 660 226 614 167 q 707 407 707 286 q 660 584 707 525 q 511 643 614 643 l 417 643 l 417 479 l 481 479 l 481 336 l 417 336 l 417 167 l 511 167 z "},"Ḋ":{"ha":1040,"x_min":69,"x_max":996,"o":"m 69 167 l 139 167 l 139 643 l 69 643 l 69 810 l 564 810 q 801 758 704 810 q 947 615 899 707 q 996 407 996 524 q 885 109 996 218 q 564 0 775 0 l 69 0 l 69 167 m 511 167 q 660 226 614 167 q 707 407 707 286 q 660 584 707 525 q 511 643 614 643 l 417 643 l 417 167 l 511 167 m 532 924 q 436 958 472 924 q 400 1051 400 993 q 436 1143 400 1108 q 532 1178 472 1178 q 628 1142 593 1178 q 664 1049 664 1107 q 627 958 664 992 q 532 924 590 924 z "},"Ḍ":{"ha":1040,"x_min":69,"x_max":996,"o":"m 69 167 l 139 167 l 139 643 l 69 643 l 69 810 l 564 810 q 801 758 704 810 q 947 615 899 707 q 996 407 996 524 q 885 109 996 218 q 564 0 775 0 l 69 0 l 69 167 m 511 167 q 660 226 614 167 q 707 407 707 286 q 660 584 707 525 q 511 643 614 643 l 417 643 l 417 167 l 511 167 m 521 -296 q 435 -266 467 -296 q 403 -187 403 -236 q 435 -110 403 -139 q 521 -81 467 -81 q 607 -110 575 -81 q 639 -190 639 -140 q 606 -267 639 -237 q 521 -296 574 -296 z "},"Ḏ":{"ha":1040,"x_min":69,"x_max":996,"o":"m 69 167 l 139 167 l 139 643 l 69 643 l 69 810 l 564 810 q 801 758 704 810 q 947 615 899 707 q 996 407 996 524 q 885 109 996 218 q 564 0 775 0 l 69 0 l 69 167 m 511 167 q 660 226 614 167 q 707 407 707 286 q 660 584 707 525 q 511 643 614 643 l 417 643 l 417 167 l 511 167 m 326 -122 l 715 -122 l 715 -250 l 326 -250 l 326 -122 z "},"ǲ":{"ha":1681,"x_min":69,"x_max":1647,"o":"m 69 167 l 139 167 l 139 643 l 69 643 l 69 810 l 564 810 q 801 758 704 810 q 947 615 899 707 q 996 407 996 524 q 885 109 996 218 q 564 0 775 0 l 69 0 l 69 167 m 511 167 q 660 226 614 167 q 707 407 707 286 q 660 584 707 525 q 511 643 614 643 l 417 643 l 417 167 l 511 167 m 1074 111 l 1354 428 l 1213 428 l 1213 328 l 1074 328 l 1074 560 l 1635 560 l 1635 449 l 1349 129 l 1508 129 l 1508 246 l 1647 246 l 1647 0 l 1074 0 l 1074 111 z "},"ǅ":{"ha":1681,"x_min":69,"x_max":1647,"o":"m 69 167 l 139 167 l 139 643 l 69 643 l 69 810 l 564 810 q 801 758 704 810 q 947 615 899 707 q 996 407 996 524 q 885 109 996 218 q 564 0 775 0 l 69 0 l 69 167 m 511 167 q 660 226 614 167 q 707 407 707 286 q 660 584 707 525 q 511 643 614 643 l 417 643 l 417 167 l 511 167 m 1074 111 l 1354 428 l 1213 428 l 1213 328 l 1074 328 l 1074 560 l 1635 560 l 1635 449 l 1349 129 l 1508 129 l 1508 246 l 1647 246 l 1647 0 l 1074 0 l 1074 111 m 1135 900 l 1294 900 l 1375 742 l 1457 900 l 1600 900 l 1508 646 l 1243 646 l 1135 900 z "},"E":{"ha":938,"x_min":69,"x_max":863,"o":"m 69 167 l 139 167 l 139 643 l 69 643 l 69 810 l 857 810 l 857 517 l 690 517 l 690 643 l 418 643 l 418 489 l 500 489 l 500 565 l 639 565 l 639 260 l 501 260 l 501 336 l 418 336 l 418 168 l 696 168 l 696 311 l 863 311 l 863 0 l 69 0 l 69 167 z "},"É":{"ha":938,"x_min":69,"x_max":863,"o":"m 69 167 l 139 167 l 139 643 l 69 643 l 69 810 l 857 810 l 857 517 l 690 517 l 690 643 l 418 643 l 418 489 l 500 489 l 500 565 l 639 565 l 639 260 l 501 260 l 501 336 l 418 336 l 418 168 l 696 168 l 696 311 l 863 311 l 863 0 l 69 0 l 69 167 m 482 1142 l 700 1142 l 563 888 l 426 888 l 482 1142 z "},"Ĕ":{"ha":938,"x_min":69,"x_max":863,"o":"m 69 167 l 139 167 l 139 643 l 69 643 l 69 810 l 857 810 l 857 517 l 690 517 l 690 643 l 418 643 l 418 489 l 500 489 l 500 565 l 639 565 l 639 260 l 501 260 l 501 336 l 418 336 l 418 168 l 696 168 l 696 311 l 863 311 l 863 0 l 69 0 l 69 167 m 494 911 q 247 1129 258 911 l 406 1129 q 434 1062 411 1085 q 494 1039 457 1039 q 583 1129 576 1039 l 742 1129 q 494 911 722 911 z "},"Ě":{"ha":938,"x_min":69,"x_max":863,"o":"m 69 167 l 139 167 l 139 643 l 69 643 l 69 810 l 857 810 l 857 517 l 690 517 l 690 643 l 418 643 l 418 489 l 500 489 l 500 565 l 639 565 l 639 260 l 501 260 l 501 336 l 418 336 l 418 168 l 696 168 l 696 311 l 863 311 l 863 0 l 69 0 l 69 167 m 261 1150 l 421 1150 l 501 992 l 583 1150 l 726 1150 l 635 896 l 369 896 l 261 1150 z "},"Ȩ":{"ha":938,"x_min":69,"x_max":863,"o":"m 69 167 l 139 167 l 139 643 l 69 643 l 69 810 l 857 810 l 857 517 l 690 517 l 690 643 l 418 643 l 418 489 l 500 489 l 500 565 l 639 565 l 639 260 l 501 260 l 501 336 l 418 336 l 418 168 l 696 168 l 696 311 l 863 311 l 863 0 l 69 0 l 69 167 m 454 -296 q 388 -286 421 -296 q 331 -258 356 -276 l 331 -199 q 408 -219 375 -219 q 457 -174 457 -219 q 438 -140 457 -151 q 375 -126 418 -129 l 426 0 l 510 0 l 489 -78 q 566 -117 539 -86 q 593 -186 593 -147 q 553 -268 593 -240 q 454 -296 513 -296 z "},"Ḝ":{"ha":938,"x_min":69,"x_max":863,"o":"m 69 167 l 139 167 l 139 643 l 69 643 l 69 810 l 857 810 l 857 517 l 690 517 l 690 643 l 418 643 l 418 489 l 500 489 l 500 565 l 639 565 l 639 260 l 501 260 l 501 336 l 418 336 l 418 168 l 696 168 l 696 311 l 863 311 l 863 0 l 69 0 l 69 167 m 454 -296 q 388 -286 421 -296 q 331 -258 356 -276 l 331 -199 q 408 -219 375 -219 q 457 -174 457 -219 q 438 -140 457 -151 q 375 -126 418 -129 l 426 0 l 510 0 l 489 -78 q 566 -117 539 -86 q 593 -186 593 -147 q 553 -268 593 -240 q 454 -296 513 -296 m 494 911 q 247 1129 258 911 l 406 1129 q 434 1062 411 1085 q 494 1039 457 1039 q 583 1129 576 1039 l 742 1129 q 494 911 722 911 z "},"Ê":{"ha":938,"x_min":69,"x_max":863,"o":"m 69 167 l 139 167 l 139 643 l 69 643 l 69 810 l 857 810 l 857 517 l 690 517 l 690 643 l 418 643 l 418 489 l 500 489 l 500 565 l 639 565 l 639 260 l 501 260 l 501 336 l 418 336 l 418 168 l 696 168 l 696 311 l 863 311 l 863 0 l 69 0 l 69 167 m 372 1147 l 619 1147 l 738 896 l 590 896 l 494 1050 l 399 896 l 251 896 l 372 1147 z "},"Ế":{"ha":938,"x_min":69,"x_max":917,"o":"m 69 167 l 139 167 l 139 643 l 69 643 l 69 810 l 857 810 l 857 517 l 690 517 l 690 643 l 418 643 l 418 489 l 500 489 l 500 565 l 639 565 l 639 260 l 501 260 l 501 336 l 418 336 l 418 168 l 696 168 l 696 311 l 863 311 l 863 0 l 69 0 l 69 167 m 751 1225 l 917 1225 l 800 1026 l 692 1026 l 751 1225 m 386 1092 l 606 1092 l 724 896 l 576 896 l 494 994 l 413 896 l 265 896 l 386 1092 z "},"Ệ":{"ha":938,"x_min":69,"x_max":863,"o":"m 69 167 l 139 167 l 139 643 l 69 643 l 69 810 l 857 810 l 857 517 l 690 517 l 690 643 l 418 643 l 418 489 l 500 489 l 500 565 l 639 565 l 639 260 l 501 260 l 501 336 l 418 336 l 418 168 l 696 168 l 696 311 l 863 311 l 863 0 l 69 0 l 69 167 m 372 1147 l 619 1147 l 738 896 l 590 896 l 494 1050 l 399 896 l 251 896 l 372 1147 m 467 -296 q 381 -266 413 -296 q 349 -187 349 -236 q 381 -110 349 -139 q 467 -81 413 -81 q 553 -110 521 -81 q 585 -190 585 -140 q 552 -267 585 -237 q 467 -296 519 -296 z "},"Ề":{"ha":938,"x_min":69,"x_max":863,"o":"m 69 167 l 139 167 l 139 643 l 69 643 l 69 810 l 857 810 l 857 517 l 690 517 l 690 643 l 418 643 l 418 489 l 500 489 l 500 565 l 639 565 l 639 260 l 501 260 l 501 336 l 418 336 l 418 168 l 696 168 l 696 311 l 863 311 l 863 0 l 69 0 l 69 167 m 739 1026 l 622 1225 l 788 1225 l 847 1026 l 739 1026 m 386 1092 l 606 1092 l 724 896 l 576 896 l 494 994 l 413 896 l 265 896 l 386 1092 z "},"Ể":{"ha":938,"x_min":69,"x_max":863,"o":"m 69 167 l 139 167 l 139 643 l 69 643 l 69 810 l 857 810 l 857 517 l 690 517 l 690 643 l 418 643 l 418 489 l 500 489 l 500 565 l 639 565 l 639 260 l 501 260 l 501 336 l 418 336 l 418 168 l 696 168 l 696 311 l 863 311 l 863 0 l 69 0 l 69 167 m 700 1063 q 733 1085 722 1074 q 744 1117 744 1097 q 728 1151 744 1139 q 685 1164 713 1164 q 599 1138 640 1164 l 575 1210 q 642 1250 604 1235 q 722 1265 681 1265 q 823 1233 785 1265 q 861 1144 861 1200 q 824 1053 861 1090 q 719 1001 788 1017 l 700 1063 m 386 1092 l 606 1092 l 724 896 l 576 896 l 494 994 l 413 896 l 265 896 l 386 1092 z "},"Ễ":{"ha":938,"x_min":69,"x_max":863,"o":"m 69 167 l 139 167 l 139 643 l 69 643 l 69 810 l 857 810 l 857 517 l 690 517 l 690 643 l 418 643 l 418 489 l 500 489 l 500 565 l 639 565 l 639 260 l 501 260 l 501 336 l 418 336 l 418 168 l 696 168 l 696 311 l 863 311 l 863 0 l 69 0 l 69 167 m 604 1154 q 556 1162 578 1154 q 497 1186 533 1169 q 449 1207 467 1200 q 413 1214 431 1214 q 351 1154 357 1214 l 236 1154 q 285 1300 244 1254 q 386 1346 325 1346 q 435 1338 413 1346 q 490 1314 457 1331 q 539 1293 521 1300 q 576 1286 557 1286 q 638 1338 632 1286 l 753 1338 q 604 1154 738 1154 m 386 1092 l 606 1092 l 724 896 l 576 896 l 494 994 l 413 896 l 265 896 l 386 1092 z "},"Ȅ":{"ha":938,"x_min":69,"x_max":863,"o":"m 69 167 l 139 167 l 139 643 l 69 643 l 69 810 l 857 810 l 857 517 l 690 517 l 690 643 l 418 643 l 418 489 l 500 489 l 500 565 l 639 565 l 639 260 l 501 260 l 501 336 l 418 336 l 418 168 l 696 168 l 696 311 l 863 311 l 863 0 l 69 0 l 69 167 m 138 1142 l 356 1142 l 413 888 l 276 888 l 138 1142 m 436 1142 l 654 1142 l 711 888 l 574 888 l 436 1142 z "},"Ë":{"ha":938,"x_min":69,"x_max":863,"o":"m 69 167 l 139 167 l 139 643 l 69 643 l 69 810 l 857 810 l 857 517 l 690 517 l 690 643 l 418 643 l 418 489 l 500 489 l 500 565 l 639 565 l 639 260 l 501 260 l 501 336 l 418 336 l 418 168 l 696 168 l 696 311 l 863 311 l 863 0 l 69 0 l 69 167 m 310 924 q 220 956 257 924 q 183 1044 183 988 q 220 1133 183 1101 q 310 1165 257 1165 q 399 1133 363 1165 q 436 1044 436 1101 q 399 956 436 988 q 310 924 363 924 m 679 924 q 590 956 626 924 q 553 1044 553 988 q 590 1133 553 1101 q 679 1165 626 1165 q 769 1133 732 1165 q 806 1044 806 1101 q 769 956 806 988 q 679 924 732 924 z "},"Ė":{"ha":938,"x_min":69,"x_max":863,"o":"m 69 167 l 139 167 l 139 643 l 69 643 l 69 810 l 857 810 l 857 517 l 690 517 l 690 643 l 418 643 l 418 489 l 500 489 l 500 565 l 639 565 l 639 260 l 501 260 l 501 336 l 418 336 l 418 168 l 696 168 l 696 311 l 863 311 l 863 0 l 69 0 l 69 167 m 494 924 q 399 958 435 924 q 363 1051 363 993 q 399 1143 363 1108 q 494 1178 435 1178 q 591 1142 556 1178 q 626 1049 626 1107 q 590 958 626 992 q 494 924 553 924 z "},"Ẹ":{"ha":938,"x_min":69,"x_max":863,"o":"m 69 167 l 139 167 l 139 643 l 69 643 l 69 810 l 857 810 l 857 517 l 690 517 l 690 643 l 418 643 l 418 489 l 500 489 l 500 565 l 639 565 l 639 260 l 501 260 l 501 336 l 418 336 l 418 168 l 696 168 l 696 311 l 863 311 l 863 0 l 69 0 l 69 167 m 467 -296 q 381 -266 413 -296 q 349 -187 349 -236 q 381 -110 349 -139 q 467 -81 413 -81 q 553 -110 521 -81 q 585 -190 585 -140 q 552 -267 585 -237 q 467 -296 519 -296 z "},"È":{"ha":938,"x_min":69,"x_max":863,"o":"m 69 167 l 139 167 l 139 643 l 69 643 l 69 810 l 857 810 l 857 517 l 690 517 l 690 643 l 418 643 l 418 489 l 500 489 l 500 565 l 639 565 l 639 260 l 501 260 l 501 336 l 418 336 l 418 168 l 696 168 l 696 311 l 863 311 l 863 0 l 69 0 l 69 167 m 285 1142 l 503 1142 l 558 888 l 422 888 l 285 1142 z "},"Ẻ":{"ha":938,"x_min":69,"x_max":863,"o":"m 69 167 l 139 167 l 139 643 l 69 643 l 69 810 l 857 810 l 857 517 l 690 517 l 690 643 l 418 643 l 418 489 l 500 489 l 500 565 l 639 565 l 639 260 l 501 260 l 501 336 l 418 336 l 418 168 l 696 168 l 696 311 l 863 311 l 863 0 l 69 0 l 69 167 m 464 932 q 497 955 486 943 q 508 986 508 967 q 492 1021 508 1008 q 449 1033 476 1033 q 363 1007 404 1033 l 339 1079 q 406 1119 368 1104 q 486 1135 444 1135 q 587 1102 549 1135 q 625 1014 625 1069 q 588 923 625 960 q 483 871 551 886 l 464 932 z "},"Ȇ":{"ha":938,"x_min":69,"x_max":863,"o":"m 69 167 l 139 167 l 139 643 l 69 643 l 69 810 l 857 810 l 857 517 l 690 517 l 690 643 l 418 643 l 418 489 l 500 489 l 500 565 l 639 565 l 639 260 l 501 260 l 501 336 l 418 336 l 418 168 l 696 168 l 696 311 l 863 311 l 863 0 l 69 0 l 69 167 m 261 869 q 326 1046 265 986 q 494 1106 386 1106 q 663 1046 603 1106 q 728 869 724 986 l 589 869 q 494 961 576 961 q 430 938 454 961 q 400 869 406 914 l 261 869 z "},"Ē":{"ha":938,"x_min":69,"x_max":863,"o":"m 69 167 l 139 167 l 139 643 l 69 643 l 69 810 l 857 810 l 857 517 l 690 517 l 690 643 l 418 643 l 418 489 l 500 489 l 500 565 l 639 565 l 639 260 l 501 260 l 501 336 l 418 336 l 418 168 l 696 168 l 696 311 l 863 311 l 863 0 l 69 0 l 69 167 m 300 1026 l 689 1026 l 689 899 l 300 899 l 300 1026 z "},"Ḗ":{"ha":938,"x_min":69,"x_max":863,"o":"m 69 167 l 139 167 l 139 643 l 69 643 l 69 810 l 857 810 l 857 517 l 690 517 l 690 643 l 418 643 l 418 489 l 500 489 l 500 565 l 639 565 l 639 260 l 501 260 l 501 336 l 418 336 l 418 168 l 696 168 l 696 311 l 863 311 l 863 0 l 69 0 l 69 167 m 300 1026 l 689 1026 l 689 899 l 300 899 l 300 1026 m 482 1358 l 700 1358 l 563 1104 l 426 1104 l 482 1358 z "},"Ḕ":{"ha":938,"x_min":69,"x_max":863,"o":"m 69 167 l 139 167 l 139 643 l 69 643 l 69 810 l 857 810 l 857 517 l 690 517 l 690 643 l 418 643 l 418 489 l 500 489 l 500 565 l 639 565 l 639 260 l 501 260 l 501 336 l 418 336 l 418 168 l 696 168 l 696 311 l 863 311 l 863 0 l 69 0 l 69 167 m 300 1026 l 689 1026 l 689 899 l 300 899 l 300 1026 m 285 1358 l 503 1358 l 558 1104 l 422 1104 l 285 1358 z "},"Ę":{"ha":938,"x_min":69,"x_max":863,"o":"m 69 167 l 139 167 l 139 643 l 69 643 l 69 810 l 857 810 l 857 517 l 690 517 l 690 643 l 418 643 l 418 489 l 500 489 l 500 565 l 639 565 l 639 260 l 501 260 l 501 336 l 418 336 l 418 168 l 696 168 l 696 311 l 863 311 l 863 0 l 69 0 l 69 167 m 744 -281 q 647 -247 682 -281 q 613 -162 613 -214 q 711 0 613 -79 l 788 0 q 743 -61 757 -36 q 729 -111 729 -86 q 749 -152 729 -136 q 804 -168 769 -168 q 861 -160 832 -168 l 861 -256 q 744 -281 799 -281 z "},"Ẽ":{"ha":938,"x_min":69,"x_max":863,"o":"m 69 167 l 139 167 l 139 643 l 69 643 l 69 810 l 857 810 l 857 517 l 690 517 l 690 643 l 418 643 l 418 489 l 500 489 l 500 565 l 639 565 l 639 260 l 501 260 l 501 336 l 418 336 l 418 168 l 696 168 l 696 311 l 863 311 l 863 0 l 69 0 l 69 167 m 599 904 q 535 915 567 904 q 465 944 504 925 q 385 972 410 972 q 324 913 329 972 l 208 913 q 267 1085 217 1031 q 390 1140 317 1140 q 452 1130 422 1140 q 522 1100 482 1119 q 604 1072 581 1072 q 665 1132 660 1072 l 781 1132 q 722 959 772 1014 q 599 904 672 904 z "},"F":{"ha":881,"x_min":69,"x_max":856,"o":"m 69 167 l 139 167 l 139 643 l 69 643 l 69 810 l 856 810 l 856 511 l 689 511 l 689 643 l 417 643 l 417 489 l 499 489 l 499 565 l 638 565 l 638 260 l 500 260 l 500 336 l 417 336 l 417 167 l 500 167 l 500 0 l 69 0 l 69 167 z "},"Ḟ":{"ha":881,"x_min":69,"x_max":856,"o":"m 69 167 l 139 167 l 139 643 l 69 643 l 69 810 l 856 810 l 856 511 l 689 511 l 689 643 l 417 643 l 417 489 l 499 489 l 499 565 l 638 565 l 638 260 l 500 260 l 500 336 l 417 336 l 417 167 l 500 167 l 500 0 l 69 0 l 69 167 m 463 924 q 367 958 403 924 q 331 1051 331 993 q 367 1143 331 1108 q 463 1178 403 1178 q 559 1142 524 1178 q 594 1049 594 1107 q 558 958 594 992 q 463 924 521 924 z "},"G":{"ha":1042,"x_min":44,"x_max":961,"o":"m 961 453 l 961 390 q 902 164 961 254 q 742 30 843 74 q 515 -14 642 -14 q 271 38 378 -14 q 104 183 164 89 q 44 401 44 278 q 99 621 44 525 q 252 770 153 717 q 479 824 351 824 q 634 799 567 824 q 746 729 701 774 l 746 810 l 926 810 l 926 507 l 774 507 q 686 603 738 571 q 556 635 635 635 q 394 574 454 635 q 333 403 333 513 q 386 235 333 296 q 528 175 439 175 q 638 203 594 175 q 693 286 682 231 l 565 286 l 565 453 l 961 453 z "},"Ǵ":{"ha":1042,"x_min":44,"x_max":961,"o":"m 961 453 l 961 390 q 902 164 961 254 q 742 30 843 74 q 515 -14 642 -14 q 271 38 378 -14 q 104 183 164 89 q 44 401 44 278 q 99 621 44 525 q 252 770 153 717 q 479 824 351 824 q 634 799 567 824 q 746 729 701 774 l 746 810 l 926 810 l 926 507 l 774 507 q 686 603 738 571 q 556 635 635 635 q 394 574 454 635 q 333 403 333 513 q 386 235 333 296 q 528 175 439 175 q 638 203 594 175 q 693 286 682 231 l 565 286 l 565 453 l 961 453 m 546 1142 l 764 1142 l 626 888 l 490 888 l 546 1142 z "},"Ğ":{"ha":1042,"x_min":44,"x_max":961,"o":"m 961 453 l 961 390 q 902 164 961 254 q 742 30 843 74 q 515 -14 642 -14 q 271 38 378 -14 q 104 183 164 89 q 44 401 44 278 q 99 621 44 525 q 252 770 153 717 q 479 824 351 824 q 634 799 567 824 q 746 729 701 774 l 746 810 l 926 810 l 926 507 l 774 507 q 686 603 738 571 q 556 635 635 635 q 394 574 454 635 q 333 403 333 513 q 386 235 333 296 q 528 175 439 175 q 638 203 594 175 q 693 286 682 231 l 565 286 l 565 453 l 961 453 m 558 911 q 311 1129 322 911 l 469 1129 q 498 1062 475 1085 q 558 1039 521 1039 q 647 1129 640 1039 l 806 1129 q 558 911 786 911 z "},"Ǧ":{"ha":1042,"x_min":44,"x_max":961,"o":"m 961 453 l 961 390 q 902 164 961 254 q 742 30 843 74 q 515 -14 642 -14 q 271 38 378 -14 q 104 183 164 89 q 44 401 44 278 q 99 621 44 525 q 252 770 153 717 q 479 824 351 824 q 634 799 567 824 q 746 729 701 774 l 746 810 l 926 810 l 926 507 l 774 507 q 686 603 738 571 q 556 635 635 635 q 394 574 454 635 q 333 403 333 513 q 386 235 333 296 q 528 175 439 175 q 638 203 594 175 q 693 286 682 231 l 565 286 l 565 453 l 961 453 m 325 1150 l 485 1150 l 565 992 l 647 1150 l 790 1150 l 699 896 l 433 896 l 325 1150 z "},"Ĝ":{"ha":1042,"x_min":44,"x_max":961,"o":"m 961 453 l 961 390 q 902 164 961 254 q 742 30 843 74 q 515 -14 642 -14 q 271 38 378 -14 q 104 183 164 89 q 44 401 44 278 q 99 621 44 525 q 252 770 153 717 q 479 824 351 824 q 634 799 567 824 q 746 729 701 774 l 746 810 l 926 810 l 926 507 l 774 507 q 686 603 738 571 q 556 635 635 635 q 394 574 454 635 q 333 403 333 513 q 386 235 333 296 q 528 175 439 175 q 638 203 594 175 q 693 286 682 231 l 565 286 l 565 453 l 961 453 m 436 1147 l 683 1147 l 801 896 l 654 896 l 558 1050 l 463 896 l 315 896 l 436 1147 z "},"Ģ":{"ha":1042,"x_min":44,"x_max":961,"o":"m 961 453 l 961 390 q 902 164 961 254 q 742 30 843 74 q 515 -14 642 -14 q 271 38 378 -14 q 104 183 164 89 q 44 401 44 278 q 99 621 44 525 q 252 770 153 717 q 479 824 351 824 q 634 799 567 824 q 746 729 701 774 l 746 810 l 926 810 l 926 507 l 774 507 q 686 603 738 571 q 556 635 635 635 q 394 574 454 635 q 333 403 333 513 q 386 235 333 296 q 528 175 439 175 q 638 203 594 175 q 693 286 682 231 l 565 286 l 565 453 l 961 453 m 451 -374 q 518 -344 497 -371 q 539 -258 539 -318 l 438 -258 l 438 -81 l 656 -81 l 656 -218 q 610 -394 656 -339 q 451 -450 564 -450 l 451 -374 z "},"Ġ":{"ha":1042,"x_min":44,"x_max":961,"o":"m 961 453 l 961 390 q 902 164 961 254 q 742 30 843 74 q 515 -14 642 -14 q 271 38 378 -14 q 104 183 164 89 q 44 401 44 278 q 99 621 44 525 q 252 770 153 717 q 479 824 351 824 q 634 799 567 824 q 746 729 701 774 l 746 810 l 926 810 l 926 507 l 774 507 q 686 603 738 571 q 556 635 635 635 q 394 574 454 635 q 333 403 333 513 q 386 235 333 296 q 528 175 439 175 q 638 203 594 175 q 693 286 682 231 l 565 286 l 565 453 l 961 453 m 558 924 q 463 958 499 924 q 426 1051 426 993 q 463 1143 426 1108 q 558 1178 499 1178 q 655 1142 619 1178 q 690 1049 690 1107 q 653 958 690 992 q 558 924 617 924 z "},"Ḡ":{"ha":1042,"x_min":44,"x_max":961,"o":"m 961 453 l 961 390 q 902 164 961 254 q 742 30 843 74 q 515 -14 642 -14 q 271 38 378 -14 q 104 183 164 89 q 44 401 44 278 q 99 621 44 525 q 252 770 153 717 q 479 824 351 824 q 634 799 567 824 q 746 729 701 774 l 746 810 l 926 810 l 926 507 l 774 507 q 686 603 738 571 q 556 635 635 635 q 394 574 454 635 q 333 403 333 513 q 386 235 333 296 q 528 175 439 175 q 638 203 594 175 q 693 286 682 231 l 565 286 l 565 453 l 961 453 m 364 1026 l 753 1026 l 753 899 l 364 899 l 364 1026 z "},"H":{"ha":1064,"x_min":69,"x_max":994,"o":"m 69 167 l 139 167 l 139 643 l 69 643 l 69 810 l 486 810 l 486 643 l 417 643 l 417 486 l 647 486 l 647 643 l 578 643 l 578 810 l 994 810 l 994 643 l 925 643 l 925 167 l 994 167 l 994 0 l 578 0 l 578 167 l 647 167 l 647 333 l 417 333 l 417 167 l 486 167 l 486 0 l 69 0 l 69 167 z "},"Ħ":{"ha":1064,"x_min":69,"x_max":994,"o":"m 925 643 l 925 611 l 993 611 l 993 519 l 925 519 l 925 167 l 994 167 l 994 0 l 578 0 l 578 167 l 647 167 l 647 333 l 417 333 l 417 167 l 486 167 l 486 0 l 69 0 l 69 167 l 139 167 l 139 519 l 71 519 l 71 611 l 139 611 l 139 643 l 69 643 l 69 810 l 486 810 l 486 643 l 417 643 l 417 611 l 647 611 l 647 643 l 578 643 l 578 810 l 994 810 l 994 643 l 925 643 m 647 519 l 417 519 l 417 486 l 647 486 l 647 519 z "},"Ḫ":{"ha":1064,"x_min":69,"x_max":994,"o":"m 69 167 l 139 167 l 139 643 l 69 643 l 69 810 l 486 810 l 486 643 l 417 643 l 417 486 l 647 486 l 647 643 l 578 643 l 578 810 l 994 810 l 994 643 l 925 643 l 925 167 l 994 167 l 994 0 l 578 0 l 578 167 l 647 167 l 647 333 l 417 333 l 417 167 l 486 167 l 486 0 l 69 0 l 69 167 m 565 -299 q 318 -81 329 -299 l 476 -81 q 505 -148 482 -125 q 565 -171 528 -171 q 654 -81 647 -171 l 813 -81 q 565 -299 793 -299 z "},"Ȟ":{"ha":1064,"x_min":69,"x_max":994,"o":"m 69 167 l 139 167 l 139 643 l 69 643 l 69 810 l 486 810 l 486 643 l 417 643 l 417 486 l 647 486 l 647 643 l 578 643 l 578 810 l 994 810 l 994 643 l 925 643 l 925 167 l 994 167 l 994 0 l 578 0 l 578 167 l 647 167 l 647 333 l 417 333 l 417 167 l 486 167 l 486 0 l 69 0 l 69 167 m 299 1150 l 458 1150 l 539 992 l 621 1150 l 764 1150 l 672 896 l 407 896 l 299 1150 z "},"Ĥ":{"ha":1064,"x_min":69,"x_max":994,"o":"m 69 167 l 139 167 l 139 643 l 69 643 l 69 810 l 486 810 l 486 643 l 417 643 l 417 486 l 647 486 l 647 643 l 578 643 l 578 810 l 994 810 l 994 643 l 925 643 l 925 167 l 994 167 l 994 0 l 578 0 l 578 167 l 647 167 l 647 333 l 417 333 l 417 167 l 486 167 l 486 0 l 69 0 l 69 167 m 410 1147 l 657 1147 l 775 896 l 628 896 l 532 1050 l 436 896 l 289 896 l 410 1147 z "},"Ḥ":{"ha":1064,"x_min":69,"x_max":994,"o":"m 69 167 l 139 167 l 139 643 l 69 643 l 69 810 l 486 810 l 486 643 l 417 643 l 417 486 l 647 486 l 647 643 l 578 643 l 578 810 l 994 810 l 994 643 l 925 643 l 925 167 l 994 167 l 994 0 l 578 0 l 578 167 l 647 167 l 647 333 l 417 333 l 417 167 l 486 167 l 486 0 l 69 0 l 69 167 m 565 -296 q 479 -266 511 -296 q 447 -187 447 -236 q 479 -110 447 -139 q 565 -81 511 -81 q 651 -110 619 -81 q 683 -190 683 -140 q 651 -267 683 -237 q 565 -296 618 -296 z "},"I":{"ha":556,"x_min":69,"x_max":486,"o":"m 69 165 l 139 165 l 139 643 l 69 643 l 69 810 l 486 810 l 486 643 l 417 643 l 417 165 l 486 165 l 486 0 l 69 0 l 69 165 z "},"Ĳ":{"ha":1122,"x_min":69,"x_max":1067,"o":"m 69 165 l 139 165 l 139 643 l 69 643 l 69 810 l 486 810 l 486 643 l 417 643 l 417 165 l 486 165 l 486 0 l 69 0 l 69 165 m 567 -18 l 606 -18 q 693 13 667 -18 q 719 111 719 44 l 719 657 l 636 657 l 636 810 l 1067 810 l 1067 657 l 997 657 l 997 131 q 918 -137 997 -54 q 663 -221 839 -221 l 567 -221 l 567 -18 z "},"Í":{"ha":556,"x_min":69,"x_max":486,"o":"m 69 165 l 139 165 l 139 643 l 69 643 l 69 810 l 486 810 l 486 643 l 417 643 l 417 165 l 486 165 l 486 0 l 69 0 l 69 165 m 265 1142 l 483 1142 l 346 888 l 210 888 l 265 1142 z "},"Ĭ":{"ha":556,"x_min":31,"x_max":525,"o":"m 69 165 l 139 165 l 139 643 l 69 643 l 69 810 l 486 810 l 486 643 l 417 643 l 417 165 l 486 165 l 486 0 l 69 0 l 69 165 m 278 911 q 31 1129 42 911 l 189 1129 q 217 1062 194 1085 q 278 1039 240 1039 q 367 1129 360 1039 l 525 1129 q 278 911 506 911 z "},"Ǐ":{"ha":556,"x_min":44,"x_max":510,"o":"m 69 165 l 139 165 l 139 643 l 69 643 l 69 810 l 486 810 l 486 643 l 417 643 l 417 165 l 486 165 l 486 0 l 69 0 l 69 165 m 44 1150 l 204 1150 l 285 992 l 367 1150 l 510 1150 l 418 896 l 153 896 l 44 1150 z "},"Î":{"ha":556,"x_min":35,"x_max":521,"o":"m 69 165 l 139 165 l 139 643 l 69 643 l 69 810 l 486 810 l 486 643 l 417 643 l 417 165 l 486 165 l 486 0 l 69 0 l 69 165 m 156 1147 l 403 1147 l 521 896 l 374 896 l 278 1050 l 182 896 l 35 896 l 156 1147 z "},"Ȉ":{"ha":556,"x_min":-79,"x_max":494,"o":"m 69 165 l 139 165 l 139 643 l 69 643 l 69 810 l 486 810 l 486 643 l 417 643 l 417 165 l 486 165 l 486 0 l 69 0 l 69 165 m -79 1142 l 139 1142 l 196 888 l 60 888 l -79 1142 m 219 1142 l 438 1142 l 494 888 l 357 888 l 219 1142 z "},"Ï":{"ha":556,"x_min":-33,"x_max":589,"o":"m 69 165 l 139 165 l 139 643 l 69 643 l 69 810 l 486 810 l 486 643 l 417 643 l 417 165 l 486 165 l 486 0 l 69 0 l 69 165 m 93 924 q 3 956 40 924 q -33 1044 -33 988 q 3 1133 -33 1101 q 93 1165 40 1165 q 183 1133 146 1165 q 219 1044 219 1101 q 183 956 219 988 q 93 924 146 924 m 463 924 q 373 956 410 924 q 336 1044 336 988 q 373 1133 336 1101 q 463 1165 410 1165 q 552 1133 515 1165 q 589 1044 589 1101 q 552 956 589 988 q 463 924 515 924 z "},"Ḯ":{"ha":556,"x_min":-33,"x_max":589,"o":"m 69 165 l 139 165 l 139 643 l 69 643 l 69 810 l 486 810 l 486 643 l 417 643 l 417 165 l 486 165 l 486 0 l 69 0 l 69 165 m 93 924 q 3 956 40 924 q -33 1044 -33 988 q 3 1133 -33 1101 q 93 1165 40 1165 q 183 1133 146 1165 q 219 1044 219 1101 q 183 956 219 988 q 93 924 146 924 m 463 924 q 373 956 410 924 q 336 1044 336 988 q 373 1133 336 1101 q 463 1165 410 1165 q 552 1133 515 1165 q 589 1044 589 1101 q 552 956 589 988 q 463 924 515 924 m 265 1456 l 483 1456 l 346 1201 l 210 1201 l 265 1456 z "},"İ":{"ha":556,"x_min":69,"x_max":486,"o":"m 69 165 l 139 165 l 139 643 l 69 643 l 69 810 l 486 810 l 486 643 l 417 643 l 417 165 l 486 165 l 486 0 l 69 0 l 69 165 m 278 924 q 182 958 218 924 q 146 1051 146 993 q 182 1143 146 1108 q 278 1178 218 1178 q 374 1142 339 1178 q 410 1049 410 1107 q 373 958 410 992 q 278 924 336 924 z "},"Ị":{"ha":556,"x_min":69,"x_max":486,"o":"m 69 165 l 139 165 l 139 643 l 69 643 l 69 810 l 486 810 l 486 643 l 417 643 l 417 165 l 486 165 l 486 0 l 69 0 l 69 165 m 278 -296 q 192 -266 224 -296 q 160 -187 160 -236 q 192 -110 160 -139 q 278 -81 224 -81 q 364 -110 332 -81 q 396 -190 396 -140 q 363 -267 396 -237 q 278 -296 331 -296 z "},"Ì":{"ha":556,"x_min":68,"x_max":486,"o":"m 69 165 l 139 165 l 139 643 l 69 643 l 69 810 l 486 810 l 486 643 l 417 643 l 417 165 l 486 165 l 486 0 l 69 0 l 69 165 m 68 1142 l 286 1142 l 342 888 l 206 888 l 68 1142 z "},"Ỉ":{"ha":556,"x_min":69,"x_max":486,"o":"m 69 165 l 139 165 l 139 643 l 69 643 l 69 810 l 486 810 l 486 643 l 417 643 l 417 165 l 486 165 l 486 0 l 69 0 l 69 165 m 247 932 q 281 955 269 943 q 292 986 292 967 q 276 1021 292 1008 q 232 1033 260 1033 q 146 1007 188 1033 l 122 1079 q 190 1119 151 1104 q 269 1135 228 1135 q 370 1102 332 1135 q 408 1014 408 1069 q 372 923 408 960 q 267 871 335 886 l 247 932 z "},"Ȋ":{"ha":556,"x_min":44,"x_max":511,"o":"m 69 165 l 139 165 l 139 643 l 69 643 l 69 810 l 486 810 l 486 643 l 417 643 l 417 165 l 486 165 l 486 0 l 69 0 l 69 165 m 44 869 q 109 1046 49 986 q 278 1106 169 1106 q 447 1046 386 1106 q 511 869 507 986 l 372 869 q 278 961 360 961 q 213 938 238 961 q 183 869 189 914 l 44 869 z "},"Ī":{"ha":556,"x_min":69,"x_max":486,"o":"m 69 165 l 139 165 l 139 643 l 69 643 l 69 810 l 486 810 l 486 643 l 417 643 l 417 165 l 486 165 l 486 0 l 69 0 l 69 165 m 83 1026 l 472 1026 l 472 899 l 83 899 l 83 1026 z "},"Į":{"ha":556,"x_min":69,"x_max":486,"o":"m 69 165 l 139 165 l 139 643 l 69 643 l 69 810 l 486 810 l 486 643 l 417 643 l 417 165 l 486 165 l 486 0 l 69 0 l 69 165 m 283 -281 q 186 -247 221 -281 q 151 -162 151 -214 q 250 0 151 -79 l 326 0 q 282 -61 296 -36 q 268 -111 268 -86 q 288 -152 268 -136 q 343 -168 308 -168 q 400 -160 371 -168 l 400 -256 q 283 -281 338 -281 z "},"Ĩ":{"ha":556,"x_min":-8,"x_max":564,"o":"m 69 165 l 139 165 l 139 643 l 69 643 l 69 810 l 486 810 l 486 643 l 417 643 l 417 165 l 486 165 l 486 0 l 69 0 l 69 165 m 382 904 q 319 915 350 904 q 249 944 288 925 q 168 972 193 972 q 107 913 113 972 l -8 913 q 50 1085 0 1031 q 174 1140 100 1140 q 235 1130 206 1140 q 306 1100 265 1119 q 388 1072 364 1072 q 449 1132 443 1072 l 564 1132 q 506 959 556 1014 q 382 904 456 904 z "},"J":{"ha":567,"x_min":11,"x_max":511,"o":"m 11 -18 l 50 -18 q 138 13 111 -18 q 164 111 164 44 l 164 657 l 81 657 l 81 810 l 511 810 l 511 657 l 442 657 l 442 131 q 363 -137 442 -54 q 107 -221 283 -221 l 11 -221 l 11 -18 z "},"Ĵ":{"ha":567,"x_min":11,"x_max":538,"o":"m 11 -18 l 50 -18 q 138 13 111 -18 q 164 111 164 44 l 164 657 l 81 657 l 81 810 l 511 810 l 511 657 l 442 657 l 442 131 q 363 -137 442 -54 q 107 -221 283 -221 l 11 -221 l 11 -18 m 172 1147 l 419 1147 l 538 896 l 390 896 l 294 1050 l 199 896 l 51 896 l 172 1147 z "},"K":{"ha":1001,"x_min":69,"x_max":963,"o":"m 69 167 l 139 167 l 139 643 l 69 643 l 69 810 l 488 810 l 488 643 l 418 643 l 418 435 l 624 643 l 561 643 l 561 810 l 942 810 l 942 643 l 892 643 l 675 421 l 913 167 l 963 167 l 963 0 l 558 0 l 558 167 l 608 167 l 418 385 l 418 167 l 488 167 l 488 0 l 69 0 l 69 167 z "},"Ǩ":{"ha":1001,"x_min":69,"x_max":963,"o":"m 69 167 l 139 167 l 139 643 l 69 643 l 69 810 l 488 810 l 488 643 l 418 643 l 418 435 l 624 643 l 561 643 l 561 810 l 942 810 l 942 643 l 892 643 l 675 421 l 913 167 l 963 167 l 963 0 l 558 0 l 558 167 l 608 167 l 418 385 l 418 167 l 488 167 l 488 0 l 69 0 l 69 167 m 293 1150 l 453 1150 l 533 992 l 615 1150 l 758 1150 l 667 896 l 401 896 l 293 1150 z "},"Ķ":{"ha":1001,"x_min":69,"x_max":963,"o":"m 69 167 l 139 167 l 139 643 l 69 643 l 69 810 l 488 810 l 488 643 l 418 643 l 418 435 l 624 643 l 561 643 l 561 810 l 942 810 l 942 643 l 892 643 l 675 421 l 913 167 l 963 167 l 963 0 l 558 0 l 558 167 l 608 167 l 418 385 l 418 167 l 488 167 l 488 0 l 69 0 l 69 167 m 489 -374 q 556 -344 535 -371 q 576 -258 576 -318 l 475 -258 l 475 -81 l 693 -81 l 693 -218 q 647 -394 693 -339 q 489 -450 601 -450 l 489 -374 z "},"L":{"ha":810,"x_min":69,"x_max":779,"o":"m 69 167 l 139 167 l 139 657 l 69 657 l 69 810 l 486 810 l 486 657 l 417 657 l 417 167 l 599 167 l 599 368 l 779 368 l 779 0 l 69 0 l 69 167 z "},"Ǉ":{"ha":1376,"x_min":69,"x_max":1321,"o":"m 69 167 l 139 167 l 139 657 l 69 657 l 69 810 l 486 810 l 486 657 l 417 657 l 417 167 l 599 167 l 599 368 l 779 368 l 779 0 l 69 0 l 69 167 m 821 -18 l 860 -18 q 947 13 921 -18 q 974 111 974 44 l 974 657 l 890 657 l 890 810 l 1321 810 l 1321 657 l 1251 657 l 1251 131 q 1172 -137 1251 -54 q 917 -221 1093 -221 l 821 -221 l 821 -18 z "},"Ĺ":{"ha":810,"x_min":69,"x_max":779,"o":"m 69 167 l 139 167 l 139 657 l 69 657 l 69 810 l 486 810 l 486 657 l 417 657 l 417 167 l 599 167 l 599 368 l 779 368 l 779 0 l 69 0 l 69 167 m 265 1142 l 483 1142 l 346 888 l 210 888 l 265 1142 z "},"Ľ":{"ha":810,"x_min":69,"x_max":779,"o":"m 69 167 l 139 167 l 139 657 l 69 657 l 69 810 l 486 810 l 486 657 l 417 657 l 417 167 l 599 167 l 599 368 l 779 368 l 779 0 l 69 0 l 69 167 m 564 501 q 639 533 615 504 q 663 625 663 561 l 561 625 l 561 810 l 779 810 l 779 665 q 731 485 779 546 q 564 425 682 425 l 564 501 z "},"Ļ":{"ha":810,"x_min":69,"x_max":779,"o":"m 69 167 l 139 167 l 139 657 l 69 657 l 69 810 l 486 810 l 486 657 l 417 657 l 417 167 l 599 167 l 599 368 l 779 368 l 779 0 l 69 0 l 69 167 m 329 -374 q 396 -344 375 -371 q 417 -258 417 -318 l 315 -258 l 315 -81 l 533 -81 l 533 -218 q 488 -394 533 -339 q 329 -450 442 -450 l 329 -374 z "},"Ŀ":{"ha":810,"x_min":69,"x_max":779,"o":"m 69 167 l 139 167 l 139 657 l 69 657 l 69 810 l 486 810 l 486 657 l 417 657 l 417 167 l 599 167 l 599 368 l 779 368 l 779 0 l 69 0 l 69 167 m 679 458 q 608 485 636 458 q 579 553 579 513 q 608 620 579 593 q 679 647 636 647 q 751 620 722 647 q 779 553 779 593 q 751 485 779 513 q 679 458 722 458 z "},"Ḷ":{"ha":810,"x_min":69,"x_max":779,"o":"m 69 167 l 139 167 l 139 657 l 69 657 l 69 810 l 486 810 l 486 657 l 417 657 l 417 167 l 599 167 l 599 368 l 779 368 l 779 0 l 69 0 l 69 167 m 425 -296 q 339 -266 371 -296 q 307 -187 307 -236 q 339 -110 307 -139 q 425 -81 371 -81 q 511 -110 479 -81 q 543 -190 543 -140 q 510 -267 543 -237 q 425 -296 478 -296 z "},"ǈ":{"ha":1249,"x_min":69,"x_max":1201,"o":"m 69 167 l 139 167 l 139 657 l 69 657 l 69 810 l 486 810 l 486 657 l 417 657 l 417 167 l 599 167 l 599 368 l 779 368 l 779 0 l 69 0 l 69 167 m 1058 657 q 959 692 996 657 q 922 789 922 728 q 959 884 922 849 q 1058 919 996 919 q 1158 884 1121 919 q 1194 789 1194 849 q 1158 693 1196 729 q 1058 657 1121 657 m 796 -57 l 847 -57 q 933 -32 907 -57 q 958 54 958 -7 l 958 407 l 858 407 l 858 560 l 1201 560 l 1201 81 q 1117 -161 1201 -87 q 872 -235 1033 -235 l 796 -235 l 796 -57 z "},"Ḻ":{"ha":810,"x_min":69,"x_max":779,"o":"m 69 167 l 139 167 l 139 657 l 69 657 l 69 810 l 486 810 l 486 657 l 417 657 l 417 167 l 599 167 l 599 368 l 779 368 l 779 0 l 69 0 l 69 167 m 231 -122 l 619 -122 l 619 -250 l 231 -250 l 231 -122 z "},"Ł":{"ha":810,"x_min":69,"x_max":779,"o":"m 779 368 l 779 0 l 69 0 l 69 167 l 139 167 l 139 290 l 69 264 l 69 376 l 139 403 l 139 657 l 69 657 l 69 810 l 486 810 l 486 657 l 417 657 l 417 508 l 611 582 l 611 474 l 417 399 l 417 167 l 599 167 l 599 368 l 779 368 z "},"M":{"ha":1293,"x_min":69,"x_max":1224,"o":"m 69 167 l 139 167 l 139 643 l 69 643 l 69 810 l 510 810 l 660 418 l 807 810 l 1224 810 l 1224 643 l 1154 643 l 1154 167 l 1224 167 l 1224 0 l 821 0 l 821 167 l 890 167 l 890 560 l 690 29 l 564 29 l 361 560 l 361 167 l 431 167 l 431 0 l 69 0 l 69 167 z "},"Ṁ":{"ha":1293,"x_min":69,"x_max":1224,"o":"m 69 167 l 139 167 l 139 643 l 69 643 l 69 810 l 510 810 l 660 418 l 807 810 l 1224 810 l 1224 643 l 1154 643 l 1154 167 l 1224 167 l 1224 0 l 821 0 l 821 167 l 890 167 l 890 560 l 690 29 l 564 29 l 361 560 l 361 167 l 431 167 l 431 0 l 69 0 l 69 167 m 657 924 q 561 958 597 924 q 525 1051 525 993 q 561 1143 525 1108 q 657 1178 597 1178 q 753 1142 718 1178 q 789 1049 789 1107 q 752 958 789 992 q 657 924 715 924 z "},"Ṃ":{"ha":1293,"x_min":69,"x_max":1224,"o":"m 69 167 l 139 167 l 139 643 l 69 643 l 69 810 l 510 810 l 660 418 l 807 810 l 1224 810 l 1224 643 l 1154 643 l 1154 167 l 1224 167 l 1224 0 l 821 0 l 821 167 l 890 167 l 890 560 l 690 29 l 564 29 l 361 560 l 361 167 l 431 167 l 431 0 l 69 0 l 69 167 m 628 -296 q 542 -266 574 -296 q 510 -187 510 -236 q 542 -110 510 -139 q 628 -81 574 -81 q 714 -110 682 -81 q 746 -190 746 -140 q 713 -267 746 -237 q 628 -296 681 -296 z "},"N":{"ha":1064,"x_min":69,"x_max":1008,"o":"m 69 167 l 139 167 l 139 643 l 69 643 l 69 810 l 460 810 l 758 346 l 758 643 l 675 643 l 675 810 l 1008 810 l 1008 643 l 939 643 l 939 0 l 660 0 l 315 529 l 315 167 l 399 167 l 399 0 l 69 0 l 69 167 z "},"Ǌ":{"ha":1631,"x_min":69,"x_max":1575,"o":"m 69 167 l 139 167 l 139 643 l 69 643 l 69 810 l 460 810 l 758 346 l 758 643 l 675 643 l 675 810 l 1008 810 l 1008 643 l 939 643 l 939 0 l 660 0 l 315 529 l 315 167 l 399 167 l 399 0 l 69 0 l 69 167 m 1075 -18 l 1114 -18 q 1201 13 1175 -18 q 1228 111 1228 44 l 1228 657 l 1144 657 l 1144 810 l 1575 810 l 1575 657 l 1506 657 l 1506 131 q 1426 -137 1506 -54 q 1171 -221 1347 -221 l 1075 -221 l 1075 -18 z "},"Ń":{"ha":1064,"x_min":69,"x_max":1008,"o":"m 69 167 l 139 167 l 139 643 l 69 643 l 69 810 l 460 810 l 758 346 l 758 643 l 675 643 l 675 810 l 1008 810 l 1008 643 l 939 643 l 939 0 l 660 0 l 315 529 l 315 167 l 399 167 l 399 0 l 69 0 l 69 167 m 549 1142 l 767 1142 l 629 888 l 493 888 l 549 1142 z "},"Ň":{"ha":1064,"x_min":69,"x_max":1008,"o":"m 69 167 l 139 167 l 139 643 l 69 643 l 69 810 l 460 810 l 758 346 l 758 643 l 675 643 l 675 810 l 1008 810 l 1008 643 l 939 643 l 939 0 l 660 0 l 315 529 l 315 167 l 399 167 l 399 0 l 69 0 l 69 167 m 328 1150 l 488 1150 l 568 992 l 650 1150 l 793 1150 l 701 896 l 436 896 l 328 1150 z "},"Ņ":{"ha":1064,"x_min":69,"x_max":1008,"o":"m 69 167 l 139 167 l 139 643 l 69 643 l 69 810 l 460 810 l 758 346 l 758 643 l 675 643 l 675 810 l 1008 810 l 1008 643 l 939 643 l 939 0 l 660 0 l 315 529 l 315 167 l 399 167 l 399 0 l 69 0 l 69 167 m 454 -374 q 521 -344 500 -371 q 542 -258 542 -318 l 440 -258 l 440 -81 l 658 -81 l 658 -218 q 613 -394 658 -339 q 454 -450 567 -450 l 454 -374 z "},"Ṅ":{"ha":1064,"x_min":69,"x_max":1008,"o":"m 69 167 l 139 167 l 139 643 l 69 643 l 69 810 l 460 810 l 758 346 l 758 643 l 675 643 l 675 810 l 1008 810 l 1008 643 l 939 643 l 939 0 l 660 0 l 315 529 l 315 167 l 399 167 l 399 0 l 69 0 l 69 167 m 561 924 q 465 958 501 924 q 429 1051 429 993 q 465 1143 429 1108 q 561 1178 501 1178 q 658 1142 622 1178 q 693 1049 693 1107 q 656 958 693 992 q 561 924 619 924 z "},"Ṇ":{"ha":1064,"x_min":69,"x_max":1008,"o":"m 69 167 l 139 167 l 139 643 l 69 643 l 69 810 l 460 810 l 758 346 l 758 643 l 675 643 l 675 810 l 1008 810 l 1008 643 l 939 643 l 939 0 l 660 0 l 315 529 l 315 167 l 399 167 l 399 0 l 69 0 l 69 167 m 550 -296 q 464 -266 496 -296 q 432 -187 432 -236 q 464 -110 432 -139 q 550 -81 496 -81 q 636 -110 604 -81 q 668 -190 668 -140 q 635 -267 668 -237 q 550 -296 603 -296 z "},"Ǹ":{"ha":1064,"x_min":69,"x_max":1008,"o":"m 69 167 l 139 167 l 139 643 l 69 643 l 69 810 l 460 810 l 758 346 l 758 643 l 675 643 l 675 810 l 1008 810 l 1008 643 l 939 643 l 939 0 l 660 0 l 315 529 l 315 167 l 399 167 l 399 0 l 69 0 l 69 167 m 351 1142 l 569 1142 l 625 888 l 489 888 l 351 1142 z "},"Ŋ":{"ha":1050,"x_min":69,"x_max":994,"o":"m 538 -114 l 597 -114 q 700 -90 656 -114 q 744 -15 744 -67 l 315 467 l 315 167 l 399 167 l 399 0 l 69 0 l 69 167 l 139 167 l 139 643 l 69 643 l 69 810 l 376 810 l 744 374 l 744 643 l 661 643 l 661 810 l 994 810 l 994 643 l 925 643 l 925 3 q 863 -200 925 -133 q 664 -267 801 -267 l 538 -267 l 538 -114 z "},"ǋ":{"ha":1503,"x_min":69,"x_max":1456,"o":"m 69 167 l 139 167 l 139 643 l 69 643 l 69 810 l 460 810 l 758 346 l 758 643 l 675 643 l 675 810 l 1008 810 l 1008 643 l 939 643 l 939 0 l 660 0 l 315 529 l 315 167 l 399 167 l 399 0 l 69 0 l 69 167 m 1313 657 q 1213 692 1250 657 q 1176 789 1176 728 q 1213 884 1176 849 q 1313 919 1250 919 q 1412 884 1375 919 q 1449 789 1449 849 q 1413 693 1450 729 q 1313 657 1375 657 m 1050 -57 l 1101 -57 q 1187 -32 1161 -57 q 1213 54 1213 -7 l 1213 407 l 1113 407 l 1113 560 l 1456 560 l 1456 81 q 1372 -161 1456 -87 q 1126 -235 1288 -235 l 1050 -235 l 1050 -57 z "},"Ṉ":{"ha":1064,"x_min":69,"x_max":1008,"o":"m 69 167 l 139 167 l 139 643 l 69 643 l 69 810 l 460 810 l 758 346 l 758 643 l 675 643 l 675 810 l 1008 810 l 1008 643 l 939 643 l 939 0 l 660 0 l 315 529 l 315 167 l 399 167 l 399 0 l 69 0 l 69 167 m 356 -122 l 744 -122 l 744 -250 l 356 -250 l 356 -122 z "},"Ñ":{"ha":1064,"x_min":69,"x_max":1008,"o":"m 69 167 l 139 167 l 139 643 l 69 643 l 69 810 l 460 810 l 758 346 l 758 643 l 675 643 l 675 810 l 1008 810 l 1008 643 l 939 643 l 939 0 l 660 0 l 315 529 l 315 167 l 399 167 l 399 0 l 69 0 l 69 167 m 665 904 q 602 915 633 904 q 532 944 571 925 q 451 972 476 972 q 390 913 396 972 l 275 913 q 333 1085 283 1031 q 457 1140 383 1140 q 519 1130 489 1140 q 589 1100 549 1119 q 671 1072 647 1072 q 732 1132 726 1072 l 847 1132 q 789 959 839 1014 q 665 904 739 904 z "},"O":{"ha":1022,"x_min":44,"x_max":978,"o":"m 511 -14 q 265 37 371 -14 q 102 181 160 88 q 44 401 44 275 q 102 624 44 528 q 265 772 160 719 q 511 824 371 824 q 757 772 651 824 q 920 624 863 719 q 978 403 978 529 q 920 182 978 276 q 757 37 863 88 q 511 -14 651 -14 m 511 175 q 640 239 592 175 q 689 408 689 303 q 642 574 689 514 q 514 635 594 635 q 382 575 431 635 q 333 408 333 515 q 382 239 333 303 q 511 175 431 175 z "},"Ó":{"ha":1022,"x_min":44,"x_max":978,"o":"m 511 -14 q 265 37 371 -14 q 102 181 160 88 q 44 401 44 275 q 102 624 44 528 q 265 772 160 719 q 511 824 371 824 q 757 772 651 824 q 920 624 863 719 q 978 403 978 529 q 920 182 978 276 q 757 37 863 88 q 511 -14 651 -14 m 511 175 q 640 239 592 175 q 689 408 689 303 q 642 574 689 514 q 514 635 594 635 q 382 575 431 635 q 333 408 333 515 q 382 239 333 303 q 511 175 431 175 m 499 1142 l 717 1142 l 579 888 l 443 888 l 499 1142 z "},"Ŏ":{"ha":1022,"x_min":44,"x_max":978,"o":"m 511 -14 q 265 37 371 -14 q 102 181 160 88 q 44 401 44 275 q 102 624 44 528 q 265 772 160 719 q 511 824 371 824 q 757 772 651 824 q 920 624 863 719 q 978 403 978 529 q 920 182 978 276 q 757 37 863 88 q 511 -14 651 -14 m 511 175 q 640 239 592 175 q 689 408 689 303 q 642 574 689 514 q 514 635 594 635 q 382 575 431 635 q 333 408 333 515 q 382 239 333 303 q 511 175 431 175 m 511 911 q 264 1129 275 911 l 422 1129 q 451 1062 428 1085 q 511 1039 474 1039 q 600 1129 593 1039 l 758 1129 q 511 911 739 911 z "},"Ǒ":{"ha":1022,"x_min":44,"x_max":978,"o":"m 511 -14 q 265 37 371 -14 q 102 181 160 88 q 44 401 44 275 q 102 624 44 528 q 265 772 160 719 q 511 824 371 824 q 757 772 651 824 q 920 624 863 719 q 978 403 978 529 q 920 182 978 276 q 757 37 863 88 q 511 -14 651 -14 m 511 175 q 640 239 592 175 q 689 408 689 303 q 642 574 689 514 q 514 635 594 635 q 382 575 431 635 q 333 408 333 515 q 382 239 333 303 q 511 175 431 175 m 278 1150 l 438 1150 l 518 992 l 600 1150 l 743 1150 l 651 896 l 386 896 l 278 1150 z "},"Ô":{"ha":1022,"x_min":44,"x_max":978,"o":"m 511 -14 q 265 37 371 -14 q 102 181 160 88 q 44 401 44 275 q 102 624 44 528 q 265 772 160 719 q 511 824 371 824 q 757 772 651 824 q 920 624 863 719 q 978 403 978 529 q 920 182 978 276 q 757 37 863 88 q 511 -14 651 -14 m 511 175 q 640 239 592 175 q 689 408 689 303 q 642 574 689 514 q 514 635 594 635 q 382 575 431 635 q 333 408 333 515 q 382 239 333 303 q 511 175 431 175 m 389 1147 l 636 1147 l 754 896 l 607 896 l 511 1050 l 415 896 l 268 896 l 389 1147 z "},"Ố":{"ha":1022,"x_min":44,"x_max":978,"o":"m 511 -14 q 265 37 371 -14 q 102 181 160 88 q 44 401 44 275 q 102 624 44 528 q 265 772 160 719 q 511 824 371 824 q 757 772 651 824 q 920 624 863 719 q 978 403 978 529 q 920 182 978 276 q 757 37 863 88 q 511 -14 651 -14 m 511 175 q 640 239 592 175 q 689 408 689 303 q 642 574 689 514 q 514 635 594 635 q 382 575 431 635 q 333 408 333 515 q 382 239 333 303 q 511 175 431 175 m 768 1225 l 933 1225 l 817 1026 l 708 1026 l 768 1225 m 403 1092 l 622 1092 l 740 896 l 593 896 l 511 994 l 429 896 l 282 896 l 403 1092 z "},"Ộ":{"ha":1022,"x_min":44,"x_max":978,"o":"m 511 -14 q 265 37 371 -14 q 102 181 160 88 q 44 401 44 275 q 102 624 44 528 q 265 772 160 719 q 511 824 371 824 q 757 772 651 824 q 920 624 863 719 q 978 403 978 529 q 920 182 978 276 q 757 37 863 88 q 511 -14 651 -14 m 511 175 q 640 239 592 175 q 689 408 689 303 q 642 574 689 514 q 514 635 594 635 q 382 575 431 635 q 333 408 333 515 q 382 239 333 303 q 511 175 431 175 m 511 -296 q 425 -266 457 -296 q 393 -187 393 -236 q 425 -110 393 -139 q 511 -81 457 -81 q 597 -110 565 -81 q 629 -190 629 -140 q 597 -267 629 -237 q 511 -296 564 -296 m 389 1147 l 636 1147 l 754 896 l 607 896 l 511 1050 l 415 896 l 268 896 l 389 1147 z "},"Ồ":{"ha":1022,"x_min":44,"x_max":978,"o":"m 511 -14 q 265 37 371 -14 q 102 181 160 88 q 44 401 44 275 q 102 624 44 528 q 265 772 160 719 q 511 824 371 824 q 757 772 651 824 q 920 624 863 719 q 978 403 978 529 q 920 182 978 276 q 757 37 863 88 q 511 -14 651 -14 m 511 175 q 640 239 592 175 q 689 408 689 303 q 642 574 689 514 q 514 635 594 635 q 382 575 431 635 q 333 408 333 515 q 382 239 333 303 q 511 175 431 175 m 756 1026 l 639 1225 l 804 1225 l 864 1026 l 756 1026 m 403 1092 l 622 1092 l 740 896 l 593 896 l 511 994 l 429 896 l 282 896 l 403 1092 z "},"Ổ":{"ha":1022,"x_min":44,"x_max":978,"o":"m 511 -14 q 265 37 371 -14 q 102 181 160 88 q 44 401 44 275 q 102 624 44 528 q 265 772 160 719 q 511 824 371 824 q 757 772 651 824 q 920 624 863 719 q 978 403 978 529 q 920 182 978 276 q 757 37 863 88 q 511 -14 651 -14 m 511 175 q 640 239 592 175 q 689 408 689 303 q 642 574 689 514 q 514 635 594 635 q 382 575 431 635 q 333 408 333 515 q 382 239 333 303 q 511 175 431 175 m 717 1063 q 750 1085 739 1074 q 761 1117 761 1097 q 745 1151 761 1139 q 701 1164 729 1164 q 615 1138 657 1164 l 592 1210 q 659 1250 621 1235 q 739 1265 697 1265 q 840 1233 801 1265 q 878 1144 878 1200 q 841 1053 878 1090 q 736 1001 804 1017 l 717 1063 m 403 1092 l 622 1092 l 740 896 l 593 896 l 511 994 l 429 896 l 282 896 l 403 1092 z "},"Ỗ":{"ha":1022,"x_min":44,"x_max":978,"o":"m 511 -14 q 265 37 371 -14 q 102 181 160 88 q 44 401 44 275 q 102 624 44 528 q 265 772 160 719 q 511 824 371 824 q 757 772 651 824 q 920 624 863 719 q 978 403 978 529 q 920 182 978 276 q 757 37 863 88 q 511 -14 651 -14 m 511 175 q 640 239 592 175 q 689 408 689 303 q 642 574 689 514 q 514 635 594 635 q 382 575 431 635 q 333 408 333 515 q 382 239 333 303 q 511 175 431 175 m 621 1154 q 572 1162 594 1154 q 514 1186 550 1169 q 465 1207 483 1200 q 429 1214 447 1214 q 368 1154 374 1214 l 253 1154 q 301 1300 261 1254 q 403 1346 342 1346 q 451 1338 429 1346 q 507 1314 474 1331 q 556 1293 538 1300 q 593 1286 574 1286 q 654 1338 649 1286 l 769 1338 q 621 1154 754 1154 m 403 1092 l 622 1092 l 740 896 l 593 896 l 511 994 l 429 896 l 282 896 l 403 1092 z "},"Ȍ":{"ha":1022,"x_min":44,"x_max":978,"o":"m 511 -14 q 265 37 371 -14 q 102 181 160 88 q 44 401 44 275 q 102 624 44 528 q 265 772 160 719 q 511 824 371 824 q 757 772 651 824 q 920 624 863 719 q 978 403 978 529 q 920 182 978 276 q 757 37 863 88 q 511 -14 651 -14 m 511 175 q 640 239 592 175 q 689 408 689 303 q 642 574 689 514 q 514 635 594 635 q 382 575 431 635 q 333 408 333 515 q 382 239 333 303 q 511 175 431 175 m 154 1142 l 372 1142 l 429 888 l 293 888 l 154 1142 m 453 1142 l 671 1142 l 728 888 l 590 888 l 453 1142 z "},"Ö":{"ha":1022,"x_min":44,"x_max":978,"o":"m 511 -14 q 265 37 371 -14 q 102 181 160 88 q 44 401 44 275 q 102 624 44 528 q 265 772 160 719 q 511 824 371 824 q 757 772 651 824 q 920 624 863 719 q 978 403 978 529 q 920 182 978 276 q 757 37 863 88 q 511 -14 651 -14 m 511 175 q 640 239 592 175 q 689 408 689 303 q 642 574 689 514 q 514 635 594 635 q 382 575 431 635 q 333 408 333 515 q 382 239 333 303 q 511 175 431 175 m 326 924 q 237 956 274 924 q 200 1044 200 988 q 237 1133 200 1101 q 326 1165 274 1165 q 416 1133 379 1165 q 453 1044 453 1101 q 416 956 453 988 q 326 924 379 924 m 696 924 q 606 956 643 924 q 569 1044 569 988 q 606 1133 569 1101 q 696 1165 643 1165 q 785 1133 749 1165 q 822 1044 822 1101 q 785 956 822 988 q 696 924 749 924 z "},"Ȫ":{"ha":1022,"x_min":44,"x_max":978,"o":"m 511 -14 q 265 37 371 -14 q 102 181 160 88 q 44 401 44 275 q 102 624 44 528 q 265 772 160 719 q 511 824 371 824 q 757 772 651 824 q 920 624 863 719 q 978 403 978 529 q 920 182 978 276 q 757 37 863 88 q 511 -14 651 -14 m 511 175 q 640 239 592 175 q 689 408 689 303 q 642 574 689 514 q 514 635 594 635 q 382 575 431 635 q 333 408 333 515 q 382 239 333 303 q 511 175 431 175 m 326 924 q 237 956 274 924 q 200 1044 200 988 q 237 1133 200 1101 q 326 1165 274 1165 q 416 1133 379 1165 q 453 1044 453 1101 q 416 956 453 988 q 326 924 379 924 m 696 924 q 606 956 643 924 q 569 1044 569 988 q 606 1133 569 1101 q 696 1165 643 1165 q 785 1133 749 1165 q 822 1044 822 1101 q 785 956 822 988 q 696 924 749 924 m 317 1340 l 706 1340 l 706 1213 l 317 1213 l 317 1340 z "},"Ȯ":{"ha":1022,"x_min":44,"x_max":978,"o":"m 511 -14 q 265 37 371 -14 q 102 181 160 88 q 44 401 44 275 q 102 624 44 528 q 265 772 160 719 q 511 824 371 824 q 757 772 651 824 q 920 624 863 719 q 978 403 978 529 q 920 182 978 276 q 757 37 863 88 q 511 -14 651 -14 m 511 175 q 640 239 592 175 q 689 408 689 303 q 642 574 689 514 q 514 635 594 635 q 382 575 431 635 q 333 408 333 515 q 382 239 333 303 q 511 175 431 175 m 511 924 q 415 958 451 924 q 379 1051 379 993 q 415 1143 379 1108 q 511 1178 451 1178 q 608 1142 572 1178 q 643 1049 643 1107 q 606 958 643 992 q 511 924 569 924 z "},"Ȱ":{"ha":1022,"x_min":44,"x_max":978,"o":"m 511 -14 q 265 37 371 -14 q 102 181 160 88 q 44 401 44 275 q 102 624 44 528 q 265 772 160 719 q 511 824 371 824 q 757 772 651 824 q 920 624 863 719 q 978 403 978 529 q 920 182 978 276 q 757 37 863 88 q 511 -14 651 -14 m 511 175 q 640 239 592 175 q 689 408 689 303 q 642 574 689 514 q 514 635 594 635 q 382 575 431 635 q 333 408 333 515 q 382 239 333 303 q 511 175 431 175 m 511 924 q 415 958 451 924 q 379 1051 379 993 q 415 1143 379 1108 q 511 1178 451 1178 q 608 1142 572 1178 q 643 1049 643 1107 q 606 958 643 992 q 511 924 569 924 m 317 1353 l 706 1353 l 706 1225 l 317 1225 l 317 1353 z "},"Ọ":{"ha":1022,"x_min":44,"x_max":978,"o":"m 511 -14 q 265 37 371 -14 q 102 181 160 88 q 44 401 44 275 q 102 624 44 528 q 265 772 160 719 q 511 824 371 824 q 757 772 651 824 q 920 624 863 719 q 978 403 978 529 q 920 182 978 276 q 757 37 863 88 q 511 -14 651 -14 m 511 175 q 640 239 592 175 q 689 408 689 303 q 642 574 689 514 q 514 635 594 635 q 382 575 431 635 q 333 408 333 515 q 382 239 333 303 q 511 175 431 175 m 511 -296 q 425 -266 457 -296 q 393 -187 393 -236 q 425 -110 393 -139 q 511 -81 457 -81 q 597 -110 565 -81 q 629 -190 629 -140 q 597 -267 629 -237 q 511 -296 564 -296 z "},"Ò":{"ha":1022,"x_min":44,"x_max":978,"o":"m 511 -14 q 265 37 371 -14 q 102 181 160 88 q 44 401 44 275 q 102 624 44 528 q 265 772 160 719 q 511 824 371 824 q 757 772 651 824 q 920 624 863 719 q 978 403 978 529 q 920 182 978 276 q 757 37 863 88 q 511 -14 651 -14 m 511 175 q 640 239 592 175 q 689 408 689 303 q 642 574 689 514 q 514 635 594 635 q 382 575 431 635 q 333 408 333 515 q 382 239 333 303 q 511 175 431 175 m 301 1142 l 519 1142 l 575 888 l 439 888 l 301 1142 z "},"Ỏ":{"ha":1022,"x_min":44,"x_max":978,"o":"m 511 -14 q 265 37 371 -14 q 102 181 160 88 q 44 401 44 275 q 102 624 44 528 q 265 772 160 719 q 511 824 371 824 q 757 772 651 824 q 920 624 863 719 q 978 403 978 529 q 920 182 978 276 q 757 37 863 88 q 511 -14 651 -14 m 511 175 q 640 239 592 175 q 689 408 689 303 q 642 574 689 514 q 514 635 594 635 q 382 575 431 635 q 333 408 333 515 q 382 239 333 303 q 511 175 431 175 m 481 932 q 514 955 503 943 q 525 986 525 967 q 509 1021 525 1008 q 465 1033 493 1033 q 379 1007 421 1033 l 356 1079 q 423 1119 385 1104 q 503 1135 461 1135 q 603 1102 565 1135 q 642 1014 642 1069 q 605 923 642 960 q 500 871 568 886 l 481 932 z "},"Ơ":{"ha":1022,"x_min":44,"x_max":978,"o":"m 828 726 q 939 588 900 671 q 978 403 978 506 q 920 182 978 276 q 757 37 863 88 q 511 -14 651 -14 q 265 37 371 -14 q 102 181 160 88 q 44 401 44 275 q 102 624 44 528 q 264 772 160 719 q 507 824 368 824 q 593 817 549 824 q 668 811 646 811 q 740 836 714 811 q 768 911 765 861 l 926 911 q 828 726 918 779 m 511 175 q 640 239 592 175 q 689 408 689 303 q 642 574 689 514 q 514 635 594 635 q 382 575 431 635 q 333 408 333 515 q 382 239 333 303 q 511 175 431 175 z "},"Ớ":{"ha":1022,"x_min":44,"x_max":978,"o":"m 828 726 q 939 588 900 671 q 978 403 978 506 q 920 182 978 276 q 757 37 863 88 q 511 -14 651 -14 q 265 37 371 -14 q 102 181 160 88 q 44 401 44 275 q 102 624 44 528 q 264 772 160 719 q 507 824 368 824 q 593 817 549 824 q 668 811 646 811 q 740 836 714 811 q 768 911 765 861 l 926 911 q 828 726 918 779 m 511 175 q 640 239 592 175 q 689 408 689 303 q 642 574 689 514 q 514 635 594 635 q 382 575 431 635 q 333 408 333 515 q 382 239 333 303 q 511 175 431 175 m 499 1142 l 717 1142 l 579 888 l 443 888 l 499 1142 z "},"Ợ":{"ha":1022,"x_min":44,"x_max":978,"o":"m 828 726 q 939 588 900 671 q 978 403 978 506 q 920 182 978 276 q 757 37 863 88 q 511 -14 651 -14 q 265 37 371 -14 q 102 181 160 88 q 44 401 44 275 q 102 624 44 528 q 264 772 160 719 q 507 824 368 824 q 593 817 549 824 q 668 811 646 811 q 740 836 714 811 q 768 911 765 861 l 926 911 q 828 726 918 779 m 511 175 q 640 239 592 175 q 689 408 689 303 q 642 574 689 514 q 514 635 594 635 q 382 575 431 635 q 333 408 333 515 q 382 239 333 303 q 511 175 431 175 m 511 -296 q 425 -266 457 -296 q 393 -187 393 -236 q 425 -110 393 -139 q 511 -81 457 -81 q 597 -110 565 -81 q 629 -190 629 -140 q 597 -267 629 -237 q 511 -296 564 -296 z "},"Ờ":{"ha":1022,"x_min":44,"x_max":978,"o":"m 828 726 q 939 588 900 671 q 978 403 978 506 q 920 182 978 276 q 757 37 863 88 q 511 -14 651 -14 q 265 37 371 -14 q 102 181 160 88 q 44 401 44 275 q 102 624 44 528 q 264 772 160 719 q 507 824 368 824 q 593 817 549 824 q 668 811 646 811 q 740 836 714 811 q 768 911 765 861 l 926 911 q 828 726 918 779 m 511 175 q 640 239 592 175 q 689 408 689 303 q 642 574 689 514 q 514 635 594 635 q 382 575 431 635 q 333 408 333 515 q 382 239 333 303 q 511 175 431 175 m 301 1142 l 519 1142 l 575 888 l 439 888 l 301 1142 z "},"Ở":{"ha":1022,"x_min":44,"x_max":978,"o":"m 828 726 q 939 588 900 671 q 978 403 978 506 q 920 182 978 276 q 757 37 863 88 q 511 -14 651 -14 q 265 37 371 -14 q 102 181 160 88 q 44 401 44 275 q 102 624 44 528 q 264 772 160 719 q 507 824 368 824 q 593 817 549 824 q 668 811 646 811 q 740 836 714 811 q 768 911 765 861 l 926 911 q 828 726 918 779 m 511 175 q 640 239 592 175 q 689 408 689 303 q 642 574 689 514 q 514 635 594 635 q 382 575 431 635 q 333 408 333 515 q 382 239 333 303 q 511 175 431 175 m 481 932 q 514 955 503 943 q 525 986 525 967 q 509 1021 525 1008 q 465 1033 493 1033 q 379 1007 421 1033 l 356 1079 q 423 1119 385 1104 q 503 1135 461 1135 q 603 1102 565 1135 q 642 1014 642 1069 q 605 923 642 960 q 500 871 568 886 l 481 932 z "},"Ỡ":{"ha":1022,"x_min":44,"x_max":978,"o":"m 828 726 q 939 588 900 671 q 978 403 978 506 q 920 182 978 276 q 757 37 863 88 q 511 -14 651 -14 q 265 37 371 -14 q 102 181 160 88 q 44 401 44 275 q 102 624 44 528 q 264 772 160 719 q 507 824 368 824 q 593 817 549 824 q 668 811 646 811 q 740 836 714 811 q 768 911 765 861 l 926 911 q 828 726 918 779 m 511 175 q 640 239 592 175 q 689 408 689 303 q 642 574 689 514 q 514 635 594 635 q 382 575 431 635 q 333 408 333 515 q 382 239 333 303 q 511 175 431 175 m 615 904 q 552 915 583 904 q 482 944 521 925 q 401 972 426 972 q 340 913 346 972 l 225 913 q 283 1085 233 1031 q 407 1140 333 1140 q 469 1130 439 1140 q 539 1100 499 1119 q 621 1072 597 1072 q 682 1132 676 1072 l 797 1132 q 739 959 789 1014 q 615 904 689 904 z "},"Ő":{"ha":1022,"x_min":44,"x_max":978,"o":"m 511 -14 q 265 37 371 -14 q 102 181 160 88 q 44 401 44 275 q 102 624 44 528 q 265 772 160 719 q 511 824 371 824 q 757 772 651 824 q 920 624 863 719 q 978 403 978 529 q 920 182 978 276 q 757 37 863 88 q 511 -14 651 -14 m 511 175 q 640 239 592 175 q 689 408 689 303 q 642 574 689 514 q 514 635 594 635 q 382 575 431 635 q 333 408 333 515 q 382 239 333 303 q 511 175 431 175 m 338 1142 l 556 1142 l 418 888 l 281 888 l 338 1142 m 636 1142 l 854 1142 l 715 888 l 579 888 l 636 1142 z "},"Ȏ":{"ha":1022,"x_min":44,"x_max":978,"o":"m 511 -14 q 265 37 371 -14 q 102 181 160 88 q 44 401 44 275 q 102 624 44 528 q 265 772 160 719 q 511 824 371 824 q 757 772 651 824 q 920 624 863 719 q 978 403 978 529 q 920 182 978 276 q 757 37 863 88 q 511 -14 651 -14 m 511 175 q 640 239 592 175 q 689 408 689 303 q 642 574 689 514 q 514 635 594 635 q 382 575 431 635 q 333 408 333 515 q 382 239 333 303 q 511 175 431 175 m 278 869 q 342 1046 282 986 q 511 1106 403 1106 q 680 1046 619 1106 q 744 869 740 986 l 606 869 q 511 961 593 961 q 447 938 471 961 q 417 869 422 914 l 278 869 z "},"Ō":{"ha":1022,"x_min":44,"x_max":978,"o":"m 511 -14 q 265 37 371 -14 q 102 181 160 88 q 44 401 44 275 q 102 624 44 528 q 265 772 160 719 q 511 824 371 824 q 757 772 651 824 q 920 624 863 719 q 978 403 978 529 q 920 182 978 276 q 757 37 863 88 q 511 -14 651 -14 m 511 175 q 640 239 592 175 q 689 408 689 303 q 642 574 689 514 q 514 635 594 635 q 382 575 431 635 q 333 408 333 515 q 382 239 333 303 q 511 175 431 175 m 317 1026 l 706 1026 l 706 899 l 317 899 l 317 1026 z "},"Ṓ":{"ha":1022,"x_min":44,"x_max":978,"o":"m 511 -14 q 265 37 371 -14 q 102 181 160 88 q 44 401 44 275 q 102 624 44 528 q 265 772 160 719 q 511 824 371 824 q 757 772 651 824 q 920 624 863 719 q 978 403 978 529 q 920 182 978 276 q 757 37 863 88 q 511 -14 651 -14 m 511 175 q 640 239 592 175 q 689 408 689 303 q 642 574 689 514 q 514 635 594 635 q 382 575 431 635 q 333 408 333 515 q 382 239 333 303 q 511 175 431 175 m 317 1026 l 706 1026 l 706 899 l 317 899 l 317 1026 m 499 1358 l 717 1358 l 579 1104 l 443 1104 l 499 1358 z "},"Ṑ":{"ha":1022,"x_min":44,"x_max":978,"o":"m 511 -14 q 265 37 371 -14 q 102 181 160 88 q 44 401 44 275 q 102 624 44 528 q 265 772 160 719 q 511 824 371 824 q 757 772 651 824 q 920 624 863 719 q 978 403 978 529 q 920 182 978 276 q 757 37 863 88 q 511 -14 651 -14 m 511 175 q 640 239 592 175 q 689 408 689 303 q 642 574 689 514 q 514 635 594 635 q 382 575 431 635 q 333 408 333 515 q 382 239 333 303 q 511 175 431 175 m 317 1026 l 706 1026 l 706 899 l 317 899 l 317 1026 m 301 1358 l 519 1358 l 575 1104 l 439 1104 l 301 1358 z "},"Ǫ":{"ha":1022,"x_min":44,"x_max":978,"o":"m 978 403 q 872 119 978 229 q 585 -10 767 10 q 547 -65 558 -42 q 535 -111 535 -87 q 555 -152 535 -136 q 610 -168 575 -168 q 667 -160 638 -168 l 667 -256 q 550 -281 604 -281 q 453 -247 488 -281 q 418 -162 418 -214 q 500 -14 418 -85 q 260 39 363 -12 q 101 183 157 90 q 44 401 44 276 q 102 624 44 528 q 265 772 160 719 q 511 824 371 824 q 757 772 651 824 q 920 624 863 719 q 978 403 978 529 m 333 408 q 382 239 333 303 q 511 175 431 175 q 640 239 592 175 q 689 408 689 303 q 642 574 689 514 q 514 635 594 635 q 382 575 431 635 q 333 408 333 515 z "},"Ø":{"ha":978,"x_min":22,"x_max":956,"o":"m 815 719 q 919 583 883 664 q 956 403 956 501 q 898 182 956 276 q 735 37 840 88 q 489 -14 629 -14 q 288 18 376 -14 l 215 -76 l 114 -4 l 175 78 q 62 215 101 132 q 22 401 22 297 q 80 624 22 528 q 243 772 138 719 q 489 824 349 824 q 707 783 611 824 l 764 858 l 867 786 l 815 719 m 311 408 q 333 286 311 336 l 578 611 q 489 635 542 635 q 359 574 407 633 q 311 408 311 514 m 489 175 q 618 239 569 175 q 667 408 667 303 q 654 504 667 463 l 417 190 q 489 175 451 175 z "},"Ǿ":{"ha":978,"x_min":22,"x_max":956,"o":"m 815 719 q 919 583 883 664 q 956 403 956 501 q 898 182 956 276 q 735 37 840 88 q 489 -14 629 -14 q 288 18 376 -14 l 215 -76 l 114 -4 l 175 78 q 62 215 101 132 q 22 401 22 297 q 80 624 22 528 q 243 772 138 719 q 489 824 349 824 q 707 783 611 824 l 764 858 l 867 786 l 815 719 m 311 408 q 333 286 311 336 l 578 611 q 489 635 542 635 q 359 574 407 633 q 311 408 311 514 m 489 175 q 618 239 569 175 q 667 408 667 303 q 654 504 667 463 l 417 190 q 489 175 451 175 m 476 1142 l 694 1142 l 557 888 l 421 888 l 476 1142 z "},"Õ":{"ha":1022,"x_min":44,"x_max":978,"o":"m 511 -14 q 265 37 371 -14 q 102 181 160 88 q 44 401 44 275 q 102 624 44 528 q 265 772 160 719 q 511 824 371 824 q 757 772 651 824 q 920 624 863 719 q 978 403 978 529 q 920 182 978 276 q 757 37 863 88 q 511 -14 651 -14 m 511 175 q 640 239 592 175 q 689 408 689 303 q 642 574 689 514 q 514 635 594 635 q 382 575 431 635 q 333 408 333 515 q 382 239 333 303 q 511 175 431 175 m 615 904 q 552 915 583 904 q 482 944 521 925 q 401 972 426 972 q 340 913 346 972 l 225 913 q 283 1085 233 1031 q 407 1140 333 1140 q 469 1130 439 1140 q 539 1100 499 1119 q 621 1072 597 1072 q 682 1132 676 1072 l 797 1132 q 739 959 789 1014 q 615 904 689 904 z "},"Ṍ":{"ha":1022,"x_min":44,"x_max":978,"o":"m 511 -14 q 265 37 371 -14 q 102 181 160 88 q 44 401 44 275 q 102 624 44 528 q 265 772 160 719 q 511 824 371 824 q 757 772 651 824 q 920 624 863 719 q 978 403 978 529 q 920 182 978 276 q 757 37 863 88 q 511 -14 651 -14 m 511 175 q 640 239 592 175 q 689 408 689 303 q 642 574 689 514 q 514 635 594 635 q 382 575 431 635 q 333 408 333 515 q 382 239 333 303 q 511 175 431 175 m 615 904 q 552 915 583 904 q 482 944 521 925 q 401 972 426 972 q 340 913 346 972 l 225 913 q 283 1085 233 1031 q 407 1140 333 1140 q 469 1130 439 1140 q 539 1100 499 1119 q 621 1072 597 1072 q 682 1132 676 1072 l 797 1132 q 739 959 789 1014 q 615 904 689 904 m 499 1431 l 717 1431 l 579 1176 l 443 1176 l 499 1431 z "},"Ṏ":{"ha":1022,"x_min":44,"x_max":978,"o":"m 511 -14 q 265 37 371 -14 q 102 181 160 88 q 44 401 44 275 q 102 624 44 528 q 265 772 160 719 q 511 824 371 824 q 757 772 651 824 q 920 624 863 719 q 978 403 978 529 q 920 182 978 276 q 757 37 863 88 q 511 -14 651 -14 m 511 175 q 640 239 592 175 q 689 408 689 303 q 642 574 689 514 q 514 635 594 635 q 382 575 431 635 q 333 408 333 515 q 382 239 333 303 q 511 175 431 175 m 615 904 q 552 915 583 904 q 482 944 521 925 q 401 972 426 972 q 340 913 346 972 l 225 913 q 283 1085 233 1031 q 407 1140 333 1140 q 469 1130 439 1140 q 539 1100 499 1119 q 621 1072 597 1072 q 682 1132 676 1072 l 797 1132 q 739 959 789 1014 q 615 904 689 904 m 326 1213 q 237 1244 274 1213 q 200 1333 200 1276 q 237 1422 200 1390 q 326 1454 274 1454 q 416 1422 379 1454 q 453 1333 453 1390 q 416 1244 453 1276 q 326 1213 379 1213 m 696 1213 q 606 1244 643 1213 q 569 1333 569 1276 q 606 1422 569 1390 q 696 1454 643 1454 q 785 1422 749 1454 q 822 1333 822 1390 q 785 1244 822 1276 q 696 1213 749 1213 z "},"Ȭ":{"ha":1022,"x_min":44,"x_max":978,"o":"m 511 -14 q 265 37 371 -14 q 102 181 160 88 q 44 401 44 275 q 102 624 44 528 q 265 772 160 719 q 511 824 371 824 q 757 772 651 824 q 920 624 863 719 q 978 403 978 529 q 920 182 978 276 q 757 37 863 88 q 511 -14 651 -14 m 511 175 q 640 239 592 175 q 689 408 689 303 q 642 574 689 514 q 514 635 594 635 q 382 575 431 635 q 333 408 333 515 q 382 239 333 303 q 511 175 431 175 m 615 904 q 552 915 583 904 q 482 944 521 925 q 401 972 426 972 q 340 913 346 972 l 225 913 q 283 1085 233 1031 q 407 1140 333 1140 q 469 1130 439 1140 q 539 1100 499 1119 q 621 1072 597 1072 q 682 1132 676 1072 l 797 1132 q 739 959 789 1014 q 615 904 689 904 m 317 1315 l 706 1315 l 706 1188 l 317 1188 l 317 1315 z "},"Œ":{"ha":1454,"x_min":44,"x_max":1379,"o":"m 539 0 q 278 49 390 0 q 106 188 167 97 q 44 401 44 279 q 106 616 44 524 q 278 759 167 708 q 539 810 390 810 l 1374 810 l 1374 517 l 1207 517 l 1207 643 l 935 643 l 935 489 l 1017 489 l 1017 565 l 1156 565 l 1156 260 l 1018 260 l 1018 336 l 935 336 l 935 168 l 1213 168 l 1213 311 l 1379 311 l 1379 0 l 539 0 m 656 167 l 656 643 l 581 643 q 400 580 467 642 q 333 408 333 518 q 401 233 333 299 q 581 167 468 167 l 656 167 z "},"P":{"ha":908,"x_min":69,"x_max":883,"o":"m 69 167 l 139 167 l 139 643 l 69 643 l 69 810 l 524 810 q 794 752 704 810 q 883 563 883 694 q 800 369 883 429 q 551 308 717 308 l 471 308 l 471 475 l 510 475 q 574 496 551 475 q 597 558 597 517 q 574 622 597 600 q 510 643 551 643 l 417 643 l 417 167 l 500 167 l 500 0 l 69 0 l 69 167 z "},"Ṗ":{"ha":908,"x_min":69,"x_max":883,"o":"m 69 167 l 139 167 l 139 643 l 69 643 l 69 810 l 524 810 q 794 752 704 810 q 883 563 883 694 q 800 369 883 429 q 551 308 717 308 l 471 308 l 471 475 l 510 475 q 574 496 551 475 q 597 558 597 517 q 574 622 597 600 q 510 643 551 643 l 417 643 l 417 167 l 500 167 l 500 0 l 69 0 l 69 167 m 464 924 q 368 958 404 924 q 332 1051 332 993 q 368 1143 332 1108 q 464 1178 404 1178 q 560 1142 525 1178 q 596 1049 596 1107 q 559 958 596 992 q 464 924 522 924 z "},"Þ":{"ha":901,"x_min":69,"x_max":876,"o":"m 553 583 q 800 540 724 583 q 876 396 876 497 q 801 254 876 296 q 553 213 725 213 l 471 213 l 471 310 l 493 310 q 590 396 590 310 q 493 482 590 482 l 417 482 l 417 167 l 500 167 l 500 0 l 69 0 l 69 167 l 139 167 l 139 643 l 69 643 l 69 810 l 500 810 l 500 643 l 417 643 l 417 583 l 553 583 z "},"Q":{"ha":1022,"x_min":44,"x_max":978,"o":"m 783 -271 q 385 -3 485 -271 q 135 135 226 29 q 44 401 44 242 q 102 624 44 528 q 265 772 160 719 q 511 824 371 824 q 757 772 651 824 q 920 624 863 719 q 978 403 978 529 q 884 132 978 239 q 626 -4 790 25 q 685 -76 638 -54 q 799 -99 733 -99 q 943 -71 875 -99 l 943 -242 q 783 -271 875 -271 m 511 175 q 640 240 592 175 q 689 408 689 304 q 642 574 689 514 q 514 635 594 635 q 382 575 431 635 q 333 408 333 515 q 382 240 333 304 q 511 175 431 175 z "},"R":{"ha":1021,"x_min":69,"x_max":971,"o":"m 69 167 l 139 167 l 139 643 l 69 643 l 69 810 l 579 810 q 841 750 744 810 q 938 560 938 690 q 788 347 938 407 l 901 168 l 971 168 l 971 0 l 694 0 l 518 314 l 474 314 l 474 481 l 564 481 q 628 503 606 481 q 651 568 651 525 q 628 624 651 604 q 564 643 606 643 l 417 643 l 417 167 l 481 167 l 481 0 l 69 0 l 69 167 z "},"Ŕ":{"ha":1021,"x_min":69,"x_max":971,"o":"m 69 167 l 139 167 l 139 643 l 69 643 l 69 810 l 579 810 q 841 750 744 810 q 938 560 938 690 q 788 347 938 407 l 901 168 l 971 168 l 971 0 l 694 0 l 518 314 l 474 314 l 474 481 l 564 481 q 628 503 606 481 q 651 568 651 525 q 628 624 651 604 q 564 643 606 643 l 417 643 l 417 167 l 481 167 l 481 0 l 69 0 l 69 167 m 506 1142 l 724 1142 l 586 888 l 450 888 l 506 1142 z "},"Ř":{"ha":1021,"x_min":69,"x_max":971,"o":"m 69 167 l 139 167 l 139 643 l 69 643 l 69 810 l 579 810 q 841 750 744 810 q 938 560 938 690 q 788 347 938 407 l 901 168 l 971 168 l 971 0 l 694 0 l 518 314 l 474 314 l 474 481 l 564 481 q 628 503 606 481 q 651 568 651 525 q 628 624 651 604 q 564 643 606 643 l 417 643 l 417 167 l 481 167 l 481 0 l 69 0 l 69 167 m 285 1150 l 444 1150 l 525 992 l 607 1150 l 750 1150 l 658 896 l 393 896 l 285 1150 z "},"Ŗ":{"ha":1021,"x_min":69,"x_max":971,"o":"m 69 167 l 139 167 l 139 643 l 69 643 l 69 810 l 579 810 q 841 750 744 810 q 938 560 938 690 q 788 347 938 407 l 901 168 l 971 168 l 971 0 l 694 0 l 518 314 l 474 314 l 474 481 l 564 481 q 628 503 606 481 q 651 568 651 525 q 628 624 651 604 q 564 643 606 643 l 417 643 l 417 167 l 481 167 l 481 0 l 69 0 l 69 167 m 425 -374 q 492 -344 471 -371 q 513 -258 513 -318 l 411 -258 l 411 -81 l 629 -81 l 629 -218 q 583 -394 629 -339 q 425 -450 538 -450 l 425 -374 z "},"Ȑ":{"ha":1021,"x_min":69,"x_max":971,"o":"m 69 167 l 139 167 l 139 643 l 69 643 l 69 810 l 579 810 q 841 750 744 810 q 938 560 938 690 q 788 347 938 407 l 901 168 l 971 168 l 971 0 l 694 0 l 518 314 l 474 314 l 474 481 l 564 481 q 628 503 606 481 q 651 568 651 525 q 628 624 651 604 q 564 643 606 643 l 417 643 l 417 167 l 481 167 l 481 0 l 69 0 l 69 167 m 161 1142 l 379 1142 l 436 888 l 300 888 l 161 1142 m 460 1142 l 678 1142 l 735 888 l 597 888 l 460 1142 z "},"Ṛ":{"ha":1021,"x_min":69,"x_max":971,"o":"m 69 167 l 139 167 l 139 643 l 69 643 l 69 810 l 579 810 q 841 750 744 810 q 938 560 938 690 q 788 347 938 407 l 901 168 l 971 168 l 971 0 l 694 0 l 518 314 l 474 314 l 474 481 l 564 481 q 628 503 606 481 q 651 568 651 525 q 628 624 651 604 q 564 643 606 643 l 417 643 l 417 167 l 481 167 l 481 0 l 69 0 l 69 167 m 521 -296 q 435 -266 467 -296 q 403 -187 403 -236 q 435 -110 403 -139 q 521 -81 467 -81 q 607 -110 575 -81 q 639 -190 639 -140 q 606 -267 639 -237 q 521 -296 574 -296 z "},"Ȓ":{"ha":1021,"x_min":69,"x_max":971,"o":"m 69 167 l 139 167 l 139 643 l 69 643 l 69 810 l 579 810 q 841 750 744 810 q 938 560 938 690 q 788 347 938 407 l 901 168 l 971 168 l 971 0 l 694 0 l 518 314 l 474 314 l 474 481 l 564 481 q 628 503 606 481 q 651 568 651 525 q 628 624 651 604 q 564 643 606 643 l 417 643 l 417 167 l 481 167 l 481 0 l 69 0 l 69 167 m 285 869 q 349 1046 289 986 q 518 1106 410 1106 q 687 1046 626 1106 q 751 869 747 986 l 613 869 q 518 961 600 961 q 453 938 478 961 q 424 869 429 914 l 285 869 z "},"Ṟ":{"ha":1021,"x_min":69,"x_max":971,"o":"m 69 167 l 139 167 l 139 643 l 69 643 l 69 810 l 579 810 q 841 750 744 810 q 938 560 938 690 q 788 347 938 407 l 901 168 l 971 168 l 971 0 l 694 0 l 518 314 l 474 314 l 474 481 l 564 481 q 628 503 606 481 q 651 568 651 525 q 628 624 651 604 q 564 643 606 643 l 417 643 l 417 167 l 481 167 l 481 0 l 69 0 l 69 167 m 326 -122 l 715 -122 l 715 -250 l 326 -250 l 326 -122 z "},"S":{"ha":856,"x_min":63,"x_max":800,"o":"m 538 522 q 737 430 674 494 q 800 249 800 365 q 722 55 800 124 q 513 -14 644 -14 q 367 12 442 -14 q 250 82 292 38 l 250 0 l 69 0 l 69 276 l 229 276 q 326 174 267 211 q 458 138 385 138 q 517 153 494 138 q 539 200 539 169 q 515 251 539 233 q 432 282 490 269 l 321 306 q 124 401 186 336 q 63 575 63 465 q 97 703 63 647 q 193 792 131 760 q 338 824 256 824 q 593 733 496 824 l 593 810 l 760 810 l 760 571 l 607 571 q 529 643 579 614 q 417 672 479 672 q 343 617 343 672 q 374 567 343 585 q 482 533 406 549 l 538 522 z "},"Ś":{"ha":856,"x_min":63,"x_max":800,"o":"m 538 522 q 737 430 674 494 q 800 249 800 365 q 722 55 800 124 q 513 -14 644 -14 q 367 12 442 -14 q 250 82 292 38 l 250 0 l 69 0 l 69 276 l 229 276 q 326 174 267 211 q 458 138 385 138 q 517 153 494 138 q 539 200 539 169 q 515 251 539 233 q 432 282 490 269 l 321 306 q 124 401 186 336 q 63 575 63 465 q 97 703 63 647 q 193 792 131 760 q 338 824 256 824 q 593 733 496 824 l 593 810 l 760 810 l 760 571 l 607 571 q 529 643 579 614 q 417 672 479 672 q 343 617 343 672 q 374 567 343 585 q 482 533 406 549 l 538 522 m 449 1142 l 667 1142 l 529 888 l 393 888 l 449 1142 z "},"Ṥ":{"ha":856,"x_min":63,"x_max":800,"o":"m 538 522 q 737 430 674 494 q 800 249 800 365 q 722 55 800 124 q 513 -14 644 -14 q 367 12 442 -14 q 250 82 292 38 l 250 0 l 69 0 l 69 276 l 229 276 q 326 174 267 211 q 458 138 385 138 q 517 153 494 138 q 539 200 539 169 q 515 251 539 233 q 432 282 490 269 l 321 306 q 124 401 186 336 q 63 575 63 465 q 97 703 63 647 q 193 792 131 760 q 338 824 256 824 q 593 733 496 824 l 593 810 l 760 810 l 760 571 l 607 571 q 529 643 579 614 q 417 672 479 672 q 343 617 343 672 q 374 567 343 585 q 482 533 406 549 l 538 522 m 449 1142 l 667 1142 l 529 888 l 393 888 l 449 1142 m 461 1289 q 365 1324 401 1289 q 329 1417 329 1358 q 365 1508 329 1474 q 461 1543 401 1543 q 558 1508 522 1543 q 593 1414 593 1472 q 556 1323 593 1357 q 461 1289 519 1289 z "},"Š":{"ha":856,"x_min":63,"x_max":800,"o":"m 538 522 q 737 430 674 494 q 800 249 800 365 q 722 55 800 124 q 513 -14 644 -14 q 367 12 442 -14 q 250 82 292 38 l 250 0 l 69 0 l 69 276 l 229 276 q 326 174 267 211 q 458 138 385 138 q 517 153 494 138 q 539 200 539 169 q 515 251 539 233 q 432 282 490 269 l 321 306 q 124 401 186 336 q 63 575 63 465 q 97 703 63 647 q 193 792 131 760 q 338 824 256 824 q 593 733 496 824 l 593 810 l 760 810 l 760 571 l 607 571 q 529 643 579 614 q 417 672 479 672 q 343 617 343 672 q 374 567 343 585 q 482 533 406 549 l 538 522 m 228 1150 l 388 1150 l 468 992 l 550 1150 l 693 1150 l 601 896 l 336 896 l 228 1150 z "},"Ṧ":{"ha":856,"x_min":63,"x_max":800,"o":"m 538 522 q 737 430 674 494 q 800 249 800 365 q 722 55 800 124 q 513 -14 644 -14 q 367 12 442 -14 q 250 82 292 38 l 250 0 l 69 0 l 69 276 l 229 276 q 326 174 267 211 q 458 138 385 138 q 517 153 494 138 q 539 200 539 169 q 515 251 539 233 q 432 282 490 269 l 321 306 q 124 401 186 336 q 63 575 63 465 q 97 703 63 647 q 193 792 131 760 q 338 824 256 824 q 593 733 496 824 l 593 810 l 760 810 l 760 571 l 607 571 q 529 643 579 614 q 417 672 479 672 q 343 617 343 672 q 374 567 343 585 q 482 533 406 549 l 538 522 m 228 1150 l 388 1150 l 468 992 l 550 1150 l 693 1150 l 601 896 l 336 896 l 228 1150 m 461 1250 q 365 1285 401 1250 q 329 1378 329 1319 q 365 1469 329 1435 q 461 1504 401 1504 q 558 1469 522 1504 q 593 1375 593 1433 q 556 1284 593 1318 q 461 1250 519 1250 z "},"Ş":{"ha":856,"x_min":63,"x_max":800,"o":"m 513 -14 q 488 -12 496 -14 l 471 -78 q 548 -117 521 -86 q 575 -186 575 -147 q 535 -268 575 -240 q 436 -296 494 -296 q 370 -286 403 -296 q 313 -258 338 -276 l 313 -199 q 390 -219 357 -219 q 439 -174 439 -219 q 419 -140 439 -151 q 357 -126 400 -129 l 408 0 q 319 32 361 11 q 250 82 278 53 l 250 0 l 69 0 l 69 276 l 229 276 q 326 174 267 211 q 458 138 385 138 q 517 153 494 138 q 539 200 539 169 q 515 251 539 233 q 432 282 490 269 l 321 306 q 124 401 186 336 q 63 575 63 465 q 97 703 63 647 q 193 792 131 760 q 338 824 256 824 q 593 733 496 824 l 593 810 l 760 810 l 760 571 l 607 571 q 529 643 579 614 q 417 672 479 672 q 343 617 343 672 q 374 567 343 585 q 482 533 406 549 l 538 522 q 737 430 674 494 q 800 249 800 365 q 722 55 800 124 q 513 -14 644 -14 z "},"Ŝ":{"ha":856,"x_min":63,"x_max":800,"o":"m 538 522 q 737 430 674 494 q 800 249 800 365 q 722 55 800 124 q 513 -14 644 -14 q 367 12 442 -14 q 250 82 292 38 l 250 0 l 69 0 l 69 276 l 229 276 q 326 174 267 211 q 458 138 385 138 q 517 153 494 138 q 539 200 539 169 q 515 251 539 233 q 432 282 490 269 l 321 306 q 124 401 186 336 q 63 575 63 465 q 97 703 63 647 q 193 792 131 760 q 338 824 256 824 q 593 733 496 824 l 593 810 l 760 810 l 760 571 l 607 571 q 529 643 579 614 q 417 672 479 672 q 343 617 343 672 q 374 567 343 585 q 482 533 406 549 l 538 522 m 339 1147 l 586 1147 l 704 896 l 557 896 l 461 1050 l 365 896 l 218 896 l 339 1147 z "},"Ș":{"ha":856,"x_min":63,"x_max":800,"o":"m 538 522 q 737 430 674 494 q 800 249 800 365 q 722 55 800 124 q 513 -14 644 -14 q 367 12 442 -14 q 250 82 292 38 l 250 0 l 69 0 l 69 276 l 229 276 q 326 174 267 211 q 458 138 385 138 q 517 153 494 138 q 539 200 539 169 q 515 251 539 233 q 432 282 490 269 l 321 306 q 124 401 186 336 q 63 575 63 465 q 97 703 63 647 q 193 792 131 760 q 338 824 256 824 q 593 733 496 824 l 593 810 l 760 810 l 760 571 l 607 571 q 529 643 579 614 q 417 672 479 672 q 343 617 343 672 q 374 567 343 585 q 482 533 406 549 l 538 522 m 353 -374 q 419 -344 399 -371 q 440 -258 440 -318 l 339 -258 l 339 -81 l 557 -81 l 557 -218 q 511 -394 557 -339 q 353 -450 465 -450 l 353 -374 z "},"Ṡ":{"ha":856,"x_min":63,"x_max":800,"o":"m 538 522 q 737 430 674 494 q 800 249 800 365 q 722 55 800 124 q 513 -14 644 -14 q 367 12 442 -14 q 250 82 292 38 l 250 0 l 69 0 l 69 276 l 229 276 q 326 174 267 211 q 458 138 385 138 q 517 153 494 138 q 539 200 539 169 q 515 251 539 233 q 432 282 490 269 l 321 306 q 124 401 186 336 q 63 575 63 465 q 97 703 63 647 q 193 792 131 760 q 338 824 256 824 q 593 733 496 824 l 593 810 l 760 810 l 760 571 l 607 571 q 529 643 579 614 q 417 672 479 672 q 343 617 343 672 q 374 567 343 585 q 482 533 406 549 l 538 522 m 461 924 q 365 958 401 924 q 329 1051 329 993 q 365 1143 329 1108 q 461 1178 401 1178 q 558 1142 522 1178 q 593 1049 593 1107 q 556 958 593 992 q 461 924 519 924 z "},"Ṣ":{"ha":856,"x_min":63,"x_max":800,"o":"m 538 522 q 737 430 674 494 q 800 249 800 365 q 722 55 800 124 q 513 -14 644 -14 q 367 12 442 -14 q 250 82 292 38 l 250 0 l 69 0 l 69 276 l 229 276 q 326 174 267 211 q 458 138 385 138 q 517 153 494 138 q 539 200 539 169 q 515 251 539 233 q 432 282 490 269 l 321 306 q 124 401 186 336 q 63 575 63 465 q 97 703 63 647 q 193 792 131 760 q 338 824 256 824 q 593 733 496 824 l 593 810 l 760 810 l 760 571 l 607 571 q 529 643 579 614 q 417 672 479 672 q 343 617 343 672 q 374 567 343 585 q 482 533 406 549 l 538 522 m 449 -296 q 363 -266 394 -296 q 331 -187 331 -236 q 363 -110 331 -139 q 449 -81 394 -81 q 535 -110 503 -81 q 567 -190 567 -140 q 534 -267 567 -237 q 449 -296 501 -296 z "},"Ṩ":{"ha":856,"x_min":63,"x_max":800,"o":"m 538 522 q 737 430 674 494 q 800 249 800 365 q 722 55 800 124 q 513 -14 644 -14 q 367 12 442 -14 q 250 82 292 38 l 250 0 l 69 0 l 69 276 l 229 276 q 326 174 267 211 q 458 138 385 138 q 517 153 494 138 q 539 200 539 169 q 515 251 539 233 q 432 282 490 269 l 321 306 q 124 401 186 336 q 63 575 63 465 q 97 703 63 647 q 193 792 131 760 q 338 824 256 824 q 593 733 496 824 l 593 810 l 760 810 l 760 571 l 607 571 q 529 643 579 614 q 417 672 479 672 q 343 617 343 672 q 374 567 343 585 q 482 533 406 549 l 538 522 m 449 -296 q 363 -266 394 -296 q 331 -187 331 -236 q 363 -110 331 -139 q 449 -81 394 -81 q 535 -110 503 -81 q 567 -190 567 -140 q 534 -267 567 -237 q 449 -296 501 -296 m 461 924 q 365 958 401 924 q 329 1051 329 993 q 365 1143 329 1108 q 461 1178 401 1178 q 558 1142 522 1178 q 593 1049 593 1107 q 556 958 593 992 q 461 924 519 924 z "},"ẞ":{"ha":922,"x_min":69,"x_max":881,"o":"m 556 176 q 631 263 631 193 q 581 344 631 317 q 444 371 532 371 l 444 449 l 594 631 q 514 643 554 643 q 434 617 463 643 q 406 538 406 590 l 406 167 l 483 167 l 483 0 l 69 0 l 69 167 l 139 167 l 139 524 q 225 748 139 672 q 493 824 311 824 q 660 805 581 824 q 796 754 740 786 l 796 596 l 672 449 q 827 372 774 426 q 881 218 881 318 q 796 41 881 96 q 556 -14 711 -14 l 556 176 z "},"Ə":{"ha":931,"x_min":50,"x_max":886,"o":"m 446 821 q 683 770 583 821 q 834 625 782 719 q 886 403 886 531 q 835 186 886 281 q 686 39 783 92 q 457 -14 589 -14 q 232 38 324 -14 q 95 182 140 90 q 50 393 50 274 l 50 456 l 585 456 q 512 547 564 517 q 383 578 460 578 q 144 507 265 578 l 54 699 q 233 787 131 753 q 446 821 335 821 m 465 175 q 557 211 526 175 q 594 318 588 247 l 339 318 q 370 212 339 249 q 465 175 401 175 z "},"T":{"ha":933,"x_min":36,"x_max":897,"o":"m 244 167 l 328 167 l 328 649 l 211 649 l 211 504 l 36 504 l 36 810 l 897 810 l 897 504 l 722 504 l 722 649 l 606 649 l 606 167 l 689 167 l 689 0 l 244 0 l 244 167 z "},"Ŧ":{"ha":933,"x_min":36,"x_max":897,"o":"m 897 810 l 897 504 l 722 504 l 722 649 l 606 649 l 606 451 l 700 451 l 700 324 l 606 324 l 606 167 l 689 167 l 689 0 l 244 0 l 244 167 l 328 167 l 328 324 l 233 324 l 233 451 l 328 451 l 328 649 l 211 649 l 211 504 l 36 504 l 36 810 l 897 810 z "},"Ť":{"ha":933,"x_min":36,"x_max":897,"o":"m 244 167 l 328 167 l 328 649 l 211 649 l 211 504 l 36 504 l 36 810 l 897 810 l 897 504 l 722 504 l 722 649 l 606 649 l 606 167 l 689 167 l 689 0 l 244 0 l 244 167 m 233 1150 l 393 1150 l 474 992 l 556 1150 l 699 1150 l 607 896 l 342 896 l 233 1150 z "},"Ţ":{"ha":933,"x_min":36,"x_max":897,"o":"m 244 167 l 328 167 l 328 649 l 211 649 l 211 504 l 36 504 l 36 810 l 897 810 l 897 504 l 722 504 l 722 649 l 606 649 l 606 167 l 689 167 l 689 0 l 244 0 l 244 167 m 454 -296 q 388 -286 421 -296 q 331 -258 356 -276 l 331 -199 q 408 -219 375 -219 q 457 -174 457 -219 q 438 -140 457 -151 q 375 -126 418 -129 l 426 0 l 510 0 l 489 -78 q 566 -117 539 -86 q 593 -186 593 -147 q 553 -268 593 -240 q 454 -296 513 -296 z "},"Ț":{"ha":933,"x_min":36,"x_max":897,"o":"m 244 167 l 328 167 l 328 649 l 211 649 l 211 504 l 36 504 l 36 810 l 897 810 l 897 504 l 722 504 l 722 649 l 606 649 l 606 167 l 689 167 l 689 0 l 244 0 l 244 167 m 371 -374 q 438 -344 417 -371 q 458 -258 458 -318 l 357 -258 l 357 -81 l 575 -81 l 575 -218 q 529 -394 575 -339 q 371 -450 483 -450 l 371 -374 z "},"Ṫ":{"ha":933,"x_min":36,"x_max":897,"o":"m 244 167 l 328 167 l 328 649 l 211 649 l 211 504 l 36 504 l 36 810 l 897 810 l 897 504 l 722 504 l 722 649 l 606 649 l 606 167 l 689 167 l 689 0 l 244 0 l 244 167 m 467 924 q 371 958 407 924 q 335 1051 335 993 q 371 1143 335 1108 q 467 1178 407 1178 q 563 1142 528 1178 q 599 1049 599 1107 q 562 958 599 992 q 467 924 525 924 z "},"Ṭ":{"ha":933,"x_min":36,"x_max":897,"o":"m 244 167 l 328 167 l 328 649 l 211 649 l 211 504 l 36 504 l 36 810 l 897 810 l 897 504 l 722 504 l 722 649 l 606 649 l 606 167 l 689 167 l 689 0 l 244 0 l 244 167 m 467 -296 q 381 -266 413 -296 q 349 -187 349 -236 q 381 -110 349 -139 q 467 -81 413 -81 q 553 -110 521 -81 q 585 -190 585 -140 q 552 -267 585 -237 q 467 -296 519 -296 z "},"Ṯ":{"ha":933,"x_min":36,"x_max":897,"o":"m 244 167 l 328 167 l 328 649 l 211 649 l 211 504 l 36 504 l 36 810 l 897 810 l 897 504 l 722 504 l 722 649 l 606 649 l 606 167 l 689 167 l 689 0 l 244 0 l 244 167 m 272 -122 l 661 -122 l 661 -250 l 272 -250 l 272 -122 z "},"U":{"ha":974,"x_min":47,"x_max":928,"o":"m 497 -15 q 215 63 313 -15 q 117 296 117 140 l 117 643 l 47 643 l 47 810 l 475 810 l 475 643 l 394 643 l 394 300 q 521 153 394 153 q 617 190 585 153 q 650 300 650 228 l 650 643 l 597 643 l 597 810 l 928 810 l 928 643 l 858 643 l 858 301 q 768 65 858 146 q 497 -15 678 -15 z "},"Ú":{"ha":974,"x_min":47,"x_max":928,"o":"m 497 -15 q 215 63 313 -15 q 117 296 117 140 l 117 643 l 47 643 l 47 810 l 475 810 l 475 643 l 394 643 l 394 300 q 521 153 394 153 q 617 190 585 153 q 650 300 650 228 l 650 643 l 597 643 l 597 810 l 928 810 l 928 643 l 858 643 l 858 301 q 768 65 858 146 q 497 -15 678 -15 m 497 1142 l 715 1142 l 578 888 l 442 888 l 497 1142 z "},"Ŭ":{"ha":974,"x_min":47,"x_max":928,"o":"m 497 -15 q 215 63 313 -15 q 117 296 117 140 l 117 643 l 47 643 l 47 810 l 475 810 l 475 643 l 394 643 l 394 300 q 521 153 394 153 q 617 190 585 153 q 650 300 650 228 l 650 643 l 597 643 l 597 810 l 928 810 l 928 643 l 858 643 l 858 301 q 768 65 858 146 q 497 -15 678 -15 m 510 911 q 263 1129 274 911 l 421 1129 q 449 1062 426 1085 q 510 1039 472 1039 q 599 1129 592 1039 l 757 1129 q 510 911 738 911 z "},"Ǔ":{"ha":974,"x_min":47,"x_max":928,"o":"m 497 -15 q 215 63 313 -15 q 117 296 117 140 l 117 643 l 47 643 l 47 810 l 475 810 l 475 643 l 394 643 l 394 300 q 521 153 394 153 q 617 190 585 153 q 650 300 650 228 l 650 643 l 597 643 l 597 810 l 928 810 l 928 643 l 858 643 l 858 301 q 768 65 858 146 q 497 -15 678 -15 m 276 1150 l 436 1150 l 517 992 l 599 1150 l 742 1150 l 650 896 l 385 896 l 276 1150 z "},"Û":{"ha":974,"x_min":47,"x_max":928,"o":"m 497 -15 q 215 63 313 -15 q 117 296 117 140 l 117 643 l 47 643 l 47 810 l 475 810 l 475 643 l 394 643 l 394 300 q 521 153 394 153 q 617 190 585 153 q 650 300 650 228 l 650 643 l 597 643 l 597 810 l 928 810 l 928 643 l 858 643 l 858 301 q 768 65 858 146 q 497 -15 678 -15 m 388 1147 l 635 1147 l 753 896 l 606 896 l 510 1050 l 414 896 l 267 896 l 388 1147 z "},"Ȕ":{"ha":974,"x_min":47,"x_max":928,"o":"m 497 -15 q 215 63 313 -15 q 117 296 117 140 l 117 643 l 47 643 l 47 810 l 475 810 l 475 643 l 394 643 l 394 300 q 521 153 394 153 q 617 190 585 153 q 650 300 650 228 l 650 643 l 597 643 l 597 810 l 928 810 l 928 643 l 858 643 l 858 301 q 768 65 858 146 q 497 -15 678 -15 m 153 1142 l 371 1142 l 428 888 l 292 888 l 153 1142 m 451 1142 l 669 1142 l 726 888 l 589 888 l 451 1142 z "},"Ü":{"ha":974,"x_min":47,"x_max":928,"o":"m 497 -15 q 215 63 313 -15 q 117 296 117 140 l 117 643 l 47 643 l 47 810 l 475 810 l 475 643 l 394 643 l 394 300 q 521 153 394 153 q 617 190 585 153 q 650 300 650 228 l 650 643 l 597 643 l 597 810 l 928 810 l 928 643 l 858 643 l 858 301 q 768 65 858 146 q 497 -15 678 -15 m 325 924 q 235 956 272 924 q 199 1044 199 988 q 235 1133 199 1101 q 325 1165 272 1165 q 415 1133 378 1165 q 451 1044 451 1101 q 415 956 451 988 q 325 924 378 924 m 694 924 q 605 956 642 924 q 568 1044 568 988 q 605 1133 568 1101 q 694 1165 642 1165 q 784 1133 747 1165 q 821 1044 821 1101 q 784 956 821 988 q 694 924 747 924 z "},"Ụ":{"ha":974,"x_min":47,"x_max":928,"o":"m 497 -15 q 215 63 313 -15 q 117 296 117 140 l 117 643 l 47 643 l 47 810 l 475 810 l 475 643 l 394 643 l 394 300 q 521 153 394 153 q 617 190 585 153 q 650 300 650 228 l 650 643 l 597 643 l 597 810 l 928 810 l 928 643 l 858 643 l 858 301 q 768 65 858 146 q 497 -15 678 -15 m 510 -296 q 424 -266 456 -296 q 392 -187 392 -236 q 424 -110 392 -139 q 510 -81 456 -81 q 596 -110 564 -81 q 628 -190 628 -140 q 595 -267 628 -237 q 510 -296 563 -296 z "},"Ù":{"ha":974,"x_min":47,"x_max":928,"o":"m 497 -15 q 215 63 313 -15 q 117 296 117 140 l 117 643 l 47 643 l 47 810 l 475 810 l 475 643 l 394 643 l 394 300 q 521 153 394 153 q 617 190 585 153 q 650 300 650 228 l 650 643 l 597 643 l 597 810 l 928 810 l 928 643 l 858 643 l 858 301 q 768 65 858 146 q 497 -15 678 -15 m 300 1142 l 518 1142 l 574 888 l 438 888 l 300 1142 z "},"Ủ":{"ha":974,"x_min":47,"x_max":928,"o":"m 497 -15 q 215 63 313 -15 q 117 296 117 140 l 117 643 l 47 643 l 47 810 l 475 810 l 475 643 l 394 643 l 394 300 q 521 153 394 153 q 617 190 585 153 q 650 300 650 228 l 650 643 l 597 643 l 597 810 l 928 810 l 928 643 l 858 643 l 858 301 q 768 65 858 146 q 497 -15 678 -15 m 479 932 q 513 955 501 943 q 524 986 524 967 q 508 1021 524 1008 q 464 1033 492 1033 q 378 1007 419 1033 l 354 1079 q 422 1119 383 1104 q 501 1135 460 1135 q 602 1102 564 1135 q 640 1014 640 1069 q 603 923 640 960 q 499 871 567 886 l 479 932 z "},"Ư":{"ha":974,"x_min":47,"x_max":996,"o":"m 996 911 q 858 708 988 750 l 858 301 q 768 65 858 146 q 497 -15 678 -15 q 215 63 313 -15 q 117 296 117 140 l 117 643 l 47 643 l 47 810 l 475 810 l 475 643 l 394 643 l 394 300 q 521 153 394 153 q 617 190 585 153 q 650 300 650 228 l 650 643 l 597 643 l 597 810 l 738 810 q 809 835 783 810 q 838 911 835 861 l 996 911 z "},"Ứ":{"ha":974,"x_min":47,"x_max":996,"o":"m 996 911 q 858 708 988 750 l 858 301 q 768 65 858 146 q 497 -15 678 -15 q 215 63 313 -15 q 117 296 117 140 l 117 643 l 47 643 l 47 810 l 475 810 l 475 643 l 394 643 l 394 300 q 521 153 394 153 q 617 190 585 153 q 650 300 650 228 l 650 643 l 597 643 l 597 810 l 738 810 q 809 835 783 810 q 838 911 835 861 l 996 911 m 497 1142 l 715 1142 l 578 888 l 442 888 l 497 1142 z "},"Ự":{"ha":974,"x_min":47,"x_max":996,"o":"m 996 911 q 858 708 988 750 l 858 301 q 768 65 858 146 q 497 -15 678 -15 q 215 63 313 -15 q 117 296 117 140 l 117 643 l 47 643 l 47 810 l 475 810 l 475 643 l 394 643 l 394 300 q 521 153 394 153 q 617 190 585 153 q 650 300 650 228 l 650 643 l 597 643 l 597 810 l 738 810 q 809 835 783 810 q 838 911 835 861 l 996 911 m 510 -296 q 424 -266 456 -296 q 392 -187 392 -236 q 424 -110 392 -139 q 510 -81 456 -81 q 596 -110 564 -81 q 628 -190 628 -140 q 595 -267 628 -237 q 510 -296 563 -296 z "},"Ừ":{"ha":974,"x_min":47,"x_max":996,"o":"m 996 911 q 858 708 988 750 l 858 301 q 768 65 858 146 q 497 -15 678 -15 q 215 63 313 -15 q 117 296 117 140 l 117 643 l 47 643 l 47 810 l 475 810 l 475 643 l 394 643 l 394 300 q 521 153 394 153 q 617 190 585 153 q 650 300 650 228 l 650 643 l 597 643 l 597 810 l 738 810 q 809 835 783 810 q 838 911 835 861 l 996 911 m 300 1142 l 518 1142 l 574 888 l 438 888 l 300 1142 z "},"Ử":{"ha":974,"x_min":47,"x_max":996,"o":"m 996 911 q 858 708 988 750 l 858 301 q 768 65 858 146 q 497 -15 678 -15 q 215 63 313 -15 q 117 296 117 140 l 117 643 l 47 643 l 47 810 l 475 810 l 475 643 l 394 643 l 394 300 q 521 153 394 153 q 617 190 585 153 q 650 300 650 228 l 650 643 l 597 643 l 597 810 l 738 810 q 809 835 783 810 q 838 911 835 861 l 996 911 m 479 932 q 513 955 501 943 q 524 986 524 967 q 508 1021 524 1008 q 464 1033 492 1033 q 378 1007 419 1033 l 354 1079 q 422 1119 383 1104 q 501 1135 460 1135 q 602 1102 564 1135 q 640 1014 640 1069 q 603 923 640 960 q 499 871 567 886 l 479 932 z "},"Ữ":{"ha":974,"x_min":47,"x_max":996,"o":"m 996 911 q 858 708 988 750 l 858 301 q 768 65 858 146 q 497 -15 678 -15 q 215 63 313 -15 q 117 296 117 140 l 117 643 l 47 643 l 47 810 l 475 810 l 475 643 l 394 643 l 394 300 q 521 153 394 153 q 617 190 585 153 q 650 300 650 228 l 650 643 l 597 643 l 597 810 l 738 810 q 809 835 783 810 q 838 911 835 861 l 996 911 m 614 904 q 551 915 582 904 q 481 944 519 925 q 400 972 425 972 q 339 913 344 972 l 224 913 q 282 1085 232 1031 q 406 1140 332 1140 q 467 1130 438 1140 q 538 1100 497 1119 q 619 1072 596 1072 q 681 1132 675 1072 l 796 1132 q 738 959 788 1014 q 614 904 688 904 z "},"Ű":{"ha":974,"x_min":47,"x_max":928,"o":"m 497 -15 q 215 63 313 -15 q 117 296 117 140 l 117 643 l 47 643 l 47 810 l 475 810 l 475 643 l 394 643 l 394 300 q 521 153 394 153 q 617 190 585 153 q 650 300 650 228 l 650 643 l 597 643 l 597 810 l 928 810 l 928 643 l 858 643 l 858 301 q 768 65 858 146 q 497 -15 678 -15 m 336 1142 l 554 1142 l 417 888 l 279 888 l 336 1142 m 635 1142 l 853 1142 l 714 888 l 578 888 l 635 1142 z "},"Ȗ":{"ha":974,"x_min":47,"x_max":928,"o":"m 497 -15 q 215 63 313 -15 q 117 296 117 140 l 117 643 l 47 643 l 47 810 l 475 810 l 475 643 l 394 643 l 394 300 q 521 153 394 153 q 617 190 585 153 q 650 300 650 228 l 650 643 l 597 643 l 597 810 l 928 810 l 928 643 l 858 643 l 858 301 q 768 65 858 146 q 497 -15 678 -15 m 276 869 q 341 1046 281 986 q 510 1106 401 1106 q 678 1046 618 1106 q 743 869 739 986 l 604 869 q 510 961 592 961 q 445 938 469 961 q 415 869 421 914 l 276 869 z "},"Ū":{"ha":974,"x_min":47,"x_max":928,"o":"m 497 -15 q 215 63 313 -15 q 117 296 117 140 l 117 643 l 47 643 l 47 810 l 475 810 l 475 643 l 394 643 l 394 300 q 521 153 394 153 q 617 190 585 153 q 650 300 650 228 l 650 643 l 597 643 l 597 810 l 928 810 l 928 643 l 858 643 l 858 301 q 768 65 858 146 q 497 -15 678 -15 m 315 1026 l 704 1026 l 704 899 l 315 899 l 315 1026 z "},"Ṻ":{"ha":974,"x_min":47,"x_max":928,"o":"m 497 -15 q 215 63 313 -15 q 117 296 117 140 l 117 643 l 47 643 l 47 810 l 475 810 l 475 643 l 394 643 l 394 300 q 521 153 394 153 q 617 190 585 153 q 650 300 650 228 l 650 643 l 597 643 l 597 810 l 928 810 l 928 643 l 858 643 l 858 301 q 768 65 858 146 q 497 -15 678 -15 m 315 1026 l 704 1026 l 704 899 l 315 899 l 315 1026 m 325 1140 q 235 1172 272 1140 q 199 1261 199 1204 q 235 1350 199 1318 q 325 1382 272 1382 q 415 1350 378 1382 q 451 1261 451 1318 q 415 1172 451 1204 q 325 1140 378 1140 m 694 1140 q 605 1172 642 1140 q 568 1261 568 1204 q 605 1350 568 1318 q 694 1382 642 1382 q 784 1350 747 1382 q 821 1261 821 1318 q 784 1172 821 1204 q 694 1140 747 1140 z "},"Ų":{"ha":974,"x_min":47,"x_max":928,"o":"m 928 810 l 928 643 l 858 643 l 858 301 q 776 74 858 154 q 531 -14 694 -7 q 496 -67 507 -44 q 485 -111 485 -89 q 505 -152 485 -136 q 560 -168 525 -168 q 617 -160 588 -168 l 617 -256 q 500 -281 554 -281 q 403 -247 438 -281 q 368 -162 368 -214 q 450 -14 368 -85 q 202 74 288 -4 q 117 296 117 151 l 117 643 l 47 643 l 47 810 l 475 810 l 475 643 l 394 643 l 394 300 q 521 153 394 153 q 617 190 585 153 q 650 300 650 228 l 650 643 l 597 643 l 597 810 l 928 810 z "},"Ů":{"ha":974,"x_min":47,"x_max":928,"o":"m 497 -15 q 215 63 313 -15 q 117 296 117 140 l 117 643 l 47 643 l 47 810 l 475 810 l 475 643 l 394 643 l 394 300 q 521 153 394 153 q 617 190 585 153 q 650 300 650 228 l 650 643 l 597 643 l 597 810 l 928 810 l 928 643 l 858 643 l 858 301 q 768 65 858 146 q 497 -15 678 -15 m 514 894 q 410 929 447 894 q 372 1026 372 964 q 408 1125 372 1090 q 510 1160 444 1160 q 610 1124 574 1160 q 647 1026 647 1089 q 612 930 647 965 q 514 894 576 894 m 510 964 q 555 980 539 964 q 571 1026 571 996 q 555 1074 571 1057 q 510 1090 539 1090 q 465 1074 481 1090 q 449 1026 449 1057 q 465 980 449 996 q 510 964 481 964 z "},"Ũ":{"ha":974,"x_min":47,"x_max":928,"o":"m 497 -15 q 215 63 313 -15 q 117 296 117 140 l 117 643 l 47 643 l 47 810 l 475 810 l 475 643 l 394 643 l 394 300 q 521 153 394 153 q 617 190 585 153 q 650 300 650 228 l 650 643 l 597 643 l 597 810 l 928 810 l 928 643 l 858 643 l 858 301 q 768 65 858 146 q 497 -15 678 -15 m 614 904 q 551 915 582 904 q 481 944 519 925 q 400 972 425 972 q 339 913 344 972 l 224 913 q 282 1085 232 1031 q 406 1140 332 1140 q 467 1130 438 1140 q 538 1100 497 1119 q 619 1072 596 1072 q 681 1132 675 1072 l 796 1132 q 738 959 788 1014 q 614 904 688 904 z "},"Ṹ":{"ha":974,"x_min":47,"x_max":928,"o":"m 497 -15 q 215 63 313 -15 q 117 296 117 140 l 117 643 l 47 643 l 47 810 l 475 810 l 475 643 l 394 643 l 394 300 q 521 153 394 153 q 617 190 585 153 q 650 300 650 228 l 650 643 l 597 643 l 597 810 l 928 810 l 928 643 l 858 643 l 858 301 q 768 65 858 146 q 497 -15 678 -15 m 614 904 q 551 915 582 904 q 481 944 519 925 q 400 972 425 972 q 339 913 344 972 l 224 913 q 282 1085 232 1031 q 406 1140 332 1140 q 467 1130 438 1140 q 538 1100 497 1119 q 619 1072 596 1072 q 681 1132 675 1072 l 796 1132 q 738 959 788 1014 q 614 904 688 904 m 497 1431 l 715 1431 l 578 1176 l 442 1176 l 497 1431 z "},"V":{"ha":956,"x_min":19,"x_max":936,"o":"m 83 643 l 19 643 l 19 810 l 464 810 l 464 643 l 372 643 l 511 303 l 643 643 l 554 643 l 554 810 l 936 810 l 936 643 l 872 643 l 589 0 l 401 0 l 83 643 z "},"W":{"ha":1264,"x_min":19,"x_max":1244,"o":"m 83 643 l 19 643 l 19 810 l 389 810 l 389 643 l 322 643 l 406 371 l 560 782 l 726 782 l 875 371 l 969 643 l 889 643 l 889 810 l 1244 810 l 1244 643 l 1181 643 l 964 0 l 797 0 l 638 415 l 478 0 l 311 0 l 83 643 z "},"Ẃ":{"ha":1264,"x_min":19,"x_max":1244,"o":"m 83 643 l 19 643 l 19 810 l 389 810 l 389 643 l 322 643 l 406 371 l 560 782 l 726 782 l 875 371 l 969 643 l 889 643 l 889 810 l 1244 810 l 1244 643 l 1181 643 l 964 0 l 797 0 l 638 415 l 478 0 l 311 0 l 83 643 m 631 1114 l 849 1114 l 711 860 l 575 860 l 631 1114 z "},"Ŵ":{"ha":1264,"x_min":19,"x_max":1244,"o":"m 83 643 l 19 643 l 19 810 l 389 810 l 389 643 l 322 643 l 406 371 l 560 782 l 726 782 l 875 371 l 969 643 l 889 643 l 889 810 l 1244 810 l 1244 643 l 1181 643 l 964 0 l 797 0 l 638 415 l 478 0 l 311 0 l 83 643 m 521 1119 l 768 1119 l 886 868 l 739 868 l 643 1022 l 547 868 l 400 868 l 521 1119 z "},"Ẅ":{"ha":1264,"x_min":19,"x_max":1244,"o":"m 83 643 l 19 643 l 19 810 l 389 810 l 389 643 l 322 643 l 406 371 l 560 782 l 726 782 l 875 371 l 969 643 l 889 643 l 889 810 l 1244 810 l 1244 643 l 1181 643 l 964 0 l 797 0 l 638 415 l 478 0 l 311 0 l 83 643 m 458 896 q 369 928 406 896 q 332 1017 332 960 q 369 1106 332 1074 q 458 1138 406 1138 q 548 1106 511 1138 q 585 1017 585 1074 q 548 928 585 960 q 458 896 511 896 m 828 896 q 738 928 775 896 q 701 1017 701 960 q 738 1106 701 1074 q 828 1138 775 1138 q 917 1106 881 1138 q 954 1017 954 1074 q 917 928 954 960 q 828 896 881 896 z "},"Ẁ":{"ha":1264,"x_min":19,"x_max":1244,"o":"m 83 643 l 19 643 l 19 810 l 389 810 l 389 643 l 322 643 l 406 371 l 560 782 l 726 782 l 875 371 l 969 643 l 889 643 l 889 810 l 1244 810 l 1244 643 l 1181 643 l 964 0 l 797 0 l 638 415 l 478 0 l 311 0 l 83 643 m 433 1114 l 651 1114 l 707 860 l 571 860 l 433 1114 z "},"X":{"ha":974,"x_min":39,"x_max":935,"o":"m 39 167 l 90 167 l 303 404 l 103 643 l 53 643 l 53 810 l 456 810 l 456 643 l 406 643 l 497 524 l 594 643 l 543 643 l 543 810 l 921 810 l 921 643 l 869 643 l 669 419 l 885 167 l 935 167 l 935 0 l 532 0 l 532 167 l 582 167 l 476 301 l 365 167 l 417 167 l 417 0 l 39 0 l 39 167 z "},"Y":{"ha":954,"x_min":14,"x_max":940,"o":"m 261 167 l 344 167 l 344 288 l 83 643 l 14 643 l 14 810 l 471 810 l 471 643 l 389 643 l 515 451 l 642 643 l 560 643 l 560 810 l 940 810 l 940 643 l 871 643 l 624 288 l 624 167 l 707 167 l 707 0 l 261 0 l 261 167 z "},"Ý":{"ha":954,"x_min":14,"x_max":940,"o":"m 261 167 l 344 167 l 344 288 l 83 643 l 14 643 l 14 810 l 471 810 l 471 643 l 389 643 l 515 451 l 642 643 l 560 643 l 560 810 l 940 810 l 940 643 l 871 643 l 624 288 l 624 167 l 707 167 l 707 0 l 261 0 l 261 167 m 503 1142 l 721 1142 l 583 888 l 447 888 l 503 1142 z "},"Ŷ":{"ha":954,"x_min":14,"x_max":940,"o":"m 261 167 l 344 167 l 344 288 l 83 643 l 14 643 l 14 810 l 471 810 l 471 643 l 389 643 l 515 451 l 642 643 l 560 643 l 560 810 l 940 810 l 940 643 l 871 643 l 624 288 l 624 167 l 707 167 l 707 0 l 261 0 l 261 167 m 393 1147 l 640 1147 l 758 896 l 611 896 l 515 1050 l 419 896 l 272 896 l 393 1147 z "},"Ÿ":{"ha":954,"x_min":14,"x_max":940,"o":"m 261 167 l 344 167 l 344 288 l 83 643 l 14 643 l 14 810 l 471 810 l 471 643 l 389 643 l 515 451 l 642 643 l 560 643 l 560 810 l 940 810 l 940 643 l 871 643 l 624 288 l 624 167 l 707 167 l 707 0 l 261 0 l 261 167 m 331 924 q 241 956 278 924 q 204 1044 204 988 q 241 1133 204 1101 q 331 1165 278 1165 q 420 1133 383 1165 q 457 1044 457 1101 q 420 956 457 988 q 331 924 383 924 m 700 924 q 610 956 647 924 q 574 1044 574 988 q 610 1133 574 1101 q 700 1165 647 1165 q 790 1133 753 1165 q 826 1044 826 1101 q 790 956 826 988 q 700 924 753 924 z "},"Ẏ":{"ha":954,"x_min":14,"x_max":940,"o":"m 261 167 l 344 167 l 344 288 l 83 643 l 14 643 l 14 810 l 471 810 l 471 643 l 389 643 l 515 451 l 642 643 l 560 643 l 560 810 l 940 810 l 940 643 l 871 643 l 624 288 l 624 167 l 707 167 l 707 0 l 261 0 l 261 167 m 515 924 q 419 958 456 924 q 383 1051 383 993 q 419 1143 383 1108 q 515 1178 456 1178 q 612 1142 576 1178 q 647 1049 647 1107 q 610 958 647 992 q 515 924 574 924 z "},"Ỵ":{"ha":954,"x_min":14,"x_max":940,"o":"m 261 167 l 344 167 l 344 288 l 83 643 l 14 643 l 14 810 l 471 810 l 471 643 l 389 643 l 515 451 l 642 643 l 560 643 l 560 810 l 940 810 l 940 643 l 871 643 l 624 288 l 624 167 l 707 167 l 707 0 l 261 0 l 261 167 m 485 -296 q 399 -266 431 -296 q 367 -187 367 -236 q 399 -110 367 -139 q 485 -81 431 -81 q 571 -110 539 -81 q 603 -190 603 -140 q 570 -267 603 -237 q 485 -296 538 -296 z "},"Ỳ":{"ha":954,"x_min":14,"x_max":940,"o":"m 261 167 l 344 167 l 344 288 l 83 643 l 14 643 l 14 810 l 471 810 l 471 643 l 389 643 l 515 451 l 642 643 l 560 643 l 560 810 l 940 810 l 940 643 l 871 643 l 624 288 l 624 167 l 707 167 l 707 0 l 261 0 l 261 167 m 306 1142 l 524 1142 l 579 888 l 443 888 l 306 1142 z "},"Ỷ":{"ha":954,"x_min":14,"x_max":940,"o":"m 261 167 l 344 167 l 344 288 l 83 643 l 14 643 l 14 810 l 471 810 l 471 643 l 389 643 l 515 451 l 642 643 l 560 643 l 560 810 l 940 810 l 940 643 l 871 643 l 624 288 l 624 167 l 707 167 l 707 0 l 261 0 l 261 167 m 485 932 q 518 955 507 943 q 529 986 529 967 q 513 1021 529 1008 q 469 1033 497 1033 q 383 1007 425 1033 l 360 1079 q 427 1119 389 1104 q 507 1135 465 1135 q 608 1102 569 1135 q 646 1014 646 1069 q 609 923 646 960 q 504 871 572 886 l 485 932 z "},"Ȳ":{"ha":954,"x_min":14,"x_max":940,"o":"m 261 167 l 344 167 l 344 288 l 83 643 l 14 643 l 14 810 l 471 810 l 471 643 l 389 643 l 515 451 l 642 643 l 560 643 l 560 810 l 940 810 l 940 643 l 871 643 l 624 288 l 624 167 l 707 167 l 707 0 l 261 0 l 261 167 m 321 1026 l 710 1026 l 710 899 l 321 899 l 321 1026 z "},"Ỹ":{"ha":954,"x_min":14,"x_max":940,"o":"m 261 167 l 344 167 l 344 288 l 83 643 l 14 643 l 14 810 l 471 810 l 471 643 l 389 643 l 515 451 l 642 643 l 560 643 l 560 810 l 940 810 l 940 643 l 871 643 l 624 288 l 624 167 l 707 167 l 707 0 l 261 0 l 261 167 m 619 904 q 556 915 588 904 q 486 944 525 925 q 406 972 431 972 q 344 913 350 972 l 229 913 q 288 1085 238 1031 q 411 1140 338 1140 q 473 1130 443 1140 q 543 1100 503 1119 q 625 1072 601 1072 q 686 1132 681 1072 l 801 1132 q 743 959 793 1014 q 619 904 693 904 z "},"Z":{"ha":831,"x_min":44,"x_max":786,"o":"m 44 125 l 393 649 l 226 649 l 226 504 l 51 504 l 51 810 l 772 810 l 772 685 l 424 161 l 606 161 l 606 324 l 786 324 l 786 0 l 44 0 l 44 125 z "},"Ź":{"ha":831,"x_min":44,"x_max":786,"o":"m 44 125 l 393 649 l 226 649 l 226 504 l 51 504 l 51 810 l 772 810 l 772 685 l 424 161 l 606 161 l 606 324 l 786 324 l 786 0 l 44 0 l 44 125 m 414 1142 l 632 1142 l 494 888 l 358 888 l 414 1142 z "},"Ž":{"ha":831,"x_min":44,"x_max":786,"o":"m 44 125 l 393 649 l 226 649 l 226 504 l 51 504 l 51 810 l 772 810 l 772 685 l 424 161 l 606 161 l 606 324 l 786 324 l 786 0 l 44 0 l 44 125 m 193 1150 l 353 1150 l 433 992 l 515 1150 l 658 1150 l 567 896 l 301 896 l 193 1150 z "},"Ż":{"ha":831,"x_min":44,"x_max":786,"o":"m 44 125 l 393 649 l 226 649 l 226 504 l 51 504 l 51 810 l 772 810 l 772 685 l 424 161 l 606 161 l 606 324 l 786 324 l 786 0 l 44 0 l 44 125 m 426 924 q 331 958 367 924 q 294 1051 294 993 q 331 1143 294 1108 q 426 1178 367 1178 q 523 1142 488 1178 q 558 1049 558 1107 q 522 958 558 992 q 426 924 485 924 z "},"Ẓ":{"ha":831,"x_min":44,"x_max":786,"o":"m 44 125 l 393 649 l 226 649 l 226 504 l 51 504 l 51 810 l 772 810 l 772 685 l 424 161 l 606 161 l 606 324 l 786 324 l 786 0 l 44 0 l 44 125 m 415 -296 q 329 -266 361 -296 q 297 -187 297 -236 q 329 -110 297 -139 q 415 -81 361 -81 q 501 -110 469 -81 q 533 -190 533 -140 q 501 -267 533 -237 q 415 -296 468 -296 z "},"a":{"ha":683,"x_min":39,"x_max":669,"o":"m 669 139 l 669 0 l 413 0 l 393 50 q 222 -14 321 -14 q 88 30 138 -14 q 39 149 39 74 q 102 280 39 238 q 260 322 165 322 q 372 306 325 322 l 372 321 q 275 418 372 418 q 195 408 236 418 q 93 371 154 397 l 42 507 q 342 574 193 574 q 539 511 469 574 q 608 335 608 449 l 608 139 l 669 139 m 253 164 q 269 121 253 136 q 313 106 285 106 q 372 129 347 106 l 372 213 q 322 224 350 224 q 272 208 292 224 q 253 164 253 193 z "},"á":{"ha":683,"x_min":39,"x_max":669,"o":"m 669 139 l 669 0 l 413 0 l 393 50 q 222 -14 321 -14 q 88 30 138 -14 q 39 149 39 74 q 102 280 39 238 q 260 322 165 322 q 372 306 325 322 l 372 321 q 275 418 372 418 q 195 408 236 418 q 93 371 154 397 l 42 507 q 342 574 193 574 q 539 511 469 574 q 608 335 608 449 l 608 139 l 669 139 m 253 164 q 269 121 253 136 q 313 106 285 106 q 372 129 347 106 l 372 213 q 322 224 350 224 q 272 208 292 224 q 253 164 253 193 m 329 892 l 547 892 l 410 638 l 274 638 l 329 892 z "},"ă":{"ha":683,"x_min":39,"x_max":669,"o":"m 669 139 l 669 0 l 413 0 l 393 50 q 222 -14 321 -14 q 88 30 138 -14 q 39 149 39 74 q 102 280 39 238 q 260 322 165 322 q 372 306 325 322 l 372 321 q 275 418 372 418 q 195 408 236 418 q 93 371 154 397 l 42 507 q 342 574 193 574 q 539 511 469 574 q 608 335 608 449 l 608 139 l 669 139 m 253 164 q 269 121 253 136 q 313 106 285 106 q 372 129 347 106 l 372 213 q 322 224 350 224 q 272 208 292 224 q 253 164 253 193 m 342 661 q 94 879 106 661 l 253 879 q 281 812 258 835 q 342 789 304 789 q 431 879 424 789 l 589 879 q 342 661 569 661 z "},"ắ":{"ha":683,"x_min":39,"x_max":669,"o":"m 669 139 l 669 0 l 413 0 l 393 50 q 222 -14 321 -14 q 88 30 138 -14 q 39 149 39 74 q 102 280 39 238 q 260 322 165 322 q 372 306 325 322 l 372 321 q 275 418 372 418 q 195 408 236 418 q 93 371 154 397 l 42 507 q 342 574 193 574 q 539 511 469 574 q 608 335 608 449 l 608 139 l 669 139 m 253 164 q 269 121 253 136 q 313 106 285 106 q 372 129 347 106 l 372 213 q 322 224 350 224 q 272 208 292 224 q 253 164 253 193 m 340 1081 l 519 1081 l 386 882 l 274 882 l 340 1081 m 342 654 q 94 844 106 654 l 239 844 q 342 761 251 761 q 444 844 439 761 l 589 844 q 342 654 569 654 z "},"ặ":{"ha":683,"x_min":39,"x_max":669,"o":"m 669 139 l 669 0 l 413 0 l 393 50 q 222 -14 321 -14 q 88 30 138 -14 q 39 149 39 74 q 102 280 39 238 q 260 322 165 322 q 372 306 325 322 l 372 321 q 275 418 372 418 q 195 408 236 418 q 93 371 154 397 l 42 507 q 342 574 193 574 q 539 511 469 574 q 608 335 608 449 l 608 139 l 669 139 m 253 164 q 269 121 253 136 q 313 106 285 106 q 372 129 347 106 l 372 213 q 322 224 350 224 q 272 208 292 224 q 253 164 253 193 m 364 -296 q 278 -266 310 -296 q 246 -187 246 -236 q 278 -110 246 -139 q 364 -81 310 -81 q 450 -110 418 -81 q 482 -190 482 -140 q 449 -267 482 -237 q 364 -296 417 -296 m 342 661 q 94 879 106 661 l 253 879 q 281 812 258 835 q 342 789 304 789 q 431 879 424 789 l 589 879 q 342 661 569 661 z "},"ằ":{"ha":683,"x_min":39,"x_max":669,"o":"m 669 139 l 669 0 l 413 0 l 393 50 q 222 -14 321 -14 q 88 30 138 -14 q 39 149 39 74 q 102 280 39 238 q 260 322 165 322 q 372 306 325 322 l 372 321 q 275 418 372 418 q 195 408 236 418 q 93 371 154 397 l 42 507 q 342 574 193 574 q 539 511 469 574 q 608 335 608 449 l 608 139 l 669 139 m 253 164 q 269 121 253 136 q 313 106 285 106 q 372 129 347 106 l 372 213 q 322 224 350 224 q 272 208 292 224 q 253 164 253 193 m 164 1081 l 343 1081 l 410 882 l 297 882 l 164 1081 m 342 654 q 94 844 106 654 l 239 844 q 342 761 251 761 q 444 844 439 761 l 589 844 q 342 654 569 654 z "},"ẳ":{"ha":683,"x_min":39,"x_max":669,"o":"m 669 139 l 669 0 l 413 0 l 393 50 q 222 -14 321 -14 q 88 30 138 -14 q 39 149 39 74 q 102 280 39 238 q 260 322 165 322 q 372 306 325 322 l 372 321 q 275 418 372 418 q 195 408 236 418 q 93 371 154 397 l 42 507 q 342 574 193 574 q 539 511 469 574 q 608 335 608 449 l 608 139 l 669 139 m 253 164 q 269 121 253 136 q 313 106 285 106 q 372 129 347 106 l 372 213 q 322 224 350 224 q 272 208 292 224 q 253 164 253 193 m 311 908 q 344 931 333 919 q 356 963 356 943 q 340 992 356 982 q 296 1003 324 1003 q 210 976 251 1003 l 186 1049 q 253 1089 215 1074 q 333 1104 292 1104 q 434 1074 396 1104 q 472 990 472 1043 q 435 899 472 936 q 331 847 399 863 l 311 908 m 342 654 q 94 844 106 654 l 239 844 q 342 761 251 761 q 444 844 439 761 l 589 844 q 342 654 569 654 z "},"ẵ":{"ha":683,"x_min":39,"x_max":669,"o":"m 669 139 l 669 0 l 413 0 l 393 50 q 222 -14 321 -14 q 88 30 138 -14 q 39 149 39 74 q 102 280 39 238 q 260 322 165 322 q 372 306 325 322 l 372 321 q 275 418 372 418 q 195 408 236 418 q 93 371 154 397 l 42 507 q 342 574 193 574 q 539 511 469 574 q 608 335 608 449 l 608 139 l 669 139 m 253 164 q 269 121 253 136 q 313 106 285 106 q 372 129 347 106 l 372 213 q 322 224 350 224 q 272 208 292 224 q 253 164 253 193 m 451 904 q 390 915 419 904 q 315 944 360 925 q 267 965 286 958 q 232 972 249 972 q 171 913 176 972 l 56 913 q 113 1065 64 1017 q 233 1113 161 1113 q 291 1103 264 1113 q 353 1076 318 1093 q 407 1053 385 1061 q 451 1044 429 1044 q 513 1104 507 1044 l 628 1104 q 451 904 611 904 m 342 654 q 94 844 106 654 l 239 844 q 342 761 251 761 q 444 844 439 761 l 589 844 q 342 654 569 654 z "},"ǎ":{"ha":683,"x_min":39,"x_max":669,"o":"m 669 139 l 669 0 l 413 0 l 393 50 q 222 -14 321 -14 q 88 30 138 -14 q 39 149 39 74 q 102 280 39 238 q 260 322 165 322 q 372 306 325 322 l 372 321 q 275 418 372 418 q 195 408 236 418 q 93 371 154 397 l 42 507 q 342 574 193 574 q 539 511 469 574 q 608 335 608 449 l 608 139 l 669 139 m 253 164 q 269 121 253 136 q 313 106 285 106 q 372 129 347 106 l 372 213 q 322 224 350 224 q 272 208 292 224 q 253 164 253 193 m 108 900 l 268 900 l 349 742 l 431 900 l 574 900 l 482 646 l 217 646 l 108 900 z "},"â":{"ha":683,"x_min":39,"x_max":669,"o":"m 669 139 l 669 0 l 413 0 l 393 50 q 222 -14 321 -14 q 88 30 138 -14 q 39 149 39 74 q 102 280 39 238 q 260 322 165 322 q 372 306 325 322 l 372 321 q 275 418 372 418 q 195 408 236 418 q 93 371 154 397 l 42 507 q 342 574 193 574 q 539 511 469 574 q 608 335 608 449 l 608 139 l 669 139 m 253 164 q 269 121 253 136 q 313 106 285 106 q 372 129 347 106 l 372 213 q 322 224 350 224 q 272 208 292 224 q 253 164 253 193 m 219 897 l 467 897 l 585 646 l 438 646 l 342 800 l 246 646 l 99 646 l 219 897 z "},"ấ":{"ha":683,"x_min":39,"x_max":764,"o":"m 669 139 l 669 0 l 413 0 l 393 50 q 222 -14 321 -14 q 88 30 138 -14 q 39 149 39 74 q 102 280 39 238 q 260 322 165 322 q 372 306 325 322 l 372 321 q 275 418 372 418 q 195 408 236 418 q 93 371 154 397 l 42 507 q 342 574 193 574 q 539 511 469 574 q 608 335 608 449 l 608 139 l 669 139 m 253 164 q 269 121 253 136 q 313 106 285 106 q 372 129 347 106 l 372 213 q 322 224 350 224 q 272 208 292 224 q 253 164 253 193 m 599 975 l 764 975 l 647 776 l 539 776 l 599 975 m 233 842 l 453 842 l 571 646 l 424 646 l 342 744 l 260 646 l 113 646 l 233 842 z "},"ậ":{"ha":683,"x_min":39,"x_max":669,"o":"m 669 139 l 669 0 l 413 0 l 393 50 q 222 -14 321 -14 q 88 30 138 -14 q 39 149 39 74 q 102 280 39 238 q 260 322 165 322 q 372 306 325 322 l 372 321 q 275 418 372 418 q 195 408 236 418 q 93 371 154 397 l 42 507 q 342 574 193 574 q 539 511 469 574 q 608 335 608 449 l 608 139 l 669 139 m 253 164 q 269 121 253 136 q 313 106 285 106 q 372 129 347 106 l 372 213 q 322 224 350 224 q 272 208 292 224 q 253 164 253 193 m 364 -296 q 278 -266 310 -296 q 246 -187 246 -236 q 278 -110 246 -139 q 364 -81 310 -81 q 450 -110 418 -81 q 482 -190 482 -140 q 449 -267 482 -237 q 364 -296 417 -296 m 219 897 l 467 897 l 585 646 l 438 646 l 342 800 l 246 646 l 99 646 l 219 897 z "},"ầ":{"ha":683,"x_min":39,"x_max":694,"o":"m 669 139 l 669 0 l 413 0 l 393 50 q 222 -14 321 -14 q 88 30 138 -14 q 39 149 39 74 q 102 280 39 238 q 260 322 165 322 q 372 306 325 322 l 372 321 q 275 418 372 418 q 195 408 236 418 q 93 371 154 397 l 42 507 q 342 574 193 574 q 539 511 469 574 q 608 335 608 449 l 608 139 l 669 139 m 253 164 q 269 121 253 136 q 313 106 285 106 q 372 129 347 106 l 372 213 q 322 224 350 224 q 272 208 292 224 q 253 164 253 193 m 586 776 l 469 975 l 635 975 l 694 776 l 586 776 m 233 842 l 453 842 l 571 646 l 424 646 l 342 744 l 260 646 l 113 646 l 233 842 z "},"ẩ":{"ha":683,"x_min":39,"x_max":708,"o":"m 669 139 l 669 0 l 413 0 l 393 50 q 222 -14 321 -14 q 88 30 138 -14 q 39 149 39 74 q 102 280 39 238 q 260 322 165 322 q 372 306 325 322 l 372 321 q 275 418 372 418 q 195 408 236 418 q 93 371 154 397 l 42 507 q 342 574 193 574 q 539 511 469 574 q 608 335 608 449 l 608 139 l 669 139 m 253 164 q 269 121 253 136 q 313 106 285 106 q 372 129 347 106 l 372 213 q 322 224 350 224 q 272 208 292 224 q 253 164 253 193 m 547 813 q 581 835 569 824 q 592 867 592 847 q 576 901 592 889 q 532 914 560 914 q 446 888 488 914 l 422 960 q 490 1000 451 985 q 569 1015 528 1015 q 670 983 632 1015 q 708 894 708 950 q 672 803 708 840 q 567 751 635 767 l 547 813 m 233 842 l 453 842 l 571 646 l 424 646 l 342 744 l 260 646 l 113 646 l 233 842 z "},"ẫ":{"ha":683,"x_min":39,"x_max":669,"o":"m 669 139 l 669 0 l 413 0 l 393 50 q 222 -14 321 -14 q 88 30 138 -14 q 39 149 39 74 q 102 280 39 238 q 260 322 165 322 q 372 306 325 322 l 372 321 q 275 418 372 418 q 195 408 236 418 q 93 371 154 397 l 42 507 q 342 574 193 574 q 539 511 469 574 q 608 335 608 449 l 608 139 l 669 139 m 253 164 q 269 121 253 136 q 313 106 285 106 q 372 129 347 106 l 372 213 q 322 224 350 224 q 272 208 292 224 q 253 164 253 193 m 451 904 q 403 912 425 904 q 344 936 381 919 q 296 957 314 950 q 260 964 278 964 q 199 904 204 964 l 83 904 q 132 1050 92 1004 q 233 1096 172 1096 q 282 1088 260 1096 q 338 1064 304 1081 q 386 1043 368 1050 q 424 1036 404 1036 q 485 1088 479 1036 l 600 1088 q 451 904 585 904 m 233 842 l 453 842 l 571 646 l 424 646 l 342 744 l 260 646 l 113 646 l 233 842 z "},"ȁ":{"ha":683,"x_min":-15,"x_max":669,"o":"m 669 139 l 669 0 l 413 0 l 393 50 q 222 -14 321 -14 q 88 30 138 -14 q 39 149 39 74 q 102 280 39 238 q 260 322 165 322 q 372 306 325 322 l 372 321 q 275 418 372 418 q 195 408 236 418 q 93 371 154 397 l 42 507 q 342 574 193 574 q 539 511 469 574 q 608 335 608 449 l 608 139 l 669 139 m 253 164 q 269 121 253 136 q 313 106 285 106 q 372 129 347 106 l 372 213 q 322 224 350 224 q 272 208 292 224 q 253 164 253 193 m -15 892 l 203 892 l 260 638 l 124 638 l -15 892 m 283 892 l 501 892 l 558 638 l 421 638 l 283 892 z "},"ä":{"ha":683,"x_min":31,"x_max":669,"o":"m 669 139 l 669 0 l 413 0 l 393 50 q 222 -14 321 -14 q 88 30 138 -14 q 39 149 39 74 q 102 280 39 238 q 260 322 165 322 q 372 306 325 322 l 372 321 q 275 418 372 418 q 195 408 236 418 q 93 371 154 397 l 42 507 q 342 574 193 574 q 539 511 469 574 q 608 335 608 449 l 608 139 l 669 139 m 253 164 q 269 121 253 136 q 313 106 285 106 q 372 129 347 106 l 372 213 q 322 224 350 224 q 272 208 292 224 q 253 164 253 193 m 157 674 q 67 706 104 674 q 31 794 31 738 q 67 883 31 851 q 157 915 104 915 q 247 883 210 915 q 283 794 283 851 q 247 706 283 738 q 157 674 210 674 m 526 674 q 437 706 474 674 q 400 794 400 738 q 437 883 400 851 q 526 915 474 915 q 616 883 579 915 q 653 794 653 851 q 616 706 653 738 q 526 674 579 674 z "},"ȧ":{"ha":683,"x_min":39,"x_max":669,"o":"m 669 139 l 669 0 l 413 0 l 393 50 q 222 -14 321 -14 q 88 30 138 -14 q 39 149 39 74 q 102 280 39 238 q 260 322 165 322 q 372 306 325 322 l 372 321 q 275 418 372 418 q 195 408 236 418 q 93 371 154 397 l 42 507 q 342 574 193 574 q 539 511 469 574 q 608 335 608 449 l 608 139 l 669 139 m 253 164 q 269 121 253 136 q 313 106 285 106 q 372 129 347 106 l 372 213 q 322 224 350 224 q 272 208 292 224 q 253 164 253 193 m 342 674 q 246 708 282 674 q 210 801 210 743 q 246 893 210 858 q 342 928 282 928 q 438 892 403 928 q 474 799 474 857 q 437 708 474 742 q 342 674 400 674 z "},"ạ":{"ha":683,"x_min":39,"x_max":669,"o":"m 669 139 l 669 0 l 413 0 l 393 50 q 222 -14 321 -14 q 88 30 138 -14 q 39 149 39 74 q 102 280 39 238 q 260 322 165 322 q 372 306 325 322 l 372 321 q 275 418 372 418 q 195 408 236 418 q 93 371 154 397 l 42 507 q 342 574 193 574 q 539 511 469 574 q 608 335 608 449 l 608 139 l 669 139 m 253 164 q 269 121 253 136 q 313 106 285 106 q 372 129 347 106 l 372 213 q 322 224 350 224 q 272 208 292 224 q 253 164 253 193 m 364 -296 q 278 -266 310 -296 q 246 -187 246 -236 q 278 -110 246 -139 q 364 -81 310 -81 q 450 -110 418 -81 q 482 -190 482 -140 q 449 -267 482 -237 q 364 -296 417 -296 z "},"à":{"ha":683,"x_min":39,"x_max":669,"o":"m 669 139 l 669 0 l 413 0 l 393 50 q 222 -14 321 -14 q 88 30 138 -14 q 39 149 39 74 q 102 280 39 238 q 260 322 165 322 q 372 306 325 322 l 372 321 q 275 418 372 418 q 195 408 236 418 q 93 371 154 397 l 42 507 q 342 574 193 574 q 539 511 469 574 q 608 335 608 449 l 608 139 l 669 139 m 253 164 q 269 121 253 136 q 313 106 285 106 q 372 129 347 106 l 372 213 q 322 224 350 224 q 272 208 292 224 q 253 164 253 193 m 132 892 l 350 892 l 406 638 l 269 638 l 132 892 z "},"ả":{"ha":683,"x_min":39,"x_max":669,"o":"m 669 139 l 669 0 l 413 0 l 393 50 q 222 -14 321 -14 q 88 30 138 -14 q 39 149 39 74 q 102 280 39 238 q 260 322 165 322 q 372 306 325 322 l 372 321 q 275 418 372 418 q 195 408 236 418 q 93 371 154 397 l 42 507 q 342 574 193 574 q 539 511 469 574 q 608 335 608 449 l 608 139 l 669 139 m 253 164 q 269 121 253 136 q 313 106 285 106 q 372 129 347 106 l 372 213 q 322 224 350 224 q 272 208 292 224 q 253 164 253 193 m 311 682 q 344 705 333 693 q 356 736 356 717 q 340 771 356 758 q 296 783 324 783 q 210 757 251 783 l 186 829 q 253 869 215 854 q 333 885 292 885 q 434 852 396 885 q 472 764 472 819 q 435 673 472 710 q 331 621 399 636 l 311 682 z "},"ȃ":{"ha":683,"x_min":39,"x_max":669,"o":"m 669 139 l 669 0 l 413 0 l 393 50 q 222 -14 321 -14 q 88 30 138 -14 q 39 149 39 74 q 102 280 39 238 q 260 322 165 322 q 372 306 325 322 l 372 321 q 275 418 372 418 q 195 408 236 418 q 93 371 154 397 l 42 507 q 342 574 193 574 q 539 511 469 574 q 608 335 608 449 l 608 139 l 669 139 m 253 164 q 269 121 253 136 q 313 106 285 106 q 372 129 347 106 l 372 213 q 322 224 350 224 q 272 208 292 224 q 253 164 253 193 m 108 619 q 173 796 113 736 q 342 856 233 856 q 510 796 450 856 q 575 619 571 736 l 436 619 q 342 711 424 711 q 277 688 301 711 q 247 619 253 664 l 108 619 z "},"ā":{"ha":683,"x_min":39,"x_max":669,"o":"m 669 139 l 669 0 l 413 0 l 393 50 q 222 -14 321 -14 q 88 30 138 -14 q 39 149 39 74 q 102 280 39 238 q 260 322 165 322 q 372 306 325 322 l 372 321 q 275 418 372 418 q 195 408 236 418 q 93 371 154 397 l 42 507 q 342 574 193 574 q 539 511 469 574 q 608 335 608 449 l 608 139 l 669 139 m 253 164 q 269 121 253 136 q 313 106 285 106 q 372 129 347 106 l 372 213 q 322 224 350 224 q 272 208 292 224 q 253 164 253 193 m 147 776 l 536 776 l 536 649 l 147 649 l 147 776 z "},"ą":{"ha":683,"x_min":39,"x_max":674,"o":"m 617 -168 q 674 -160 644 -168 l 674 -256 q 557 -281 611 -281 q 460 -247 494 -281 q 425 -162 425 -214 q 524 0 425 -79 l 413 0 l 393 50 q 222 -14 321 -14 q 88 30 138 -14 q 39 149 39 74 q 102 280 39 238 q 260 322 165 322 q 372 306 325 322 l 372 321 q 275 418 372 418 q 195 408 236 418 q 93 371 154 397 l 42 507 q 342 574 193 574 q 539 511 469 574 q 608 335 608 449 l 608 139 l 669 139 l 669 0 l 600 0 q 556 -61 569 -36 q 542 -111 542 -86 q 562 -152 542 -136 q 617 -168 582 -168 m 253 164 q 269 121 253 136 q 313 106 285 106 q 372 129 347 106 l 372 213 q 322 224 350 224 q 272 208 292 224 q 253 164 253 193 z "},"å":{"ha":683,"x_min":39,"x_max":669,"o":"m 669 139 l 669 0 l 413 0 l 393 50 q 222 -14 321 -14 q 88 30 138 -14 q 39 149 39 74 q 102 280 39 238 q 260 322 165 322 q 372 306 325 322 l 372 321 q 275 418 372 418 q 195 408 236 418 q 93 371 154 397 l 42 507 q 342 574 193 574 q 539 511 469 574 q 608 335 608 449 l 608 139 l 669 139 m 253 164 q 269 121 253 136 q 313 106 285 106 q 372 129 347 106 l 372 213 q 322 224 350 224 q 272 208 292 224 q 253 164 253 193 m 346 644 q 242 679 279 644 q 204 776 204 714 q 240 875 204 840 q 342 910 276 910 q 442 874 406 910 q 479 776 479 839 q 444 680 479 715 q 346 644 408 644 m 342 714 q 387 730 371 714 q 403 776 403 746 q 387 824 403 807 q 342 840 371 840 q 297 824 313 840 q 281 776 281 807 q 297 730 281 746 q 342 714 313 714 z "},"ǻ":{"ha":683,"x_min":39,"x_max":669,"o":"m 669 139 l 669 0 l 413 0 l 393 50 q 222 -14 321 -14 q 88 30 138 -14 q 39 149 39 74 q 102 280 39 238 q 260 322 165 322 q 372 306 325 322 l 372 321 q 275 418 372 418 q 195 408 236 418 q 93 371 154 397 l 42 507 q 342 574 193 574 q 539 511 469 574 q 608 335 608 449 l 608 139 l 669 139 m 253 164 q 269 121 253 136 q 313 106 285 106 q 372 129 347 106 l 372 213 q 322 224 350 224 q 272 208 292 224 q 253 164 253 193 m 346 644 q 242 679 279 644 q 204 776 204 714 q 240 875 204 840 q 342 910 276 910 q 442 874 406 910 q 479 776 479 839 q 444 680 479 715 q 346 644 408 644 m 342 714 q 387 730 371 714 q 403 776 403 746 q 387 824 403 807 q 342 840 371 840 q 297 824 313 840 q 281 776 281 807 q 297 730 281 746 q 342 714 313 714 m 329 1221 l 547 1221 l 410 967 l 274 967 l 329 1221 z "},"ã":{"ha":683,"x_min":39,"x_max":669,"o":"m 669 139 l 669 0 l 413 0 l 393 50 q 222 -14 321 -14 q 88 30 138 -14 q 39 149 39 74 q 102 280 39 238 q 260 322 165 322 q 372 306 325 322 l 372 321 q 275 418 372 418 q 195 408 236 418 q 93 371 154 397 l 42 507 q 342 574 193 574 q 539 511 469 574 q 608 335 608 449 l 608 139 l 669 139 m 253 164 q 269 121 253 136 q 313 106 285 106 q 372 129 347 106 l 372 213 q 322 224 350 224 q 272 208 292 224 q 253 164 253 193 m 446 654 q 383 665 414 654 q 313 694 351 675 q 232 722 257 722 q 171 663 176 722 l 56 663 q 114 835 64 781 q 238 890 164 890 q 299 880 269 890 q 369 850 329 869 q 451 822 428 822 q 513 882 507 822 l 628 882 q 569 709 619 764 q 446 654 519 654 z "},"æ":{"ha":985,"x_min":39,"x_max":965,"o":"m 246 -14 q 94 27 149 -14 q 39 149 39 68 q 110 280 39 238 q 288 322 182 322 l 372 322 l 372 326 q 347 394 372 371 q 275 418 322 418 q 195 408 236 418 q 93 371 154 397 l 42 507 q 187 557 117 540 q 332 574 257 574 q 514 531 443 574 q 694 574 592 574 q 893 494 821 574 q 965 286 965 414 l 965 243 l 607 243 q 654 185 619 204 q 739 167 689 167 q 899 217 831 167 l 963 72 q 844 8 911 31 q 700 -14 778 -14 q 461 65 547 -14 q 246 -14 369 -14 m 743 340 q 676 419 743 419 q 601 340 613 419 l 743 340 m 324 106 q 407 138 364 106 q 381 224 385 183 l 336 224 q 276 208 300 224 q 253 164 253 193 q 272 121 253 136 q 324 106 290 106 z "},"ǽ":{"ha":985,"x_min":39,"x_max":965,"o":"m 246 -14 q 94 27 149 -14 q 39 149 39 68 q 110 280 39 238 q 288 322 182 322 l 372 322 l 372 326 q 347 394 372 371 q 275 418 322 418 q 195 408 236 418 q 93 371 154 397 l 42 507 q 187 557 117 540 q 332 574 257 574 q 514 531 443 574 q 694 574 592 574 q 893 494 821 574 q 965 286 965 414 l 965 243 l 607 243 q 654 185 619 204 q 739 167 689 167 q 899 217 831 167 l 963 72 q 844 8 911 31 q 700 -14 778 -14 q 461 65 547 -14 q 246 -14 369 -14 m 743 340 q 676 419 743 419 q 601 340 613 419 l 743 340 m 324 106 q 407 138 364 106 q 381 224 385 183 l 336 224 q 276 208 300 224 q 253 164 253 193 q 272 121 253 136 q 324 106 290 106 m 500 892 l 718 892 l 581 638 l 444 638 l 500 892 z "},"ǣ":{"ha":985,"x_min":39,"x_max":965,"o":"m 246 -14 q 94 27 149 -14 q 39 149 39 68 q 110 280 39 238 q 288 322 182 322 l 372 322 l 372 326 q 347 394 372 371 q 275 418 322 418 q 195 408 236 418 q 93 371 154 397 l 42 507 q 187 557 117 540 q 332 574 257 574 q 514 531 443 574 q 694 574 592 574 q 893 494 821 574 q 965 286 965 414 l 965 243 l 607 243 q 654 185 619 204 q 739 167 689 167 q 899 217 831 167 l 963 72 q 844 8 911 31 q 700 -14 778 -14 q 461 65 547 -14 q 246 -14 369 -14 m 743 340 q 676 419 743 419 q 601 340 613 419 l 743 340 m 324 106 q 407 138 364 106 q 381 224 385 183 l 336 224 q 276 208 300 224 q 253 164 253 193 q 272 121 253 136 q 324 106 290 106 m 318 776 l 707 776 l 707 649 l 318 649 l 318 776 z "},"b":{"ha":747,"x_min":14,"x_max":725,"o":"m 482 574 q 660 494 596 574 q 725 286 725 415 q 657 68 725 150 q 474 -14 589 -14 q 301 39 376 -14 l 297 0 l 14 0 l 14 139 l 75 139 l 75 685 l 14 685 l 14 824 l 318 824 l 318 514 q 482 574 382 574 m 381 167 q 449 198 424 167 q 475 279 475 229 q 449 364 475 335 q 378 393 424 393 q 318 374 344 393 l 318 182 q 381 167 346 167 z "},"ḃ":{"ha":747,"x_min":14,"x_max":725,"o":"m 482 574 q 660 494 596 574 q 725 286 725 415 q 657 68 725 150 q 474 -14 589 -14 q 301 39 376 -14 l 297 0 l 14 0 l 14 139 l 75 139 l 75 685 l 14 685 l 14 824 l 318 824 l 318 514 q 482 574 382 574 m 381 167 q 449 198 424 167 q 475 279 475 229 q 449 364 475 335 q 378 393 424 393 q 318 374 344 393 l 318 182 q 381 167 346 167 m 197 938 q 101 972 138 938 q 65 1065 65 1007 q 101 1157 65 1122 q 197 1192 138 1192 q 294 1156 258 1192 q 329 1063 329 1121 q 292 972 329 1006 q 197 938 256 938 z "},"c":{"ha":628,"x_min":22,"x_max":608,"o":"m 608 71 q 343 -14 499 -14 q 174 24 247 -14 q 62 129 101 61 q 22 288 22 197 q 58 438 22 372 q 156 538 94 503 q 293 574 218 574 q 436 528 383 574 l 436 560 l 590 560 l 590 317 l 446 317 q 342 419 438 419 q 270 388 296 419 q 244 300 244 357 q 282 201 244 238 q 385 165 319 165 q 544 215 476 165 l 608 71 z "},"ć":{"ha":628,"x_min":22,"x_max":608,"o":"m 608 71 q 343 -14 499 -14 q 174 24 247 -14 q 62 129 101 61 q 22 288 22 197 q 58 438 22 372 q 156 538 94 503 q 293 574 218 574 q 436 528 383 574 l 436 560 l 590 560 l 590 317 l 446 317 q 342 419 438 419 q 270 388 296 419 q 244 300 244 357 q 282 201 244 238 q 385 165 319 165 q 544 215 476 165 l 608 71 m 321 892 l 539 892 l 401 638 l 265 638 l 321 892 z "},"č":{"ha":628,"x_min":22,"x_max":608,"o":"m 608 71 q 343 -14 499 -14 q 174 24 247 -14 q 62 129 101 61 q 22 288 22 197 q 58 438 22 372 q 156 538 94 503 q 293 574 218 574 q 436 528 383 574 l 436 560 l 590 560 l 590 317 l 446 317 q 342 419 438 419 q 270 388 296 419 q 244 300 244 357 q 282 201 244 238 q 385 165 319 165 q 544 215 476 165 l 608 71 m 100 900 l 260 900 l 340 742 l 422 900 l 565 900 l 474 646 l 208 646 l 100 900 z "},"ç":{"ha":628,"x_min":22,"x_max":608,"o":"m 378 -78 q 455 -117 428 -86 q 482 -186 482 -147 q 442 -268 482 -240 q 343 -296 401 -296 q 277 -286 310 -296 q 219 -258 244 -276 l 219 -199 q 297 -219 264 -219 q 346 -174 346 -219 q 326 -140 346 -151 q 264 -126 307 -129 l 310 -12 q 101 78 179 -3 q 22 288 22 160 q 58 438 22 372 q 156 538 94 503 q 293 574 218 574 q 436 528 383 574 l 436 560 l 590 560 l 590 317 l 446 317 q 342 419 438 419 q 270 388 296 419 q 244 300 244 357 q 282 201 244 238 q 385 165 319 165 q 544 215 476 165 l 608 71 q 396 -11 518 1 l 378 -78 z "},"ḉ":{"ha":628,"x_min":22,"x_max":608,"o":"m 401 638 l 265 638 l 321 892 l 539 892 l 401 638 m 378 -78 q 455 -117 428 -86 q 482 -186 482 -147 q 442 -268 482 -240 q 343 -296 401 -296 q 277 -286 310 -296 q 219 -258 244 -276 l 219 -199 q 297 -219 264 -219 q 346 -174 346 -219 q 326 -140 346 -151 q 264 -126 307 -129 l 310 -12 q 101 78 179 -3 q 22 288 22 160 q 58 438 22 372 q 156 538 94 503 q 293 574 218 574 q 436 528 383 574 l 436 560 l 590 560 l 590 317 l 446 317 q 342 419 438 419 q 270 388 296 419 q 244 300 244 357 q 282 201 244 238 q 385 165 319 165 q 544 215 476 165 l 608 71 q 396 -11 518 1 l 378 -78 z "},"ĉ":{"ha":628,"x_min":22,"x_max":608,"o":"m 608 71 q 343 -14 499 -14 q 174 24 247 -14 q 62 129 101 61 q 22 288 22 197 q 58 438 22 372 q 156 538 94 503 q 293 574 218 574 q 436 528 383 574 l 436 560 l 590 560 l 590 317 l 446 317 q 342 419 438 419 q 270 388 296 419 q 244 300 244 357 q 282 201 244 238 q 385 165 319 165 q 544 215 476 165 l 608 71 m 211 897 l 458 897 l 576 646 l 429 646 l 333 800 l 238 646 l 90 646 l 211 897 z "},"ċ":{"ha":628,"x_min":22,"x_max":608,"o":"m 608 71 q 343 -14 499 -14 q 174 24 247 -14 q 62 129 101 61 q 22 288 22 197 q 58 438 22 372 q 156 538 94 503 q 293 574 218 574 q 436 528 383 574 l 436 560 l 590 560 l 590 317 l 446 317 q 342 419 438 419 q 270 388 296 419 q 244 300 244 357 q 282 201 244 238 q 385 165 319 165 q 544 215 476 165 l 608 71 m 333 674 q 238 708 274 674 q 201 801 201 743 q 238 893 201 858 q 333 928 274 928 q 430 892 394 928 q 465 799 465 857 q 428 708 465 742 q 333 674 392 674 z "},"d":{"ha":744,"x_min":22,"x_max":733,"o":"m 733 139 l 733 0 l 450 0 l 446 39 q 272 -14 371 -14 q 90 67 157 -14 q 22 283 22 149 q 53 434 22 368 q 142 537 85 500 q 272 574 199 574 q 429 518 369 574 l 429 685 l 346 685 l 346 824 l 672 824 l 672 139 l 733 139 m 272 279 q 298 198 272 229 q 367 167 324 167 q 429 182 401 167 l 429 374 q 369 393 406 393 q 298 364 324 393 q 272 279 272 335 z "},"ð":{"ha":689,"x_min":22,"x_max":661,"o":"m 447 719 q 661 296 661 503 q 574 67 661 147 q 336 -14 486 -14 q 106 61 190 -14 q 22 263 22 136 q 55 402 22 340 q 151 499 88 464 q 303 535 214 535 q 382 525 351 535 q 278 644 346 576 l 117 572 l 63 682 l 175 732 q 68 810 121 775 l 176 944 q 351 810 268 881 l 500 876 l 556 768 l 447 719 m 336 167 q 404 191 381 167 q 428 261 428 215 q 404 330 428 306 q 336 354 381 354 q 268 330 292 354 q 244 261 244 306 q 268 191 244 215 q 336 167 292 167 z "},"ď":{"ha":926,"x_min":22,"x_max":953,"o":"m 733 139 l 733 0 l 450 0 l 446 39 q 272 -14 371 -14 q 90 67 157 -14 q 22 283 22 149 q 53 434 22 368 q 142 537 85 500 q 272 574 199 574 q 429 518 369 574 l 429 685 l 346 685 l 346 824 l 672 824 l 672 139 l 733 139 m 272 279 q 298 198 272 229 q 367 167 324 167 q 429 182 401 167 l 429 374 q 369 393 406 393 q 298 364 324 393 q 272 279 272 335 m 738 515 q 813 547 789 518 q 836 639 836 575 l 735 639 l 735 824 l 953 824 l 953 679 q 904 499 953 560 q 738 439 856 439 l 738 515 z "},"đ":{"ha":792,"x_min":22,"x_max":731,"o":"m 672 636 l 672 151 l 731 151 l 731 0 l 450 0 l 446 39 q 272 -14 371 -14 q 90 67 157 -14 q 22 283 22 149 q 53 434 22 368 q 142 537 85 500 q 272 574 199 574 q 429 518 369 574 l 429 636 l 286 636 l 286 736 l 429 736 l 429 810 l 672 810 l 672 736 l 731 736 l 731 636 l 672 636 m 272 279 q 298 198 272 229 q 367 167 324 167 q 429 182 401 167 l 429 374 q 369 393 406 393 q 298 364 324 393 q 272 279 272 335 z "},"ḋ":{"ha":744,"x_min":22,"x_max":733,"o":"m 733 139 l 733 0 l 450 0 l 446 39 q 272 -14 371 -14 q 90 67 157 -14 q 22 283 22 149 q 53 434 22 368 q 142 537 85 500 q 272 574 199 574 q 429 518 369 574 l 429 685 l 346 685 l 346 824 l 672 824 l 672 139 l 733 139 m 272 279 q 298 198 272 229 q 367 167 324 167 q 429 182 401 167 l 429 374 q 369 393 406 393 q 298 364 324 393 q 272 279 272 335 m 551 938 q 456 972 492 938 q 419 1065 419 1007 q 456 1157 419 1122 q 551 1192 492 1192 q 648 1156 613 1192 q 683 1063 683 1121 q 647 972 683 1006 q 551 938 610 938 z "},"ḍ":{"ha":744,"x_min":22,"x_max":733,"o":"m 733 139 l 733 0 l 450 0 l 446 39 q 272 -14 371 -14 q 90 67 157 -14 q 22 283 22 149 q 53 434 22 368 q 142 537 85 500 q 272 574 199 574 q 429 518 369 574 l 429 685 l 346 685 l 346 824 l 672 824 l 672 139 l 733 139 m 272 279 q 298 198 272 229 q 367 167 324 167 q 429 182 401 167 l 429 374 q 369 393 406 393 q 298 364 324 393 q 272 279 272 335 m 396 -296 q 310 -266 342 -296 q 278 -187 278 -236 q 310 -110 278 -139 q 396 -81 342 -81 q 482 -110 450 -81 q 514 -190 514 -140 q 481 -267 514 -237 q 396 -296 449 -296 z "},"ḏ":{"ha":744,"x_min":22,"x_max":733,"o":"m 733 139 l 733 0 l 450 0 l 446 39 q 272 -14 371 -14 q 90 67 157 -14 q 22 283 22 149 q 53 434 22 368 q 142 537 85 500 q 272 574 199 574 q 429 518 369 574 l 429 685 l 346 685 l 346 824 l 672 824 l 672 139 l 733 139 m 272 279 q 298 198 272 229 q 367 167 324 167 q 429 182 401 167 l 429 374 q 369 393 406 393 q 298 364 324 393 q 272 279 272 335 m 201 -122 l 590 -122 l 590 -250 l 201 -250 l 201 -122 z "},"ǳ":{"ha":1385,"x_min":22,"x_max":1351,"o":"m 733 139 l 733 0 l 450 0 l 446 39 q 272 -14 371 -14 q 90 67 157 -14 q 22 283 22 149 q 53 434 22 368 q 142 537 85 500 q 272 574 199 574 q 429 518 369 574 l 429 685 l 346 685 l 346 824 l 672 824 l 672 139 l 733 139 m 272 279 q 298 198 272 229 q 367 167 324 167 q 429 182 401 167 l 429 374 q 369 393 406 393 q 298 364 324 393 q 272 279 272 335 m 778 111 l 1058 428 l 917 428 l 917 328 l 778 328 l 778 560 l 1339 560 l 1339 449 l 1053 129 l 1213 129 l 1213 246 l 1351 246 l 1351 0 l 778 0 l 778 111 z "},"ǆ":{"ha":1385,"x_min":22,"x_max":1351,"o":"m 733 139 l 733 0 l 450 0 l 446 39 q 272 -14 371 -14 q 90 67 157 -14 q 22 283 22 149 q 53 434 22 368 q 142 537 85 500 q 272 574 199 574 q 429 518 369 574 l 429 685 l 346 685 l 346 824 l 672 824 l 672 139 l 733 139 m 272 279 q 298 198 272 229 q 367 167 324 167 q 429 182 401 167 l 429 374 q 369 393 406 393 q 298 364 324 393 q 272 279 272 335 m 778 111 l 1058 428 l 917 428 l 917 328 l 778 328 l 778 560 l 1339 560 l 1339 449 l 1053 129 l 1213 129 l 1213 246 l 1351 246 l 1351 0 l 778 0 l 778 111 m 839 900 l 999 900 l 1079 742 l 1161 900 l 1304 900 l 1213 646 l 947 646 l 839 900 z "},"e":{"ha":631,"x_min":22,"x_max":611,"o":"m 611 243 l 253 243 q 300 185 265 204 q 385 167 335 167 q 544 217 476 167 l 608 72 q 490 8 557 31 q 346 -14 424 -14 q 108 63 194 -14 q 22 281 22 139 q 61 432 22 365 q 170 536 100 499 q 331 574 240 574 q 481 537 418 574 q 578 435 544 500 q 611 286 611 369 l 611 243 m 389 340 q 322 419 389 419 q 247 340 258 419 l 389 340 z "},"é":{"ha":631,"x_min":22,"x_max":611,"o":"m 611 243 l 253 243 q 300 185 265 204 q 385 167 335 167 q 544 217 476 167 l 608 72 q 490 8 557 31 q 346 -14 424 -14 q 108 63 194 -14 q 22 281 22 139 q 61 432 22 365 q 170 536 100 499 q 331 574 240 574 q 481 537 418 574 q 578 435 544 500 q 611 286 611 369 l 611 243 m 389 340 q 322 419 389 419 q 247 340 258 419 l 389 340 m 339 892 l 557 892 l 419 638 l 283 638 l 339 892 z "},"ĕ":{"ha":631,"x_min":22,"x_max":611,"o":"m 611 243 l 253 243 q 300 185 265 204 q 385 167 335 167 q 544 217 476 167 l 608 72 q 490 8 557 31 q 346 -14 424 -14 q 108 63 194 -14 q 22 281 22 139 q 61 432 22 365 q 170 536 100 499 q 331 574 240 574 q 481 537 418 574 q 578 435 544 500 q 611 286 611 369 l 611 243 m 389 340 q 322 419 389 419 q 247 340 258 419 l 389 340 m 351 661 q 104 879 115 661 l 263 879 q 291 812 268 835 q 351 789 314 789 q 440 879 433 789 l 599 879 q 351 661 579 661 z "},"ě":{"ha":631,"x_min":22,"x_max":611,"o":"m 611 243 l 253 243 q 300 185 265 204 q 385 167 335 167 q 544 217 476 167 l 608 72 q 490 8 557 31 q 346 -14 424 -14 q 108 63 194 -14 q 22 281 22 139 q 61 432 22 365 q 170 536 100 499 q 331 574 240 574 q 481 537 418 574 q 578 435 544 500 q 611 286 611 369 l 611 243 m 389 340 q 322 419 389 419 q 247 340 258 419 l 389 340 m 118 900 l 278 900 l 358 742 l 440 900 l 583 900 l 492 646 l 226 646 l 118 900 z "},"ȩ":{"ha":631,"x_min":22,"x_max":611,"o":"m 611 243 l 253 243 q 300 185 265 204 q 385 167 335 167 q 544 217 476 167 l 608 72 q 408 -10 526 6 l 390 -78 q 467 -117 440 -86 q 494 -186 494 -147 q 454 -268 494 -240 q 356 -296 414 -296 q 290 -286 322 -296 q 232 -258 257 -276 l 232 -199 q 310 -219 276 -219 q 358 -174 358 -219 q 339 -140 358 -151 q 276 -126 319 -129 l 322 -14 q 101 69 181 -7 q 22 281 22 144 q 61 432 22 365 q 170 536 100 499 q 331 574 240 574 q 481 537 418 574 q 578 435 544 500 q 611 286 611 369 l 611 243 m 389 340 q 322 419 389 419 q 247 340 258 419 l 389 340 z "},"ḝ":{"ha":631,"x_min":22,"x_max":611,"o":"m 351 661 q 104 879 115 661 l 263 879 q 291 812 268 835 q 351 789 314 789 q 440 879 433 789 l 599 879 q 351 661 579 661 m 611 243 l 253 243 q 300 185 265 204 q 385 167 335 167 q 544 217 476 167 l 608 72 q 408 -10 526 6 l 390 -78 q 467 -117 440 -86 q 494 -186 494 -147 q 454 -268 494 -240 q 356 -296 414 -296 q 290 -286 322 -296 q 232 -258 257 -276 l 232 -199 q 310 -219 276 -219 q 358 -174 358 -219 q 339 -140 358 -151 q 276 -126 319 -129 l 322 -14 q 101 69 181 -7 q 22 281 22 144 q 61 432 22 365 q 170 536 100 499 q 331 574 240 574 q 481 537 418 574 q 578 435 544 500 q 611 286 611 369 l 611 243 m 389 340 q 322 419 389 419 q 247 340 258 419 l 389 340 z "},"ê":{"ha":631,"x_min":22,"x_max":611,"o":"m 611 243 l 253 243 q 300 185 265 204 q 385 167 335 167 q 544 217 476 167 l 608 72 q 490 8 557 31 q 346 -14 424 -14 q 108 63 194 -14 q 22 281 22 139 q 61 432 22 365 q 170 536 100 499 q 331 574 240 574 q 481 537 418 574 q 578 435 544 500 q 611 286 611 369 l 611 243 m 389 340 q 322 419 389 419 q 247 340 258 419 l 389 340 m 229 897 l 476 897 l 594 646 l 447 646 l 351 800 l 256 646 l 108 646 l 229 897 z "},"ế":{"ha":631,"x_min":22,"x_max":774,"o":"m 611 243 l 253 243 q 300 185 265 204 q 385 167 335 167 q 544 217 476 167 l 608 72 q 490 8 557 31 q 346 -14 424 -14 q 108 63 194 -14 q 22 281 22 139 q 61 432 22 365 q 170 536 100 499 q 331 574 240 574 q 481 537 418 574 q 578 435 544 500 q 611 286 611 369 l 611 243 m 389 340 q 322 419 389 419 q 247 340 258 419 l 389 340 m 608 975 l 774 975 l 657 776 l 549 776 l 608 975 m 243 842 l 463 842 l 581 646 l 433 646 l 351 744 l 269 646 l 122 646 l 243 842 z "},"ệ":{"ha":631,"x_min":22,"x_max":611,"o":"m 611 243 l 253 243 q 300 185 265 204 q 385 167 335 167 q 544 217 476 167 l 608 72 q 490 8 557 31 q 346 -14 424 -14 q 108 63 194 -14 q 22 281 22 139 q 61 432 22 365 q 170 536 100 499 q 331 574 240 574 q 481 537 418 574 q 578 435 544 500 q 611 286 611 369 l 611 243 m 389 340 q 322 419 389 419 q 247 340 258 419 l 389 340 m 368 -296 q 282 -266 314 -296 q 250 -187 250 -236 q 282 -110 250 -139 q 368 -81 314 -81 q 454 -110 422 -81 q 486 -190 486 -140 q 453 -267 486 -237 q 368 -296 421 -296 m 229 897 l 476 897 l 594 646 l 447 646 l 351 800 l 256 646 l 108 646 l 229 897 z "},"ề":{"ha":631,"x_min":22,"x_max":704,"o":"m 611 243 l 253 243 q 300 185 265 204 q 385 167 335 167 q 544 217 476 167 l 608 72 q 490 8 557 31 q 346 -14 424 -14 q 108 63 194 -14 q 22 281 22 139 q 61 432 22 365 q 170 536 100 499 q 331 574 240 574 q 481 537 418 574 q 578 435 544 500 q 611 286 611 369 l 611 243 m 389 340 q 322 419 389 419 q 247 340 258 419 l 389 340 m 596 776 l 479 975 l 644 975 l 704 776 l 596 776 m 243 842 l 463 842 l 581 646 l 433 646 l 351 744 l 269 646 l 122 646 l 243 842 z "},"ể":{"ha":631,"x_min":22,"x_max":718,"o":"m 611 243 l 253 243 q 300 185 265 204 q 385 167 335 167 q 544 217 476 167 l 608 72 q 490 8 557 31 q 346 -14 424 -14 q 108 63 194 -14 q 22 281 22 139 q 61 432 22 365 q 170 536 100 499 q 331 574 240 574 q 481 537 418 574 q 578 435 544 500 q 611 286 611 369 l 611 243 m 389 340 q 322 419 389 419 q 247 340 258 419 l 389 340 m 557 813 q 590 835 579 824 q 601 867 601 847 q 585 901 601 889 q 542 914 569 914 q 456 888 497 914 l 432 960 q 499 1000 461 985 q 579 1015 538 1015 q 680 983 642 1015 q 718 894 718 950 q 681 803 718 840 q 576 751 644 767 l 557 813 m 243 842 l 463 842 l 581 646 l 433 646 l 351 744 l 269 646 l 122 646 l 243 842 z "},"ễ":{"ha":631,"x_min":22,"x_max":611,"o":"m 611 243 l 253 243 q 300 185 265 204 q 385 167 335 167 q 544 217 476 167 l 608 72 q 490 8 557 31 q 346 -14 424 -14 q 108 63 194 -14 q 22 281 22 139 q 61 432 22 365 q 170 536 100 499 q 331 574 240 574 q 481 537 418 574 q 578 435 544 500 q 611 286 611 369 l 611 243 m 389 340 q 322 419 389 419 q 247 340 258 419 l 389 340 m 461 904 q 413 912 435 904 q 354 936 390 919 q 306 957 324 950 q 269 964 288 964 q 208 904 214 964 l 93 904 q 142 1050 101 1004 q 243 1096 182 1096 q 292 1088 269 1096 q 347 1064 314 1081 q 396 1043 378 1050 q 433 1036 414 1036 q 494 1088 489 1036 l 610 1088 q 461 904 594 904 m 243 842 l 463 842 l 581 646 l 433 646 l 351 744 l 269 646 l 122 646 l 243 842 z "},"ȅ":{"ha":631,"x_min":-6,"x_max":611,"o":"m 611 243 l 253 243 q 300 185 265 204 q 385 167 335 167 q 544 217 476 167 l 608 72 q 490 8 557 31 q 346 -14 424 -14 q 108 63 194 -14 q 22 281 22 139 q 61 432 22 365 q 170 536 100 499 q 331 574 240 574 q 481 537 418 574 q 578 435 544 500 q 611 286 611 369 l 611 243 m 389 340 q 322 419 389 419 q 247 340 258 419 l 389 340 m -6 892 l 213 892 l 269 638 l 133 638 l -6 892 m 293 892 l 511 892 l 568 638 l 431 638 l 293 892 z "},"ë":{"ha":631,"x_min":22,"x_max":663,"o":"m 611 243 l 253 243 q 300 185 265 204 q 385 167 335 167 q 544 217 476 167 l 608 72 q 490 8 557 31 q 346 -14 424 -14 q 108 63 194 -14 q 22 281 22 139 q 61 432 22 365 q 170 536 100 499 q 331 574 240 574 q 481 537 418 574 q 578 435 544 500 q 611 286 611 369 l 611 243 m 389 340 q 322 419 389 419 q 247 340 258 419 l 389 340 m 167 674 q 77 706 114 674 q 40 794 40 738 q 77 883 40 851 q 167 915 114 915 q 256 883 219 915 q 293 794 293 851 q 256 706 293 738 q 167 674 219 674 m 536 674 q 447 706 483 674 q 410 794 410 738 q 447 883 410 851 q 536 915 483 915 q 626 883 589 915 q 663 794 663 851 q 626 706 663 738 q 536 674 589 674 z "},"ė":{"ha":631,"x_min":22,"x_max":611,"o":"m 611 243 l 253 243 q 300 185 265 204 q 385 167 335 167 q 544 217 476 167 l 608 72 q 490 8 557 31 q 346 -14 424 -14 q 108 63 194 -14 q 22 281 22 139 q 61 432 22 365 q 170 536 100 499 q 331 574 240 574 q 481 537 418 574 q 578 435 544 500 q 611 286 611 369 l 611 243 m 389 340 q 322 419 389 419 q 247 340 258 419 l 389 340 m 351 674 q 256 708 292 674 q 219 801 219 743 q 256 893 219 858 q 351 928 292 928 q 448 892 413 928 q 483 799 483 857 q 447 708 483 742 q 351 674 410 674 z "},"ẹ":{"ha":631,"x_min":22,"x_max":611,"o":"m 611 243 l 253 243 q 300 185 265 204 q 385 167 335 167 q 544 217 476 167 l 608 72 q 490 8 557 31 q 346 -14 424 -14 q 108 63 194 -14 q 22 281 22 139 q 61 432 22 365 q 170 536 100 499 q 331 574 240 574 q 481 537 418 574 q 578 435 544 500 q 611 286 611 369 l 611 243 m 389 340 q 322 419 389 419 q 247 340 258 419 l 389 340 m 368 -296 q 282 -266 314 -296 q 250 -187 250 -236 q 282 -110 250 -139 q 368 -81 314 -81 q 454 -110 422 -81 q 486 -190 486 -140 q 453 -267 486 -237 q 368 -296 421 -296 z "},"è":{"ha":631,"x_min":22,"x_max":611,"o":"m 611 243 l 253 243 q 300 185 265 204 q 385 167 335 167 q 544 217 476 167 l 608 72 q 490 8 557 31 q 346 -14 424 -14 q 108 63 194 -14 q 22 281 22 139 q 61 432 22 365 q 170 536 100 499 q 331 574 240 574 q 481 537 418 574 q 578 435 544 500 q 611 286 611 369 l 611 243 m 389 340 q 322 419 389 419 q 247 340 258 419 l 389 340 m 142 892 l 360 892 l 415 638 l 279 638 l 142 892 z "},"ẻ":{"ha":631,"x_min":22,"x_max":611,"o":"m 611 243 l 253 243 q 300 185 265 204 q 385 167 335 167 q 544 217 476 167 l 608 72 q 490 8 557 31 q 346 -14 424 -14 q 108 63 194 -14 q 22 281 22 139 q 61 432 22 365 q 170 536 100 499 q 331 574 240 574 q 481 537 418 574 q 578 435 544 500 q 611 286 611 369 l 611 243 m 389 340 q 322 419 389 419 q 247 340 258 419 l 389 340 m 321 682 q 354 705 343 693 q 365 736 365 717 q 349 771 365 758 q 306 783 333 783 q 219 757 261 783 l 196 829 q 263 869 225 854 q 343 885 301 885 q 444 852 406 885 q 482 764 482 819 q 445 673 482 710 q 340 621 408 636 l 321 682 z "},"ȇ":{"ha":631,"x_min":22,"x_max":611,"o":"m 611 243 l 253 243 q 300 185 265 204 q 385 167 335 167 q 544 217 476 167 l 608 72 q 490 8 557 31 q 346 -14 424 -14 q 108 63 194 -14 q 22 281 22 139 q 61 432 22 365 q 170 536 100 499 q 331 574 240 574 q 481 537 418 574 q 578 435 544 500 q 611 286 611 369 l 611 243 m 389 340 q 322 419 389 419 q 247 340 258 419 l 389 340 m 118 619 q 183 796 122 736 q 351 856 243 856 q 520 796 460 856 q 585 619 581 736 l 446 619 q 351 711 433 711 q 287 688 311 711 q 257 619 263 664 l 118 619 z "},"ē":{"ha":631,"x_min":22,"x_max":611,"o":"m 611 243 l 253 243 q 300 185 265 204 q 385 167 335 167 q 544 217 476 167 l 608 72 q 490 8 557 31 q 346 -14 424 -14 q 108 63 194 -14 q 22 281 22 139 q 61 432 22 365 q 170 536 100 499 q 331 574 240 574 q 481 537 418 574 q 578 435 544 500 q 611 286 611 369 l 611 243 m 389 340 q 322 419 389 419 q 247 340 258 419 l 389 340 m 157 776 l 546 776 l 546 649 l 157 649 l 157 776 z "},"ḗ":{"ha":631,"x_min":22,"x_max":611,"o":"m 611 243 l 253 243 q 300 185 265 204 q 385 167 335 167 q 544 217 476 167 l 608 72 q 490 8 557 31 q 346 -14 424 -14 q 108 63 194 -14 q 22 281 22 139 q 61 432 22 365 q 170 536 100 499 q 331 574 240 574 q 481 537 418 574 q 578 435 544 500 q 611 286 611 369 l 611 243 m 389 340 q 322 419 389 419 q 247 340 258 419 l 389 340 m 157 776 l 546 776 l 546 649 l 157 649 l 157 776 m 339 1108 l 557 1108 l 419 854 l 283 854 l 339 1108 z "},"ḕ":{"ha":631,"x_min":22,"x_max":611,"o":"m 611 243 l 253 243 q 300 185 265 204 q 385 167 335 167 q 544 217 476 167 l 608 72 q 490 8 557 31 q 346 -14 424 -14 q 108 63 194 -14 q 22 281 22 139 q 61 432 22 365 q 170 536 100 499 q 331 574 240 574 q 481 537 418 574 q 578 435 544 500 q 611 286 611 369 l 611 243 m 389 340 q 322 419 389 419 q 247 340 258 419 l 389 340 m 157 776 l 546 776 l 546 649 l 157 649 l 157 776 m 142 1108 l 360 1108 l 415 854 l 279 854 l 142 1108 z "},"ę":{"ha":631,"x_min":22,"x_max":611,"o":"m 611 243 l 253 243 q 300 185 265 204 q 385 167 335 167 q 544 217 476 167 l 608 72 q 428 -7 533 13 q 388 -62 400 -39 q 375 -111 375 -86 q 395 -152 375 -136 q 450 -168 415 -168 q 507 -160 478 -168 l 507 -256 q 390 -281 444 -281 q 293 -247 328 -281 q 258 -162 258 -214 q 340 -14 258 -85 q 106 64 190 -12 q 22 281 22 140 q 61 432 22 365 q 170 536 100 499 q 331 574 240 574 q 481 537 418 574 q 578 435 544 500 q 611 286 611 369 l 611 243 m 389 340 q 322 419 389 419 q 247 340 258 419 l 389 340 z "},"ẽ":{"ha":631,"x_min":22,"x_max":638,"o":"m 611 243 l 253 243 q 300 185 265 204 q 385 167 335 167 q 544 217 476 167 l 608 72 q 490 8 557 31 q 346 -14 424 -14 q 108 63 194 -14 q 22 281 22 139 q 61 432 22 365 q 170 536 100 499 q 331 574 240 574 q 481 537 418 574 q 578 435 544 500 q 611 286 611 369 l 611 243 m 389 340 q 322 419 389 419 q 247 340 258 419 l 389 340 m 456 654 q 392 665 424 654 q 322 694 361 675 q 242 722 267 722 q 181 663 186 722 l 65 663 q 124 835 74 781 q 247 890 174 890 q 309 880 279 890 q 379 850 339 869 q 461 822 438 822 q 522 882 517 822 l 638 882 q 579 709 629 764 q 456 654 529 654 z "},"ə":{"ha":631,"x_min":19,"x_max":608,"o":"m 299 574 q 526 497 444 574 q 608 279 608 421 q 570 128 608 194 q 463 24 532 61 q 306 -14 394 -14 q 92 65 165 -14 q 19 274 19 144 l 19 317 l 378 317 q 331 374 365 356 q 247 393 297 393 q 86 343 167 393 l 22 488 q 148 550 76 526 q 299 574 219 574 m 311 140 q 383 219 372 140 l 242 219 q 311 140 242 140 z "},"f":{"ha":442,"x_min":14,"x_max":622,"o":"m 14 139 l 75 139 l 75 421 l 14 421 l 14 560 l 75 560 l 75 614 q 148 795 75 725 q 364 865 221 865 q 622 676 594 865 l 438 646 q 381 726 438 726 q 333 702 349 726 q 318 619 318 678 l 318 560 l 443 560 l 443 421 l 318 421 l 318 139 l 401 139 l 401 0 l 14 0 l 14 139 z "},"ḟ":{"ha":442,"x_min":14,"x_max":622,"o":"m 14 139 l 75 139 l 75 421 l 14 421 l 14 560 l 75 560 l 75 614 q 148 795 75 725 q 364 865 221 865 q 622 676 594 865 l 438 646 q 381 726 438 726 q 333 702 349 726 q 318 619 318 678 l 318 560 l 443 560 l 443 421 l 318 421 l 318 139 l 401 139 l 401 0 l 14 0 l 14 139 m 365 965 q 269 1000 306 965 q 233 1093 233 1035 q 269 1185 233 1150 q 365 1219 306 1219 q 462 1184 426 1219 q 497 1090 497 1149 q 460 999 497 1033 q 365 965 424 965 z "},"g":{"ha":754,"x_min":25,"x_max":735,"o":"m 735 560 l 735 421 l 675 421 l 675 44 q 592 -192 675 -110 q 360 -274 510 -274 q 229 -261 292 -274 q 97 -225 167 -249 l 133 -83 q 228 -108 189 -101 q 310 -115 268 -115 q 432 8 432 -115 l 432 31 q 368 -3 403 7 q 285 -14 333 -14 q 93 65 161 -14 q 25 278 25 143 q 93 492 25 411 q 283 574 161 574 q 447 507 378 574 l 449 560 l 735 560 m 275 279 q 301 192 275 224 q 369 160 326 160 q 432 174 406 160 l 432 379 q 369 400 403 400 q 300 369 325 400 q 275 279 275 339 z "},"ǵ":{"ha":754,"x_min":25,"x_max":735,"o":"m 735 560 l 735 421 l 675 421 l 675 44 q 592 -192 675 -110 q 360 -274 510 -274 q 229 -261 292 -274 q 97 -225 167 -249 l 133 -83 q 228 -108 189 -101 q 310 -115 268 -115 q 432 8 432 -115 l 432 31 q 368 -3 403 7 q 285 -14 333 -14 q 93 65 161 -14 q 25 278 25 143 q 93 492 25 411 q 283 574 161 574 q 447 507 378 574 l 449 560 l 735 560 m 275 279 q 301 192 275 224 q 369 160 326 160 q 432 174 406 160 l 432 379 q 369 400 403 400 q 300 369 325 400 q 275 279 275 339 m 383 892 l 601 892 l 464 638 l 328 638 l 383 892 z "},"ğ":{"ha":754,"x_min":25,"x_max":735,"o":"m 735 560 l 735 421 l 675 421 l 675 44 q 592 -192 675 -110 q 360 -274 510 -274 q 229 -261 292 -274 q 97 -225 167 -249 l 133 -83 q 228 -108 189 -101 q 310 -115 268 -115 q 432 8 432 -115 l 432 31 q 368 -3 403 7 q 285 -14 333 -14 q 93 65 161 -14 q 25 278 25 143 q 93 492 25 411 q 283 574 161 574 q 447 507 378 574 l 449 560 l 735 560 m 275 279 q 301 192 275 224 q 369 160 326 160 q 432 174 406 160 l 432 379 q 369 400 403 400 q 300 369 325 400 q 275 279 275 339 m 396 661 q 149 879 160 661 l 307 879 q 335 812 313 835 q 396 789 358 789 q 485 879 478 789 l 643 879 q 396 661 624 661 z "},"ǧ":{"ha":754,"x_min":25,"x_max":735,"o":"m 735 560 l 735 421 l 675 421 l 675 44 q 592 -192 675 -110 q 360 -274 510 -274 q 229 -261 292 -274 q 97 -225 167 -249 l 133 -83 q 228 -108 189 -101 q 310 -115 268 -115 q 432 8 432 -115 l 432 31 q 368 -3 403 7 q 285 -14 333 -14 q 93 65 161 -14 q 25 278 25 143 q 93 492 25 411 q 283 574 161 574 q 447 507 378 574 l 449 560 l 735 560 m 275 279 q 301 192 275 224 q 369 160 326 160 q 432 174 406 160 l 432 379 q 369 400 403 400 q 300 369 325 400 q 275 279 275 339 m 163 900 l 322 900 l 403 742 l 485 900 l 628 900 l 536 646 l 271 646 l 163 900 z "},"ĝ":{"ha":754,"x_min":25,"x_max":735,"o":"m 735 560 l 735 421 l 675 421 l 675 44 q 592 -192 675 -110 q 360 -274 510 -274 q 229 -261 292 -274 q 97 -225 167 -249 l 133 -83 q 228 -108 189 -101 q 310 -115 268 -115 q 432 8 432 -115 l 432 31 q 368 -3 403 7 q 285 -14 333 -14 q 93 65 161 -14 q 25 278 25 143 q 93 492 25 411 q 283 574 161 574 q 447 507 378 574 l 449 560 l 735 560 m 275 279 q 301 192 275 224 q 369 160 326 160 q 432 174 406 160 l 432 379 q 369 400 403 400 q 300 369 325 400 q 275 279 275 339 m 274 897 l 521 897 l 639 646 l 492 646 l 396 800 l 300 646 l 153 646 l 274 897 z "},"ģ":{"ha":754,"x_min":25,"x_max":735,"o":"m 735 560 l 735 421 l 675 421 l 675 44 q 592 -192 675 -110 q 360 -274 510 -274 q 229 -261 292 -274 q 97 -225 167 -249 l 133 -83 q 228 -108 189 -101 q 310 -115 268 -115 q 432 8 432 -115 l 432 31 q 368 -3 403 7 q 285 -14 333 -14 q 93 65 161 -14 q 25 278 25 143 q 93 492 25 411 q 283 574 161 574 q 447 507 378 574 l 449 560 l 735 560 m 275 279 q 301 192 275 224 q 369 160 326 160 q 432 174 406 160 l 432 379 q 369 400 403 400 q 300 369 325 400 q 275 279 275 339 m 490 971 q 424 942 444 968 q 403 856 403 915 l 504 856 l 504 678 l 286 678 l 286 815 q 332 992 286 936 q 490 1047 378 1047 l 490 971 z "},"ġ":{"ha":754,"x_min":25,"x_max":735,"o":"m 735 560 l 735 421 l 675 421 l 675 44 q 592 -192 675 -110 q 360 -274 510 -274 q 229 -261 292 -274 q 97 -225 167 -249 l 133 -83 q 228 -108 189 -101 q 310 -115 268 -115 q 432 8 432 -115 l 432 31 q 368 -3 403 7 q 285 -14 333 -14 q 93 65 161 -14 q 25 278 25 143 q 93 492 25 411 q 283 574 161 574 q 447 507 378 574 l 449 560 l 735 560 m 275 279 q 301 192 275 224 q 369 160 326 160 q 432 174 406 160 l 432 379 q 369 400 403 400 q 300 369 325 400 q 275 279 275 339 m 396 674 q 300 708 336 674 q 264 801 264 743 q 300 893 264 858 q 396 928 336 928 q 492 892 457 928 q 528 799 528 857 q 491 708 528 742 q 396 674 454 674 z "},"ḡ":{"ha":754,"x_min":25,"x_max":735,"o":"m 735 560 l 735 421 l 675 421 l 675 44 q 592 -192 675 -110 q 360 -274 510 -274 q 229 -261 292 -274 q 97 -225 167 -249 l 133 -83 q 228 -108 189 -101 q 310 -115 268 -115 q 432 8 432 -115 l 432 31 q 368 -3 403 7 q 285 -14 333 -14 q 93 65 161 -14 q 25 278 25 143 q 93 492 25 411 q 283 574 161 574 q 447 507 378 574 l 449 560 l 735 560 m 275 279 q 301 192 275 224 q 369 160 326 160 q 432 174 406 160 l 432 379 q 369 400 403 400 q 300 369 325 400 q 275 279 275 339 m 201 776 l 590 776 l 590 649 l 201 649 l 201 776 z "},"h":{"ha":760,"x_min":14,"x_max":746,"o":"m 746 139 l 746 0 l 394 0 l 394 139 l 442 139 l 442 338 q 425 394 442 374 q 378 414 408 414 q 318 399 349 414 l 318 139 l 365 139 l 365 0 l 14 0 l 14 139 l 75 139 l 75 685 l 15 685 l 15 824 l 318 824 l 318 522 q 492 574 401 574 q 634 517 583 574 q 685 375 685 461 l 685 139 l 746 139 z "},"ħ":{"ha":760,"x_min":3,"x_max":746,"o":"m 746 139 l 746 0 l 394 0 l 394 139 l 442 139 l 442 338 q 425 394 442 374 q 378 414 408 414 q 318 399 349 414 l 318 139 l 365 139 l 365 0 l 14 0 l 14 139 l 75 139 l 75 685 l 15 685 l 15 824 l 318 824 l 318 522 q 492 574 401 574 q 634 517 583 574 q 685 375 685 461 l 685 139 l 746 139 m 3 1040 l 392 1040 l 392 913 l 3 913 l 3 1040 z "},"ḫ":{"ha":760,"x_min":14,"x_max":746,"o":"m 746 139 l 746 0 l 394 0 l 394 139 l 442 139 l 442 338 q 425 394 442 374 q 378 414 408 414 q 318 399 349 414 l 318 139 l 365 139 l 365 0 l 14 0 l 14 139 l 75 139 l 75 685 l 15 685 l 15 824 l 318 824 l 318 522 q 492 574 401 574 q 634 517 583 574 q 685 375 685 461 l 685 139 l 746 139 m 381 -299 q 133 -81 144 -299 l 292 -81 q 320 -148 297 -125 q 381 -171 343 -171 q 469 -81 463 -171 l 628 -81 q 381 -299 608 -299 z "},"ȟ":{"ha":760,"x_min":-36,"x_max":746,"o":"m 746 139 l 746 0 l 394 0 l 394 139 l 442 139 l 442 338 q 425 394 442 374 q 378 414 408 414 q 318 399 349 414 l 318 139 l 365 139 l 365 0 l 14 0 l 14 139 l 75 139 l 75 685 l 15 685 l 15 824 l 318 824 l 318 522 q 492 574 401 574 q 634 517 583 574 q 685 375 685 461 l 685 139 l 746 139 m -36 1164 l 124 1164 l 204 1006 l 286 1164 l 429 1164 l 338 910 l 72 910 l -36 1164 z "},"ĥ":{"ha":760,"x_min":-46,"x_max":746,"o":"m 746 139 l 746 0 l 394 0 l 394 139 l 442 139 l 442 338 q 425 394 442 374 q 378 414 408 414 q 318 399 349 414 l 318 139 l 365 139 l 365 0 l 14 0 l 14 139 l 75 139 l 75 685 l 15 685 l 15 824 l 318 824 l 318 522 q 492 574 401 574 q 634 517 583 574 q 685 375 685 461 l 685 139 l 746 139 m 75 1161 l 322 1161 l 440 910 l 293 910 l 197 1064 l 101 910 l -46 910 l 75 1161 z "},"ḥ":{"ha":760,"x_min":14,"x_max":746,"o":"m 746 139 l 746 0 l 394 0 l 394 139 l 442 139 l 442 338 q 425 394 442 374 q 378 414 408 414 q 318 399 349 414 l 318 139 l 365 139 l 365 0 l 14 0 l 14 139 l 75 139 l 75 685 l 15 685 l 15 824 l 318 824 l 318 522 q 492 574 401 574 q 634 517 583 574 q 685 375 685 461 l 685 139 l 746 139 m 381 -296 q 294 -266 326 -296 q 263 -187 263 -236 q 294 -110 263 -139 q 381 -81 326 -81 q 467 -110 435 -81 q 499 -190 499 -140 q 466 -267 499 -237 q 381 -296 433 -296 z "},"i":{"ha":396,"x_min":19,"x_max":385,"o":"m 185 656 q 85 692 122 656 q 47 788 47 728 q 85 883 47 847 q 185 918 122 918 q 284 883 247 918 q 321 788 321 847 q 285 692 322 728 q 185 656 247 656 m 19 139 l 81 139 l 81 421 l 19 421 l 19 560 l 324 560 l 324 139 l 385 139 l 385 0 l 19 0 l 19 139 z "},"ı":{"ha":413,"x_min":19,"x_max":401,"o":"m 19 151 l 97 151 l 97 407 l 28 407 l 28 560 l 336 560 l 336 151 l 401 151 l 401 0 l 19 0 l 19 151 z "},"í":{"ha":413,"x_min":19,"x_max":422,"o":"m 19 151 l 97 151 l 97 407 l 28 407 l 28 560 l 336 560 l 336 151 l 401 151 l 401 0 l 19 0 l 19 151 m 204 890 l 422 890 l 285 636 l 149 636 l 204 890 z "},"ĭ":{"ha":413,"x_min":-31,"x_max":464,"o":"m 19 151 l 97 151 l 97 407 l 28 407 l 28 560 l 336 560 l 336 151 l 401 151 l 401 0 l 19 0 l 19 151 m 217 660 q -31 878 -19 660 l 128 878 q 156 810 133 833 q 217 788 179 788 q 306 878 299 788 l 464 878 q 217 660 444 660 z "},"ǐ":{"ha":413,"x_min":-17,"x_max":449,"o":"m 19 151 l 97 151 l 97 407 l 28 407 l 28 560 l 336 560 l 336 151 l 401 151 l 401 0 l 19 0 l 19 151 m -17 899 l 143 899 l 224 740 l 306 899 l 449 899 l 357 644 l 92 644 l -17 899 z "},"î":{"ha":413,"x_min":-26,"x_max":460,"o":"m 19 151 l 97 151 l 97 407 l 28 407 l 28 560 l 336 560 l 336 151 l 401 151 l 401 0 l 19 0 l 19 151 m 94 896 l 342 896 l 460 644 l 313 644 l 217 799 l 121 644 l -26 644 l 94 896 z "},"ȉ":{"ha":413,"x_min":-140,"x_max":433,"o":"m 19 151 l 97 151 l 97 407 l 28 407 l 28 560 l 336 560 l 336 151 l 401 151 l 401 0 l 19 0 l 19 151 m -140 890 l 78 890 l 135 636 l -1 636 l -140 890 m 158 890 l 376 890 l 433 636 l 296 636 l 158 890 z "},"ï":{"ha":413,"x_min":-94,"x_max":528,"o":"m 19 151 l 97 151 l 97 407 l 28 407 l 28 560 l 336 560 l 336 151 l 401 151 l 401 0 l 19 0 l 19 151 m 32 672 q -58 704 -21 672 q -94 793 -94 736 q -58 882 -94 850 q 32 914 -21 914 q 122 882 85 914 q 158 793 158 850 q 122 704 158 736 q 32 672 85 672 m 401 672 q 312 704 349 672 q 275 793 275 736 q 312 882 275 850 q 401 914 349 914 q 491 882 454 914 q 528 793 528 850 q 491 704 528 736 q 401 672 454 672 z "},"ḯ":{"ha":413,"x_min":-94,"x_max":528,"o":"m 19 151 l 97 151 l 97 407 l 28 407 l 28 560 l 336 560 l 336 151 l 401 151 l 401 0 l 19 0 l 19 151 m 32 672 q -58 704 -21 672 q -94 793 -94 736 q -58 882 -94 850 q 32 914 -21 914 q 122 882 85 914 q 158 793 158 850 q 122 704 158 736 q 32 672 85 672 m 401 672 q 312 704 349 672 q 275 793 275 736 q 312 882 275 850 q 401 914 349 914 q 491 882 454 914 q 528 793 528 850 q 491 704 528 736 q 401 672 454 672 m 204 1204 l 422 1204 l 285 950 l 149 950 l 204 1204 z "},"ị":{"ha":396,"x_min":19,"x_max":385,"o":"m 185 656 q 85 692 122 656 q 47 788 47 728 q 85 883 47 847 q 185 918 122 918 q 284 883 247 918 q 321 788 321 847 q 285 692 322 728 q 185 656 247 656 m 19 139 l 81 139 l 81 421 l 19 421 l 19 560 l 324 560 l 324 139 l 385 139 l 385 0 l 19 0 l 19 139 m 203 -296 q 117 -266 149 -296 q 85 -187 85 -236 q 117 -110 85 -139 q 203 -81 149 -81 q 289 -110 257 -81 q 321 -190 321 -140 q 288 -267 321 -237 q 203 -296 256 -296 z "},"ì":{"ha":413,"x_min":7,"x_max":401,"o":"m 19 151 l 97 151 l 97 407 l 28 407 l 28 560 l 336 560 l 336 151 l 401 151 l 401 0 l 19 0 l 19 151 m 7 890 l 225 890 l 281 636 l 144 636 l 7 890 z "},"ỉ":{"ha":413,"x_min":19,"x_max":401,"o":"m 19 151 l 97 151 l 97 407 l 28 407 l 28 560 l 336 560 l 336 151 l 401 151 l 401 0 l 19 0 l 19 151 m 186 681 q 219 703 208 692 q 231 735 231 715 q 215 769 231 757 q 171 782 199 782 q 85 756 126 782 l 61 828 q 128 868 90 853 q 208 883 167 883 q 309 851 271 883 q 347 763 347 818 q 310 672 347 708 q 206 619 274 635 l 186 681 z "},"ȋ":{"ha":413,"x_min":-17,"x_max":450,"o":"m 19 151 l 97 151 l 97 407 l 28 407 l 28 560 l 336 560 l 336 151 l 401 151 l 401 0 l 19 0 l 19 151 m -17 618 q 48 794 -12 735 q 217 854 108 854 q 385 794 325 854 q 450 618 446 735 l 311 618 q 217 710 299 710 q 152 686 176 710 q 122 618 128 663 l -17 618 z "},"ĳ":{"ha":835,"x_min":19,"x_max":788,"o":"m 185 656 q 85 692 122 656 q 47 788 47 728 q 85 883 47 847 q 185 918 122 918 q 284 883 247 918 q 321 788 321 847 q 285 692 322 728 q 185 656 247 656 m 19 139 l 81 139 l 81 421 l 19 421 l 19 560 l 324 560 l 324 139 l 385 139 l 385 0 l 19 0 l 19 139 m 644 657 q 545 692 582 657 q 508 789 508 728 q 545 884 508 849 q 644 919 582 919 q 744 884 707 919 q 781 789 781 849 q 744 693 782 729 q 644 657 707 657 m 382 -57 l 433 -57 q 519 -32 493 -57 q 544 54 544 -7 l 544 407 l 444 407 l 444 560 l 788 560 l 788 81 q 703 -161 788 -87 q 458 -235 619 -235 l 382 -235 l 382 -57 z "},"ī":{"ha":413,"x_min":19,"x_max":411,"o":"m 19 151 l 97 151 l 97 407 l 28 407 l 28 560 l 336 560 l 336 151 l 401 151 l 401 0 l 19 0 l 19 151 m 22 775 l 411 775 l 411 647 l 22 647 l 22 775 z "},"į":{"ha":413,"x_min":19,"x_max":401,"o":"m 19 151 l 97 151 l 97 407 l 28 407 l 28 560 l 336 560 l 336 151 l 401 151 l 401 0 l 19 0 l 19 151 m 194 -281 q 97 -247 132 -281 q 63 -162 63 -214 q 161 0 63 -79 l 238 0 q 193 -61 207 -36 q 179 -111 179 -86 q 199 -152 179 -136 q 254 -168 219 -168 q 311 -160 282 -168 l 311 -256 q 194 -281 249 -281 m 217 672 q 121 707 157 672 q 85 800 85 742 q 121 892 85 857 q 217 926 157 926 q 313 891 278 926 q 349 797 349 856 q 312 706 349 740 q 217 672 275 672 z "},"ĩ":{"ha":413,"x_min":-69,"x_max":503,"o":"m 19 151 l 97 151 l 97 407 l 28 407 l 28 560 l 336 560 l 336 151 l 401 151 l 401 0 l 19 0 l 19 151 m 321 653 q 258 663 289 653 q 188 693 226 674 q 107 721 132 721 q 46 661 51 721 l -69 661 q -11 834 -61 779 q 113 889 39 889 q 174 878 144 889 q 244 849 204 868 q 326 821 303 821 q 388 881 382 821 l 503 881 q 444 708 494 763 q 321 653 394 653 z "},"j":{"ha":439,"x_min":-14,"x_max":392,"o":"m 249 657 q 149 692 186 657 q 113 789 113 728 q 149 884 113 849 q 249 919 186 919 q 348 884 311 919 q 385 789 385 849 q 349 693 386 729 q 249 657 311 657 m -14 -57 l 38 -57 q 123 -32 97 -57 q 149 54 149 -7 l 149 407 l 49 407 l 49 560 l 392 560 l 392 81 q 308 -161 392 -87 q 63 -235 224 -235 l -14 -235 l -14 -57 z "},"ȷ":{"ha":444,"x_min":-14,"x_max":397,"o":"m -14 -57 l 38 -57 q 123 -32 97 -57 q 149 54 149 -7 l 149 407 l 49 407 l 49 560 l 397 560 l 397 81 q 312 -161 397 -87 q 63 -235 226 -235 l -14 -235 l -14 -57 z "},"ǰ":{"ha":444,"x_min":-14,"x_max":483,"o":"m -14 -57 l 38 -57 q 123 -32 97 -57 q 149 54 149 -7 l 149 407 l 49 407 l 49 560 l 397 560 l 397 81 q 312 -161 397 -87 q 63 -235 226 -235 l -14 -235 l -14 -57 m 18 900 l 178 900 l 258 742 l 340 900 l 483 900 l 392 646 l 126 646 l 18 900 z "},"ĵ":{"ha":444,"x_min":-14,"x_max":494,"o":"m -14 -57 l 38 -57 q 123 -32 97 -57 q 149 54 149 -7 l 149 407 l 49 407 l 49 560 l 397 560 l 397 81 q 312 -161 397 -87 q 63 -235 226 -235 l -14 -235 l -14 -57 m 129 897 l 376 897 l 494 646 l 347 646 l 251 800 l 156 646 l 8 646 l 129 897 z "},"k":{"ha":761,"x_min":17,"x_max":747,"o":"m 17 139 l 78 139 l 78 685 l 17 685 l 17 824 l 315 824 l 315 297 l 476 421 l 415 421 l 415 560 l 740 560 l 740 421 l 692 421 l 550 311 l 704 139 l 747 139 l 747 0 l 540 0 l 315 274 l 315 139 l 376 139 l 376 0 l 17 0 l 17 139 z "},"ǩ":{"ha":761,"x_min":-36,"x_max":747,"o":"m 17 139 l 78 139 l 78 685 l 17 685 l 17 824 l 315 824 l 315 297 l 476 421 l 415 421 l 415 560 l 740 560 l 740 421 l 692 421 l 550 311 l 704 139 l 747 139 l 747 0 l 540 0 l 315 274 l 315 139 l 376 139 l 376 0 l 17 0 l 17 139 m -36 1164 l 124 1164 l 204 1006 l 286 1164 l 429 1164 l 338 910 l 72 910 l -36 1164 z "},"ķ":{"ha":761,"x_min":17,"x_max":747,"o":"m 17 139 l 78 139 l 78 685 l 17 685 l 17 824 l 315 824 l 315 297 l 476 421 l 415 421 l 415 560 l 740 560 l 740 421 l 692 421 l 550 311 l 704 139 l 747 139 l 747 0 l 540 0 l 315 274 l 315 139 l 376 139 l 376 0 l 17 0 l 17 139 m 328 -374 q 394 -344 374 -371 q 415 -258 415 -318 l 314 -258 l 314 -81 l 532 -81 l 532 -218 q 486 -394 532 -339 q 328 -450 440 -450 l 328 -374 z "},"ĸ":{"ha":925,"x_min":97,"x_max":956,"o":"m 956 153 l 956 0 l 769 0 l 438 268 l 438 153 l 496 153 l 496 0 l 100 0 l 100 153 l 199 153 l 199 396 l 97 396 l 97 546 l 438 546 l 438 274 l 596 396 l 519 396 l 519 546 l 938 546 l 938 396 l 833 396 l 658 282 l 833 153 l 956 153 z "},"l":{"ha":392,"x_min":17,"x_max":378,"o":"m 17 139 l 78 139 l 78 685 l 17 685 l 17 824 l 317 824 l 317 139 l 378 139 l 378 0 l 17 0 l 17 139 z "},"ĺ":{"ha":392,"x_min":17,"x_max":403,"o":"m 17 139 l 78 139 l 78 685 l 17 685 l 17 824 l 317 824 l 317 139 l 378 139 l 378 0 l 17 0 l 17 139 m 185 1156 l 403 1156 l 265 901 l 129 901 l 185 1156 z "},"ľ":{"ha":613,"x_min":17,"x_max":597,"o":"m 17 139 l 78 139 l 78 685 l 17 685 l 17 824 l 317 824 l 317 139 l 378 139 l 378 0 l 17 0 l 17 139 m 382 515 q 457 547 433 518 q 481 639 481 575 l 379 639 l 379 824 l 597 824 l 597 679 q 549 499 597 560 q 382 439 500 439 l 382 515 z "},"ļ":{"ha":392,"x_min":17,"x_max":378,"o":"m 17 139 l 78 139 l 78 685 l 17 685 l 17 824 l 317 824 l 317 139 l 378 139 l 378 0 l 17 0 l 17 139 m 101 -374 q 168 -344 147 -371 q 189 -258 189 -318 l 88 -258 l 88 -81 l 306 -81 l 306 -218 q 260 -394 306 -339 q 101 -450 214 -450 l 101 -374 z "},"ŀ":{"ha":513,"x_min":17,"x_max":554,"o":"m 17 139 l 78 139 l 78 685 l 17 685 l 17 824 l 317 824 l 317 139 l 378 139 l 378 0 l 17 0 l 17 139 m 454 365 q 383 392 411 365 q 354 460 354 419 q 383 527 354 500 q 454 554 411 554 q 526 527 497 554 q 554 460 554 500 q 526 392 554 419 q 454 365 497 365 z "},"ḷ":{"ha":392,"x_min":17,"x_max":378,"o":"m 17 139 l 78 139 l 78 685 l 17 685 l 17 824 l 317 824 l 317 139 l 378 139 l 378 0 l 17 0 l 17 139 m 197 -296 q 111 -266 143 -296 q 79 -187 79 -236 q 111 -110 79 -139 q 197 -81 143 -81 q 283 -110 251 -81 q 315 -190 315 -140 q 283 -267 315 -237 q 197 -296 250 -296 z "},"ǉ":{"ha":831,"x_min":17,"x_max":783,"o":"m 17 139 l 78 139 l 78 685 l 17 685 l 17 824 l 317 824 l 317 139 l 378 139 l 378 0 l 17 0 l 17 139 m 640 657 q 541 692 578 657 q 504 789 504 728 q 541 884 504 849 q 640 919 578 919 q 740 884 703 919 q 776 789 776 849 q 740 693 778 729 q 640 657 703 657 m 378 -57 l 429 -57 q 515 -32 489 -57 q 540 54 540 -7 l 540 407 l 440 407 l 440 560 l 783 560 l 783 81 q 699 -161 783 -87 q 454 -235 615 -235 l 378 -235 l 378 -57 z "},"ḻ":{"ha":392,"x_min":3,"x_max":392,"o":"m 17 139 l 78 139 l 78 685 l 17 685 l 17 824 l 317 824 l 317 139 l 378 139 l 378 0 l 17 0 l 17 139 m 3 -122 l 392 -122 l 392 -250 l 3 -250 l 3 -122 z "},"ł":{"ha":393,"x_min":4,"x_max":435,"o":"m 317 424 l 317 139 l 378 139 l 378 0 l 17 0 l 17 139 l 78 139 l 78 293 l 4 253 l 4 429 l 78 471 l 78 685 l 17 685 l 17 824 l 317 824 l 317 604 l 435 669 l 435 489 l 317 424 z "},"m":{"ha":1146,"x_min":19,"x_max":1132,"o":"m 1132 139 l 1132 0 l 781 0 l 781 139 l 828 139 l 828 338 q 811 394 828 374 q 764 414 794 414 q 690 392 728 414 l 690 375 l 690 139 l 751 139 l 751 0 l 400 0 l 400 139 l 447 139 l 447 338 q 431 394 447 374 q 383 414 414 414 q 324 399 354 414 l 324 139 l 371 139 l 371 0 l 19 0 l 19 139 l 81 139 l 81 421 l 21 421 l 21 560 l 303 560 l 308 513 q 497 574 400 574 q 595 552 554 574 q 660 492 636 531 q 878 574 767 574 q 1020 517 969 574 q 1071 375 1071 461 l 1071 139 l 1132 139 z "},"ṁ":{"ha":1146,"x_min":19,"x_max":1132,"o":"m 1132 139 l 1132 0 l 781 0 l 781 139 l 828 139 l 828 338 q 811 394 828 374 q 764 414 794 414 q 690 392 728 414 l 690 375 l 690 139 l 751 139 l 751 0 l 400 0 l 400 139 l 447 139 l 447 338 q 431 394 447 374 q 383 414 414 414 q 324 399 354 414 l 324 139 l 371 139 l 371 0 l 19 0 l 19 139 l 81 139 l 81 421 l 21 421 l 21 560 l 303 560 l 308 513 q 497 574 400 574 q 595 552 554 574 q 660 492 636 531 q 878 574 767 574 q 1020 517 969 574 q 1071 375 1071 461 l 1071 139 l 1132 139 m 597 674 q 501 708 538 674 q 465 801 465 743 q 501 893 465 858 q 597 928 538 928 q 694 892 658 928 q 729 799 729 857 q 692 708 729 742 q 597 674 656 674 z "},"ṃ":{"ha":1146,"x_min":19,"x_max":1132,"o":"m 1132 139 l 1132 0 l 781 0 l 781 139 l 828 139 l 828 338 q 811 394 828 374 q 764 414 794 414 q 690 392 728 414 l 690 375 l 690 139 l 751 139 l 751 0 l 400 0 l 400 139 l 447 139 l 447 338 q 431 394 447 374 q 383 414 414 414 q 324 399 354 414 l 324 139 l 371 139 l 371 0 l 19 0 l 19 139 l 81 139 l 81 421 l 21 421 l 21 560 l 303 560 l 308 513 q 497 574 400 574 q 595 552 554 574 q 660 492 636 531 q 878 574 767 574 q 1020 517 969 574 q 1071 375 1071 461 l 1071 139 l 1132 139 m 569 -296 q 483 -266 515 -296 q 451 -187 451 -236 q 483 -110 451 -139 q 569 -81 515 -81 q 656 -110 624 -81 q 688 -190 688 -140 q 655 -267 688 -237 q 569 -296 622 -296 z "},"n":{"ha":765,"x_min":19,"x_max":751,"o":"m 751 139 l 751 0 l 400 0 l 400 139 l 447 139 l 447 338 q 431 394 447 374 q 383 414 414 414 q 324 399 354 414 l 324 139 l 371 139 l 371 0 l 19 0 l 19 139 l 81 139 l 81 421 l 19 421 l 19 560 l 303 560 l 308 513 q 497 574 400 574 q 640 517 589 574 q 690 375 690 461 l 690 139 l 751 139 z "},"ń":{"ha":765,"x_min":19,"x_max":751,"o":"m 751 139 l 751 0 l 400 0 l 400 139 l 447 139 l 447 338 q 431 394 447 374 q 383 414 414 414 q 324 399 354 414 l 324 139 l 371 139 l 371 0 l 19 0 l 19 139 l 81 139 l 81 421 l 19 421 l 19 560 l 303 560 l 308 513 q 497 574 400 574 q 640 517 589 574 q 690 375 690 461 l 690 139 l 751 139 m 351 892 l 569 892 l 432 638 l 296 638 l 351 892 z "},"ŉ":{"ha":1117,"x_min":139,"x_max":1103,"o":"m 142 661 q 217 692 193 664 q 240 785 240 721 l 139 785 l 139 969 l 357 969 l 357 825 q 308 645 357 706 q 142 585 260 585 l 142 661 m 1103 139 l 1103 0 l 751 0 l 751 139 l 799 139 l 799 338 q 782 394 799 374 q 735 414 765 414 q 675 399 706 414 l 675 139 l 722 139 l 722 0 l 371 0 l 371 139 l 432 139 l 432 421 l 371 421 l 371 560 l 654 560 l 660 513 q 849 574 751 574 q 991 517 940 574 q 1042 375 1042 461 l 1042 139 l 1103 139 z "},"ň":{"ha":765,"x_min":19,"x_max":751,"o":"m 751 139 l 751 0 l 400 0 l 400 139 l 447 139 l 447 338 q 431 394 447 374 q 383 414 414 414 q 324 399 354 414 l 324 139 l 371 139 l 371 0 l 19 0 l 19 139 l 81 139 l 81 421 l 19 421 l 19 560 l 303 560 l 308 513 q 497 574 400 574 q 640 517 589 574 q 690 375 690 461 l 690 139 l 751 139 m 131 900 l 290 900 l 371 742 l 453 900 l 596 900 l 504 646 l 239 646 l 131 900 z "},"ņ":{"ha":765,"x_min":19,"x_max":751,"o":"m 751 139 l 751 0 l 400 0 l 400 139 l 447 139 l 447 338 q 431 394 447 374 q 383 414 414 414 q 324 399 354 414 l 324 139 l 371 139 l 371 0 l 19 0 l 19 139 l 81 139 l 81 421 l 19 421 l 19 560 l 303 560 l 308 513 q 497 574 400 574 q 640 517 589 574 q 690 375 690 461 l 690 139 l 751 139 m 290 -374 q 357 -344 336 -371 q 378 -258 378 -318 l 276 -258 l 276 -81 l 494 -81 l 494 -218 q 449 -394 494 -339 q 290 -450 403 -450 l 290 -374 z "},"ṅ":{"ha":765,"x_min":19,"x_max":751,"o":"m 751 139 l 751 0 l 400 0 l 400 139 l 447 139 l 447 338 q 431 394 447 374 q 383 414 414 414 q 324 399 354 414 l 324 139 l 371 139 l 371 0 l 19 0 l 19 139 l 81 139 l 81 421 l 19 421 l 19 560 l 303 560 l 308 513 q 497 574 400 574 q 640 517 589 574 q 690 375 690 461 l 690 139 l 751 139 m 364 674 q 268 708 304 674 q 232 801 232 743 q 268 893 232 858 q 364 928 304 928 q 460 892 425 928 q 496 799 496 857 q 459 708 496 742 q 364 674 422 674 z "},"ṇ":{"ha":765,"x_min":19,"x_max":751,"o":"m 751 139 l 751 0 l 400 0 l 400 139 l 447 139 l 447 338 q 431 394 447 374 q 383 414 414 414 q 324 399 354 414 l 324 139 l 371 139 l 371 0 l 19 0 l 19 139 l 81 139 l 81 421 l 19 421 l 19 560 l 303 560 l 308 513 q 497 574 400 574 q 640 517 589 574 q 690 375 690 461 l 690 139 l 751 139 m 386 -296 q 300 -266 332 -296 q 268 -187 268 -236 q 300 -110 268 -139 q 386 -81 332 -81 q 472 -110 440 -81 q 504 -190 504 -140 q 472 -267 504 -237 q 386 -296 439 -296 z "},"ǹ":{"ha":765,"x_min":19,"x_max":751,"o":"m 751 139 l 751 0 l 400 0 l 400 139 l 447 139 l 447 338 q 431 394 447 374 q 383 414 414 414 q 324 399 354 414 l 324 139 l 371 139 l 371 0 l 19 0 l 19 139 l 81 139 l 81 421 l 19 421 l 19 560 l 303 560 l 308 513 q 497 574 400 574 q 640 517 589 574 q 690 375 690 461 l 690 139 l 751 139 m 154 892 l 372 892 l 428 638 l 292 638 l 154 892 z "},"ŋ":{"ha":781,"x_min":19,"x_max":711,"o":"m 354 -71 q 442 -30 415 -71 q 468 115 468 11 l 468 338 q 449 394 468 374 q 393 414 429 414 q 324 399 361 414 l 324 139 l 371 139 l 371 0 l 19 0 l 19 139 l 81 139 l 81 421 l 21 421 l 21 560 l 303 560 l 308 513 q 507 574 404 574 q 658 517 604 574 q 711 375 711 461 l 711 122 q 614 -160 711 -81 q 351 -239 517 -239 l 354 -71 z "},"ǌ":{"ha":1204,"x_min":19,"x_max":1157,"o":"m 751 139 l 751 0 l 400 0 l 400 139 l 447 139 l 447 338 q 431 394 447 374 q 383 414 414 414 q 324 399 354 414 l 324 139 l 371 139 l 371 0 l 19 0 l 19 139 l 81 139 l 81 421 l 19 421 l 19 560 l 303 560 l 308 513 q 497 574 400 574 q 640 517 589 574 q 690 375 690 461 l 690 139 l 751 139 m 1014 657 q 915 692 951 657 q 878 789 878 728 q 915 884 878 849 q 1014 919 951 919 q 1113 884 1076 919 q 1150 789 1150 849 q 1114 693 1151 729 q 1014 657 1076 657 m 751 -57 l 803 -57 q 888 -32 863 -57 q 914 54 914 -7 l 914 407 l 814 407 l 814 560 l 1157 560 l 1157 81 q 1073 -161 1157 -87 q 828 -235 989 -235 l 751 -235 l 751 -57 z "},"ṉ":{"ha":765,"x_min":19,"x_max":751,"o":"m 751 139 l 751 0 l 400 0 l 400 139 l 447 139 l 447 338 q 431 394 447 374 q 383 414 414 414 q 324 399 354 414 l 324 139 l 371 139 l 371 0 l 19 0 l 19 139 l 81 139 l 81 421 l 19 421 l 19 560 l 303 560 l 308 513 q 497 574 400 574 q 640 517 589 574 q 690 375 690 461 l 690 139 l 751 139 m 192 -122 l 581 -122 l 581 -250 l 192 -250 l 192 -122 z "},"ñ":{"ha":765,"x_min":19,"x_max":751,"o":"m 751 139 l 751 0 l 400 0 l 400 139 l 447 139 l 447 338 q 431 394 447 374 q 383 414 414 414 q 324 399 354 414 l 324 139 l 371 139 l 371 0 l 19 0 l 19 139 l 81 139 l 81 421 l 19 421 l 19 560 l 303 560 l 308 513 q 497 574 400 574 q 640 517 589 574 q 690 375 690 461 l 690 139 l 751 139 m 468 654 q 405 665 436 654 q 335 694 374 675 q 254 722 279 722 q 193 663 199 722 l 78 663 q 136 835 86 781 q 260 890 186 890 q 322 880 292 890 q 392 850 351 869 q 474 822 450 822 q 535 882 529 822 l 650 882 q 592 709 642 764 q 468 654 542 654 z "},"o":{"ha":672,"x_min":22,"x_max":650,"o":"m 336 -14 q 172 23 243 -14 q 61 126 100 60 q 22 281 22 193 q 61 435 22 368 q 172 538 100 501 q 336 574 243 574 q 501 538 429 574 q 611 435 572 501 q 650 281 650 368 q 611 126 650 193 q 501 23 572 60 q 336 -14 429 -14 m 336 167 q 403 196 379 165 q 428 281 428 226 q 404 364 428 335 q 336 393 381 393 q 268 364 292 393 q 244 281 244 335 q 269 196 244 226 q 336 167 293 165 z "},"ó":{"ha":672,"x_min":22,"x_max":650,"o":"m 336 -14 q 172 23 243 -14 q 61 126 100 60 q 22 281 22 193 q 61 435 22 368 q 172 538 100 501 q 336 574 243 574 q 501 538 429 574 q 611 435 572 501 q 650 281 650 368 q 611 126 650 193 q 501 23 572 60 q 336 -14 429 -14 m 336 167 q 403 196 379 165 q 428 281 428 226 q 404 364 428 335 q 336 393 381 393 q 268 364 292 393 q 244 281 244 335 q 269 196 244 226 q 336 167 293 165 m 324 892 l 542 892 l 404 638 l 268 638 l 324 892 z "},"ŏ":{"ha":672,"x_min":22,"x_max":650,"o":"m 336 -14 q 172 23 243 -14 q 61 126 100 60 q 22 281 22 193 q 61 435 22 368 q 172 538 100 501 q 336 574 243 574 q 501 538 429 574 q 611 435 572 501 q 650 281 650 368 q 611 126 650 193 q 501 23 572 60 q 336 -14 429 -14 m 336 167 q 403 196 379 165 q 428 281 428 226 q 404 364 428 335 q 336 393 381 393 q 268 364 292 393 q 244 281 244 335 q 269 196 244 226 q 336 167 293 165 m 336 661 q 89 879 100 661 l 247 879 q 276 812 253 835 q 336 789 299 789 q 425 879 418 789 l 583 879 q 336 661 564 661 z "},"ǒ":{"ha":672,"x_min":22,"x_max":650,"o":"m 336 -14 q 172 23 243 -14 q 61 126 100 60 q 22 281 22 193 q 61 435 22 368 q 172 538 100 501 q 336 574 243 574 q 501 538 429 574 q 611 435 572 501 q 650 281 650 368 q 611 126 650 193 q 501 23 572 60 q 336 -14 429 -14 m 336 167 q 403 196 379 165 q 428 281 428 226 q 404 364 428 335 q 336 393 381 393 q 268 364 292 393 q 244 281 244 335 q 269 196 244 226 q 336 167 293 165 m 103 900 l 263 900 l 343 742 l 425 900 l 568 900 l 476 646 l 211 646 l 103 900 z "},"ô":{"ha":672,"x_min":22,"x_max":650,"o":"m 336 -14 q 172 23 243 -14 q 61 126 100 60 q 22 281 22 193 q 61 435 22 368 q 172 538 100 501 q 336 574 243 574 q 501 538 429 574 q 611 435 572 501 q 650 281 650 368 q 611 126 650 193 q 501 23 572 60 q 336 -14 429 -14 m 336 167 q 403 196 379 165 q 428 281 428 226 q 404 364 428 335 q 336 393 381 393 q 268 364 292 393 q 244 281 244 335 q 269 196 244 226 q 336 167 293 165 m 214 897 l 461 897 l 579 646 l 432 646 l 336 800 l 240 646 l 93 646 l 214 897 z "},"ố":{"ha":672,"x_min":22,"x_max":758,"o":"m 336 -14 q 172 23 243 -14 q 61 126 100 60 q 22 281 22 193 q 61 435 22 368 q 172 538 100 501 q 336 574 243 574 q 501 538 429 574 q 611 435 572 501 q 650 281 650 368 q 611 126 650 193 q 501 23 572 60 q 336 -14 429 -14 m 336 167 q 403 196 379 165 q 428 281 428 226 q 404 364 428 335 q 336 393 381 393 q 268 364 292 393 q 244 281 244 335 q 269 196 244 226 q 336 167 293 165 m 593 975 l 758 975 l 642 776 l 533 776 l 593 975 m 228 842 l 447 842 l 565 646 l 418 646 l 336 744 l 254 646 l 107 646 l 228 842 z "},"ộ":{"ha":672,"x_min":22,"x_max":650,"o":"m 336 -14 q 172 23 243 -14 q 61 126 100 60 q 22 281 22 193 q 61 435 22 368 q 172 538 100 501 q 336 574 243 574 q 501 538 429 574 q 611 435 572 501 q 650 281 650 368 q 611 126 650 193 q 501 23 572 60 q 336 -14 429 -14 m 336 167 q 403 196 379 165 q 428 281 428 226 q 404 364 428 335 q 336 393 381 393 q 268 364 292 393 q 244 281 244 335 q 269 196 244 226 q 336 167 293 165 m 336 -296 q 250 -266 282 -296 q 218 -187 218 -236 q 250 -110 218 -139 q 336 -81 282 -81 q 422 -110 390 -81 q 454 -190 454 -140 q 422 -267 454 -237 q 336 -296 389 -296 m 214 897 l 461 897 l 579 646 l 432 646 l 336 800 l 240 646 l 93 646 l 214 897 z "},"ồ":{"ha":672,"x_min":22,"x_max":689,"o":"m 336 -14 q 172 23 243 -14 q 61 126 100 60 q 22 281 22 193 q 61 435 22 368 q 172 538 100 501 q 336 574 243 574 q 501 538 429 574 q 611 435 572 501 q 650 281 650 368 q 611 126 650 193 q 501 23 572 60 q 336 -14 429 -14 m 336 167 q 403 196 379 165 q 428 281 428 226 q 404 364 428 335 q 336 393 381 393 q 268 364 292 393 q 244 281 244 335 q 269 196 244 226 q 336 167 293 165 m 581 776 l 464 975 l 629 975 l 689 776 l 581 776 m 228 842 l 447 842 l 565 646 l 418 646 l 336 744 l 254 646 l 107 646 l 228 842 z "},"ổ":{"ha":672,"x_min":22,"x_max":703,"o":"m 336 -14 q 172 23 243 -14 q 61 126 100 60 q 22 281 22 193 q 61 435 22 368 q 172 538 100 501 q 336 574 243 574 q 501 538 429 574 q 611 435 572 501 q 650 281 650 368 q 611 126 650 193 q 501 23 572 60 q 336 -14 429 -14 m 336 167 q 403 196 379 165 q 428 281 428 226 q 404 364 428 335 q 336 393 381 393 q 268 364 292 393 q 244 281 244 335 q 269 196 244 226 q 336 167 293 165 m 542 813 q 575 835 564 824 q 586 867 586 847 q 570 901 586 889 q 526 914 554 914 q 440 888 482 914 l 417 960 q 484 1000 446 985 q 564 1015 522 1015 q 665 983 626 1015 q 703 894 703 950 q 666 803 703 840 q 561 751 629 767 l 542 813 m 228 842 l 447 842 l 565 646 l 418 646 l 336 744 l 254 646 l 107 646 l 228 842 z "},"ỗ":{"ha":672,"x_min":22,"x_max":650,"o":"m 336 -14 q 172 23 243 -14 q 61 126 100 60 q 22 281 22 193 q 61 435 22 368 q 172 538 100 501 q 336 574 243 574 q 501 538 429 574 q 611 435 572 501 q 650 281 650 368 q 611 126 650 193 q 501 23 572 60 q 336 -14 429 -14 m 336 167 q 403 196 379 165 q 428 281 428 226 q 404 364 428 335 q 336 393 381 393 q 268 364 292 393 q 244 281 244 335 q 269 196 244 226 q 336 167 293 165 m 446 904 q 397 912 419 904 q 339 936 375 919 q 290 957 308 950 q 254 964 272 964 q 193 904 199 964 l 78 904 q 126 1050 86 1004 q 228 1096 167 1096 q 276 1088 254 1096 q 332 1064 299 1081 q 381 1043 363 1050 q 418 1036 399 1036 q 479 1088 474 1036 l 594 1088 q 446 904 579 904 m 228 842 l 447 842 l 565 646 l 418 646 l 336 744 l 254 646 l 107 646 l 228 842 z "},"ȍ":{"ha":672,"x_min":-21,"x_max":650,"o":"m 336 -14 q 172 23 243 -14 q 61 126 100 60 q 22 281 22 193 q 61 435 22 368 q 172 538 100 501 q 336 574 243 574 q 501 538 429 574 q 611 435 572 501 q 650 281 650 368 q 611 126 650 193 q 501 23 572 60 q 336 -14 429 -14 m 336 167 q 403 196 379 165 q 428 281 428 226 q 404 364 428 335 q 336 393 381 393 q 268 364 292 393 q 244 281 244 335 q 269 196 244 226 q 336 167 293 165 m -21 892 l 197 892 l 254 638 l 118 638 l -21 892 m 278 892 l 496 892 l 553 638 l 415 638 l 278 892 z "},"ö":{"ha":672,"x_min":22,"x_max":650,"o":"m 336 -14 q 172 23 243 -14 q 61 126 100 60 q 22 281 22 193 q 61 435 22 368 q 172 538 100 501 q 336 574 243 574 q 501 538 429 574 q 611 435 572 501 q 650 281 650 368 q 611 126 650 193 q 501 23 572 60 q 336 -14 429 -14 m 336 167 q 403 196 379 165 q 428 281 428 226 q 404 364 428 335 q 336 393 381 393 q 268 364 292 393 q 244 281 244 335 q 269 196 244 226 q 336 167 293 165 m 151 674 q 62 706 99 674 q 25 794 25 738 q 62 883 25 851 q 151 915 99 915 q 241 883 204 915 q 278 794 278 851 q 241 706 278 738 q 151 674 204 674 m 521 674 q 431 706 468 674 q 394 794 394 738 q 431 883 394 851 q 521 915 468 915 q 610 883 574 915 q 647 794 647 851 q 610 706 647 738 q 521 674 574 674 z "},"ȫ":{"ha":672,"x_min":22,"x_max":650,"o":"m 336 -14 q 172 23 243 -14 q 61 126 100 60 q 22 281 22 193 q 61 435 22 368 q 172 538 100 501 q 336 574 243 574 q 501 538 429 574 q 611 435 572 501 q 650 281 650 368 q 611 126 650 193 q 501 23 572 60 q 336 -14 429 -14 m 336 167 q 403 196 379 165 q 428 281 428 226 q 404 364 428 335 q 336 393 381 393 q 268 364 292 393 q 244 281 244 335 q 269 196 244 226 q 336 167 293 165 m 151 674 q 62 706 99 674 q 25 794 25 738 q 62 883 25 851 q 151 915 99 915 q 241 883 204 915 q 278 794 278 851 q 241 706 278 738 q 151 674 204 674 m 521 674 q 431 706 468 674 q 394 794 394 738 q 431 883 394 851 q 521 915 468 915 q 610 883 574 915 q 647 794 647 851 q 610 706 647 738 q 521 674 574 674 m 142 1090 l 531 1090 l 531 963 l 142 963 l 142 1090 z "},"ȯ":{"ha":672,"x_min":22,"x_max":650,"o":"m 336 -14 q 172 23 243 -14 q 61 126 100 60 q 22 281 22 193 q 61 435 22 368 q 172 538 100 501 q 336 574 243 574 q 501 538 429 574 q 611 435 572 501 q 650 281 650 368 q 611 126 650 193 q 501 23 572 60 q 336 -14 429 -14 m 336 167 q 403 196 379 165 q 428 281 428 226 q 404 364 428 335 q 336 393 381 393 q 268 364 292 393 q 244 281 244 335 q 269 196 244 226 q 336 167 293 165 m 336 674 q 240 708 276 674 q 204 801 204 743 q 240 893 204 858 q 336 928 276 928 q 433 892 397 928 q 468 799 468 857 q 431 708 468 742 q 336 674 394 674 z "},"ȱ":{"ha":672,"x_min":22,"x_max":650,"o":"m 336 -14 q 172 23 243 -14 q 61 126 100 60 q 22 281 22 193 q 61 435 22 368 q 172 538 100 501 q 336 574 243 574 q 501 538 429 574 q 611 435 572 501 q 650 281 650 368 q 611 126 650 193 q 501 23 572 60 q 336 -14 429 -14 m 336 167 q 403 196 379 165 q 428 281 428 226 q 404 364 428 335 q 336 393 381 393 q 268 364 292 393 q 244 281 244 335 q 269 196 244 226 q 336 167 293 165 m 336 674 q 240 708 276 674 q 204 801 204 743 q 240 893 204 858 q 336 928 276 928 q 433 892 397 928 q 468 799 468 857 q 431 708 468 742 q 336 674 394 674 m 142 1103 l 531 1103 l 531 975 l 142 975 l 142 1103 z "},"ọ":{"ha":672,"x_min":22,"x_max":650,"o":"m 336 -14 q 172 23 243 -14 q 61 126 100 60 q 22 281 22 193 q 61 435 22 368 q 172 538 100 501 q 336 574 243 574 q 501 538 429 574 q 611 435 572 501 q 650 281 650 368 q 611 126 650 193 q 501 23 572 60 q 336 -14 429 -14 m 336 167 q 403 196 379 165 q 428 281 428 226 q 404 364 428 335 q 336 393 381 393 q 268 364 292 393 q 244 281 244 335 q 269 196 244 226 q 336 167 293 165 m 336 -296 q 250 -266 282 -296 q 218 -187 218 -236 q 250 -110 218 -139 q 336 -81 282 -81 q 422 -110 390 -81 q 454 -190 454 -140 q 422 -267 454 -237 q 336 -296 389 -296 z "},"ò":{"ha":672,"x_min":22,"x_max":650,"o":"m 336 -14 q 172 23 243 -14 q 61 126 100 60 q 22 281 22 193 q 61 435 22 368 q 172 538 100 501 q 336 574 243 574 q 501 538 429 574 q 611 435 572 501 q 650 281 650 368 q 611 126 650 193 q 501 23 572 60 q 336 -14 429 -14 m 336 167 q 403 196 379 165 q 428 281 428 226 q 404 364 428 335 q 336 393 381 393 q 268 364 292 393 q 244 281 244 335 q 269 196 244 226 q 336 167 293 165 m 126 892 l 344 892 l 400 638 l 264 638 l 126 892 z "}}}
